<?xml version="1.0" encoding="UTF-8"?>
<svg width="200px" height="200px" viewBox="0 0 200 200" version="1.1" xmlns="http://www.w3.org/2000/svg" xmlns:xlink="http://www.w3.org/1999/xlink">
    <title>aven</title>
    <defs>
        <linearGradient x1="103.17574%" y1="116.10399%" x2="33.5505629%" y2="29.563098%" id="linearGradient-1">
            <stop stop-color="#B03B83" offset="0%"></stop>
            <stop stop-color="#6F4A9E" offset="100%"></stop>
        </linearGradient>
    </defs>
    <g id="aven" stroke="none" stroke-width="1" fill="none" fill-rule="evenodd">
        <g>
            <path d="M105.1,175.33 L104.34,175.33 L103.61,175.33 C102.44,175.33 101.22,175.41 100,175.41 C51.5781727,175.422557 9.80863215,141.417974 0,94 C1,152.72 45.4,200 100,200 L100,200 C154.56,200 198.91,152.77 200,94.08 C190.677126,139.683164 151.595004,173.143884 105.1,175.33 L105.1,175.33 Z" id="Path" fill="#000000"></path>
            <path d="M4.38,62.67 C3.12,62.67 1.87,62.67 0.63,62.77 C0.212689286,66.4419293 0.00235673282,70.1344341 1.42108547e-14,73.83 C1.42108547e-14,128.83 44.77,173.45 100,173.45 C101.26,173.45 102.5,173.45 103.75,173.36 C104.162316,169.687647 104.372632,165.99542 104.38,162.3 C104.38,107.28 59.61,62.67 4.38,62.67 Z" id="Path" fill="url(#linearGradient-1)"></path>
            <path d="M199.38,62.8 C146.47,65.4 104.38,108.95 104.38,162.3 C104.38,163.23 104.38,164.16 104.38,165.09 C104.38,164.16 104.38,163.23 104.38,162.3 C104.38,164.17 104.32,166.03 104.21,167.87 C104.32,166.03 104.38,164.17 104.38,162.3 C104.38,107.3 59.61,62.67 4.38,62.67 C3.12,62.67 1.87,62.67 0.63,62.77 C0.212689286,66.4419293 0.00235673282,70.1344341 1.42108547e-14,73.83 C1.42108547e-14,128.83 44.77,173.45 100,173.45 C101.26,173.45 102.5,173.45 103.75,173.36 L103.75,173.36 C104.17,173.36 104.59,173.36 105,173.36 L105,173.36 C157.91,170.76 200,127.21 200,73.86 C199.997045,70.1647323 199.790064,66.4724461 199.38,62.8 Z" id="Path" fill="#000000"></path>
            <path d="M199.38,62.8 C146.47,65.4 104.38,108.95 104.38,162.3 C104.38,163.23 104.38,164.16 104.38,165.09 C104.38,164.16 104.38,163.23 104.38,162.3 C104.38,164.17 104.32,166.03 104.21,167.87 C104.32,166.03 104.38,164.17 104.38,162.3 C104.38,107.3 59.61,62.67 4.38,62.67 C3.12,62.67 1.87,62.67 0.63,62.77 C0.212689286,66.4419293 0.00235673282,70.1344341 1.42108547e-14,73.83 C1.42108547e-14,128.83 44.77,173.45 100,173.45 C101.26,173.45 102.5,173.45 103.75,173.36 L103.75,173.36 C104.17,173.36 104.59,173.36 105,173.36 L105,173.36 C157.91,170.76 200,127.21 200,73.86 C199.997045,70.1647323 199.790064,66.4724461 199.38,62.8 Z" id="Path" fill="#000000"></path>
            <circle id="Oval" fill="#000000" cx="100" cy="36" r="36"></circle>
        </g>
    </g>
</svg>