<?xml version="1.0" encoding="UTF-8"?>
<svg width="200px" height="200px" viewBox="0 0 200 200" version="1.1" xmlns="http://www.w3.org/2000/svg" xmlns:xlink="http://www.w3.org/1999/xlink">
    <title>circle</title>
    <g id="circle" stroke="none" stroke-width="1" fill="none" fill-rule="evenodd">
        <g transform="translate(-1.000000, 0.000000)" fill="#000000" id="Path">
            <path d="M142.53,157.3 C113.592664,178.676469 73.1632603,174.636871 49.0275369,147.957484 C24.8918135,121.278098 24.9098604,80.647386 49.0692745,53.9894502 C73.2286887,27.3315145 113.661665,23.3278333 142.58,44.73 L161.97,21.73 C120.855533,-9.8970045 62.3837484,-4.83613201 27.3147813,33.3847304 C-7.7541858,71.6055929 -7.77639317,130.29598 27.2636397,168.543371 C62.3036726,206.790761 120.771611,211.895882 161.91,180.3 L142.53,157.3 Z"></path>
            <path d="M149.41,151.49 L168.79,174.49 C189.317559,155.565423 200.998796,128.92084 201.008298,101.00095 C201.017789,73.0810605 189.354681,46.4285374 168.84,27.49 L149.44,50.49 C163.236462,63.6658681 171.041597,81.9126348 171.041597,100.99 C171.041597,120.067365 163.236462,138.314132 149.44,151.49 L149.41,151.49 Z"></path>
        </g>
    </g>
</svg>