<?xml version="1.0" encoding="UTF-8"?>
<svg width="200px" height="200px" viewBox="0 0 200 200" version="1.1" xmlns="http://www.w3.org/2000/svg" xmlns:xlink="http://www.w3.org/1999/xlink">
    <title>cod-lab</title>
    <g id="cod-lab" stroke="none" stroke-width="1" fill="none" fill-rule="evenodd">
        <g id="code-lab" transform="translate(0.000000, 14.000000)" fill="#000000">
            <circle id="Oval" cx="76" cy="64" r="12"></circle>
            <circle id="Oval" cx="74" cy="134" r="12"></circle>
            <circle id="Oval" cx="64" cy="40" r="4"></circle>
            <circle id="Oval" cx="59" cy="97" r="3"></circle>
            <circle id="Oval" cx="136" cy="100" r="3"></circle>
            <circle id="Oval" cx="107" cy="145" r="3"></circle>
            <circle id="Oval" cx="100" cy="82" r="4"></circle>
            <circle id="Oval" cx="85" cy="101" r="7"></circle>
            <circle id="Oval" cx="128" cy="34" r="6"></circle>
            <circle id="Oval" cx="125.5" cy="68.5" r="16.5"></circle>
            <circle id="Oval" cx="97" cy="39" r="9"></circle>
            <circle id="Oval" cx="119" cy="119" r="15"></circle>
            <path d="M15.8,6.54 C12.4,10.29 10.67,17 10.67,26.33 L10.67,59.33 C10.67,70.36 5.33,74.92 0,76.71 L0,93.38 C3.17491235,94.3000603 5.92527917,96.3070847 7.77,99.05 C9.77,102.05 10.67,106.56 10.67,112.7 L10.67,145.7 C10.5782214,149.876632 11.0252385,154.047671 12,158.11 C12.6715167,160.887524 13.9946638,163.465261 15.86,165.63 C17.6354538,167.538461 19.9013202,168.922196 22.41,169.63 C25.9398872,170.616402 29.5957121,171.078013 33.26,171 L45,171 L45,154.54 L44.45,154.54 C42.159912,154.582385 39.8706612,154.418389 37.61,154.05 C35.6783171,153.758469 33.8834759,152.878508 32.47,151.53 C31.1460093,150.120324 30.2812041,148.341894 29.99,146.43 C29.6289665,144.336615 29.4649159,142.214 29.5,140.09 L29.5,111 C29.5241839,108.288907 29.3638133,105.579312 29.02,102.89 C28.7704861,100.944864 28.2241352,99.0494981 27.4,97.27 C26.6202178,95.6380697 25.587485,94.1395946 24.34,92.83 C22.7864875,91.2497885 21.0587818,89.8508501 19.19,88.66 L15.38,86.14 L19.11,83.5 C21.018252,82.16923 22.8356189,80.712664 24.55,79.14 C25.7737931,78.0042794 26.7713778,76.6470213 27.49,75.14 C28.2600873,73.4324668 28.7691083,71.6188687 29,69.76 C29.3586838,66.8710318 29.5190591,63.9608874 29.48,61.05 L29.48,31.91 C29.4505839,29.7285533 29.624671,27.5491168 30,25.4 C30.3071526,23.4337473 31.2317161,21.6161396 32.64,20.21 C34.1392122,18.8856907 36.0115361,18.0578161 38,17.84 C40.1986905,17.5616574 42.4139057,17.4346918 44.63,17.46 L45,17.46 L45,1 L33.78,1 C25.19,1 19.14,2.86 15.8,6.54 Z" id="Path"></path>
            <path d="M189.33,59.3 L189.33,26.3 C189.33,16.92 187.6,10.3 184.2,6.51 C180.8,2.72 174.81,0.97 166.2,0.97 L155,0.97 L155,17.46 L155.38,17.46 C157.596094,17.4346918 159.811309,17.5616574 162.01,17.84 C163.998464,18.0578161 165.870788,18.8856907 167.37,20.21 C168.774621,21.6175002 169.69561,23.4349647 170,25.4 C170.365279,27.5500582 170.529322,29.729488 170.49,31.91 L170.49,61.05 C170.450941,63.9608874 170.611316,66.8710318 170.97,69.76 C171.20823,71.6165137 171.723984,73.4267103 172.5,75.13 C173.218622,76.6370213 174.216207,77.9942794 175.44,79.13 C177.154381,80.702664 178.971748,82.15923 180.88,83.49 L184.61,86.13 L180.8,88.65 C178.931218,89.8408501 177.203512,91.2397885 175.65,92.82 C174.402515,94.1295946 173.369782,95.6280697 172.59,97.26 C171.765865,99.0394981 171.219514,100.934864 170.97,102.88 C170.626187,105.569312 170.465816,108.278907 170.49,110.99 L170.49,140.13 C170.525084,142.254 170.361033,144.376615 170,146.47 C169.507543,150.456678 166.366678,153.597543 162.38,154.09 C160.119339,154.458389 157.830088,154.622385 155.54,154.58 L155,154.58 L155,171 L166.74,171 C170.39328,171.081575 174.038764,170.626732 177.56,169.65 C180.06868,168.942196 182.334546,167.558461 184.11,165.65 C185.975336,163.485261 187.298483,160.907524 187.97,158.13 C188.957427,154.05925 189.414547,149.877943 189.33,145.69 L189.33,112.69 C189.33,106.55 190.28,102.08 192.23,99.04 C194.074721,96.2970847 196.825088,94.2900603 200,93.37 L200,76.71 C194.67,74.92 189.33,70.36 189.33,59.3 Z" id="Path"></path>
        </g>
    </g>
</svg>