<?xml version="1.0" encoding="UTF-8"?>
<svg width="200px" height="200px" viewBox="0 0 200 200" version="1.1" xmlns="http://www.w3.org/2000/svg" xmlns:xlink="http://www.w3.org/1999/xlink">
    <title>earth</title>
    <g id="earth" stroke="none" stroke-width="1" fill="none" fill-rule="evenodd">
        <g transform="translate(-1.000000, 0.000000)" fill="#000000">
            <path d="M101,12 C149.601058,12 189,51.398942 189,100 C189,148.601058 149.601058,188 101,188 C52.398942,188 13,148.601058 13,100 C13.0551086,51.4217871 52.4217871,12.0551086 101,12 L101,12 Z M101,0 C60.5537755,0 24.0901468,24.3642178 8.61204675,61.7316568 C-6.86605326,99.0990957 1.68952228,142.110879 30.2893219,170.710678 C58.8891215,199.310478 101.900904,207.866053 139.268343,192.387953 C176.635782,176.909853 201,140.446224 201,100 C201,73.478351 190.464316,48.0429597 171.710678,29.2893219 C152.95704,10.535684 127.521649,0 101,0 L101,0 Z" id="Shape" fill-rule="nonzero"></path>
            <path d="M8.07,125.71 L5.93,113.9 C26.45,110.18 41.11,95.51 46.15,73.65 C53,43.88 59,39.35 68.27,34.44 C74.27,31.27 81.63,27.32 93.63,3.32 L104.37,8.68 C90.65,36.11 81,41.27 73.91,45 C67.84,48.23 63.84,50.36 57.85,76.32 C51.76,102.71 33.15,121.16 8.07,125.71 Z" id="Path"></path>
            <path d="M38,163 L26,163 C26,141.83 47.77,122.49 84.24,111.27 C101.73,105.88 101.1,97 98,77.43 C96.76,69.58 95.36,60.67 96,51.57 C96.62,42.83 100.7,33.57 107.19,26.18 C115.27,16.97 126.65,11.06 140.1,9.06 L141.86,20.94 C129,22.84 109.39,32.8 108,52.43 C107.45,60.16 108.69,67.99 109.89,75.56 C112.74,93.56 115.97,114.06 87.78,122.73 C63.71,130.14 38,144.6 38,163 Z" id="Path"></path>
            <path d="M86.54,197.85 L79.46,188.15 C90.75,179.91 107.06,164.01 106.21,156.08 C106.13,155.35 105.93,153.42 101.56,151.48 C95.77,148.91 90.42,148.78 85.2,151.1 C71.67,157.1 62.2,178.24 59.7,185.87 L48.3,182.13 C48.73,180.8 59.21,149.51 80.3,140.13 C88.68,136.41 97.46,136.54 106.41,140.52 C115.36,144.5 117.65,150.46 118.12,154.81 C120,172.47 92.14,193.76 86.54,197.85 Z" id="Path"></path>
            <path d="M116.44,197.92 L109.56,188.08 C118.69,181.69 124.75,176.89 131.74,164.08 C146.42,137.26 140.38,119.33 134.54,101.99 C131.8,93.87 129.21,86.2 129,78.12 C127.91,36.57 158.34,23 159.64,22.49 L164.36,33.49 L162,28 L164.4,33.5 C163.4,33.94 140.12,44.63 141,77.84 C141.16,84.12 143.36,90.64 145.91,98.19 C151.91,116.13 159.47,138.46 142.26,169.88 C134.05,184.87 126.38,191 116.44,197.92 Z" id="Path"></path>
            <path d="M186,152.73 L176.1,151.27 C178.1,137.64 173.1,126.91 167.8,115.54 C163.45,106.33 159,96.79 159,86 C159,65.54 176.49,55.57 185.74,53.16 L188.26,62.84 L187,58 L188.28,62.83 C187.49,63 169,68.22 169,86 C169,94.58 172.8,102.71 176.82,111.31 C182.25,123 188.41,136.13 186,152.73 Z" id="Path"></path>
        </g>
    </g>
</svg>