<?xml version="1.0" encoding="UTF-8"?>
<svg width="200px" height="200px" viewBox="0 0 200 200" version="1.1" xmlns="http://www.w3.org/2000/svg" xmlns:xlink="http://www.w3.org/1999/xlink">
    <title>ideaa</title>
    <g id="ideaa" stroke="none" stroke-width="1" fill="none" fill-rule="evenodd">
        <g transform="translate(4.000000, -1.000000)" fill="#000000">
            <path d="M24,85.88 C23.1094723,85.5105058 22.189599,85.2161463 21.25,85 C19.42,84.57 17.59,84.12 15.74,83.74 C13.89,83.36 12.06,83 10.2,82.68 C8.34,82.36 6.5,82.09 4.63,81.9 C2.82402891,81.6514719 1.15852826,82.9140289 0.910000129,84.72 C0.661471998,86.5259711 1.92402893,88.1914718 3.73,88.44 C5.57,88.76 7.44,89 9.31,89.2 C11.18,89.4 13.04,89.56 14.92,89.67 C16.8,89.78 18.69,89.87 20.57,89.96 C21.5210853,90.0112976 22.4748491,89.9778322 23.42,89.86 C24.4253066,89.7675985 25.4139224,89.5423017 26.36,89.19 C26.5500137,89.1163384 26.7160811,88.9917879 26.84,88.83 C27.1899628,88.3507049 27.0921733,87.6795137 26.62,87.32 C25.8122559,86.7292804 24.9316485,86.2452825 24,85.88 Z" id="Path"></path>
            <path d="M42,52.35 C42.3399895,52.0395715 42.3667484,51.5133134 42.06,51.17 C40.4489628,49.4198571 38.7036522,47.7982563 36.84,46.32 C35.0066667,44.8533333 33.16,43.4133333 31.3,42 C29.44,40.56 27.55,39.19 25.66,37.8 C23.77,36.41 21.87,35.08 19.94,33.8 L19.68,33.64 C18.4830615,32.9305919 16.9964876,32.9221939 15.7916105,33.6180336 C14.5867334,34.3138733 13.8510467,35.6056696 13.8670319,36.9969488 C13.8835444,38.3882279 14.6492002,39.6624899 15.87,40.33 C17.87,41.49 19.93,42.63 22.01,43.7 C24.09,44.77 26.15,45.88 28.25,46.92 C30.35,47.96 32.44,49 34.57,50 C36.7151526,51.0206201 38.9349016,51.876427 41.21,52.56 C41.4918407,52.623973 41.7871276,52.5454791 42,52.35 L42,52.35 Z" id="Path"></path>
            <path d="M63.73,17.42 C64.8,19.19 65.92,20.93 67.05,22.67 C68.2530001,24.453551 69.7042865,26.0563639 71.36,27.43 C71.5689985,27.5906152 71.8264664,27.6752622 72.09,27.6702313 C72.387078,27.6621492 72.6688565,27.5365515 72.8732936,27.3208609 C73.0777308,27.1051704 73.1880639,26.8170723 73.18,26.52 C73.0951584,24.3705264 72.6976515,22.2448752 72,20.21 C71.3,18.26 70.58,16.31 69.81,14.39 C68.3189158,10.5422489 66.6163196,6.7798451 64.71,3.12 C63.7068946,1.3225751 61.4674074,0.632121688 59.6263302,1.55266031 C57.7852529,2.47319893 56.9939233,4.67906073 57.83,6.56 C59.595282,10.2858342 61.5649468,13.9113527 63.73,17.42 L63.73,17.42 Z" id="Path"></path>
            <path d="M117.12,27.43 C118.512615,25.8351198 119.817859,24.1660104 121.03,22.43 C122.24,20.73 123.38,18.99 124.49,17.24 C125.6,15.49 126.67,13.73 127.72,11.95 C128.77,10.17 129.72,8.36 130.72,6.52 C131.66993,4.61737905 130.897621,2.30492989 128.995,1.35500015 C127.092379,0.405070404 124.77993,1.17737913 123.83,3.08 C122.91,4.93 122.09,6.82 121.28,8.72 C120.47,10.62 119.73,12.55 119.01,14.49 C118.29,16.43 117.57,18.38 116.95,20.37 C116.306542,22.3762266 115.772423,24.4158918 115.35,26.48 C115.261371,26.8489457 115.389188,27.2362701 115.68,27.48 C115.875193,27.6691666 116.138982,27.7707242 116.410635,27.7612918 C116.682288,27.7518594 116.938397,27.6322498 117.12,27.43 L117.12,27.43 Z" id="Path"></path>
            <path d="M169.81,39.08 C170.867506,38.1993403 171.374856,36.8214044 171.140935,35.4652473 C170.907015,34.1090902 169.967362,32.9807446 168.675935,32.5052472 C167.384509,32.0297499 165.937506,32.2793402 164.88,33.16 C163.24,34.53 161.61,35.94 160.01,37.37 C158.41,38.8 156.83,40.27 155.26,41.75 C153.69,43.23 152.13,44.75 150.6,46.23 C149.031535,47.772684 147.596415,49.4453171 146.31,51.23 C146.152786,51.4586427 146.115549,51.7490925 146.21,52.01 C146.373805,52.4429326 146.85391,52.6652037 147.29,52.51 C149.342755,51.7351559 151.32646,50.7884636 153.22,49.68 C155.08,48.59 156.93,47.47 158.76,46.34 C160.59,45.21 162.42,44.06 164.22,42.89 C166.02,41.72 167.8,40.52 169.56,39.29 L169.81,39.08 Z" id="Path"></path>
            <path d="M190.82,81.85 C190.53788,81.0209558 189.937799,80.338046 189.151913,79.9516675 C188.366026,79.565289 187.458789,79.5071304 186.63,79.79 C184.75,80.44 182.9,81.17 181.06,81.94 C179.22,82.71 177.4,83.5 175.59,84.34 C173.78,85.18 171.98,86.05 170.18,86.92 C169.268112,87.3532616 168.392031,87.8581787 167.56,88.43 C166.679006,88.997113 165.869802,89.6686514 165.15,90.43 C164.987078,90.5975931 164.888008,90.8169616 164.87,91.05 C164.836542,91.3431424 164.924471,91.637211 165.113354,91.8638714 C165.302238,92.0905317 165.57563,92.230048 165.87,92.25 C166.922745,92.3497166 167.983649,92.3228583 169.03,92.17 C170.044101,92.0386661 171.046916,91.8314175 172.03,91.55 C173.95,91 175.88,90.47 177.78,89.88 C179.68,89.29 181.58,88.68 183.46,88.03 C185.34,87.38 187.14,86.73 189,86 C190.610692,85.3176763 191.409129,83.4970646 190.82,81.85 Z" id="Path"></path>
            <path d="M129.86,46.61 C127.169938,44.8662574 124.34419,43.3413562 121.41,42.05 C118.487423,40.8015386 115.479854,39.7622565 112.41,38.94 C109.356702,38.1637651 106.257107,37.582591 103.13,37.2 C101.58,37.06 100.02,36.86 98.47,36.82 L96.14,36.72 L93.72,36.72 C87.3041541,36.8969611 80.9548951,38.0710005 74.9,40.2 C68.8075476,42.3491321 63.1011062,45.465727 58,49.43 C52.8606443,53.4473202 48.516256,58.3885956 45.19,64 C43.5543171,66.8114332 42.188233,69.7712822 41.11,72.84 C40.0838385,75.8897692 39.3177684,79.0209551 38.82,82.2 C37.8648115,88.468799 37.9255899,94.8505305 39,101.1 C40.138323,107.306666 42.4058704,113.251775 45.69,118.64 C48.8870878,123.878026 52.9438698,128.539944 57.69,132.43 C62.3508841,136.282987 67.6557134,139.282399 73.36,141.29 C78.7147904,143.070401 84.3950267,143.654127 90,143 C92.4568042,142.778553 94.8834936,142.299248 97.24,141.57 C101.767123,140.002225 105.974441,137.63095 109.66,134.57 C113.379628,131.523798 116.598709,127.913299 119.2,123.87 C121.905703,119.717985 123.764614,115.072406 124.67,110.2 C125.12619,107.659621 125.227156,105.068172 124.97,102.5 C124.709207,99.8736659 124.034181,97.3051941 122.97,94.89 C121.894427,92.4904778 120.465211,90.2657549 118.73,88.29 C116.859512,86.1049505 114.484163,84.4092535 111.81,83.35 C109.024743,82.3074756 105.991113,82.1228804 103.1,82.82 C100.859848,83.3762685 98.734414,84.3205299 96.82,85.61 C95.2811925,83.8429156 93.4720929,82.3308323 91.46,81.13 C90.2672002,80.440832 88.9851496,79.9192629 87.65,79.58 C86.3443412,79.2289387 85.0015977,79.0342409 83.65,79 C80.9225928,78.9020096 78.2148757,79.4972257 75.78,80.73 C73.3067026,81.9738104 71.2443716,83.9042078 69.84,86.29 C68.4612952,88.6426086 67.7685023,91.3341089 67.84,94.06 C67.918689,96.6357762 68.5352209,99.1666226 69.65,101.49 C70.7470962,103.728651 72.2258789,105.759016 74.02,107.49 C75.7159358,109.105354 77.5458279,110.573951 79.49,111.88 C81.37,113.17 83.28,114.35 85.04,115.65 C86.826916,116.868029 88.361702,118.419793 89.56,120.22 C90.1179949,121.141979 90.5010749,122.159005 90.69,123.22 C90.8402113,124.324918 90.8402113,125.445082 90.69,126.55 C91.0384145,125.457052 91.2171587,124.317136 91.22,123.17 C91.1951101,121.988639 90.9509679,120.822182 90.5,119.73 C89.5094142,117.585854 88.0783575,115.674371 86.3,114.12 C82.96,110.93 79.3,108.31 76.59,105.12 C75.2643305,103.574678 74.2216846,101.807596 73.51,99.9 C72.8390212,98.0772195 72.5299198,96.14109 72.6,94.2 C72.7043795,92.3422213 73.3052662,90.5464678 74.34,89 C75.3283346,87.5470101 76.6891741,86.3864971 78.28,85.64 C79.910474,84.9020596 81.6921211,84.5594352 83.48,84.64 C85.2708848,84.7158045 87.0198954,85.2052536 88.59,86.07 C90.0159796,86.9490946 91.3204468,88.0114958 92.47,89.23 C91.7555751,89.9889627 91.08769,90.7904249 90.47,91.63 C88.8837899,93.7111164 87.6878037,96.062432 86.94,98.57 C86.5184486,100.00996 86.3959369,101.520937 86.58,103.01 C86.7033059,103.884876 86.9881428,104.729214 87.42,105.5 C87.8833792,106.287339 88.5068114,106.968686 89.25,107.5 C90.5542683,108.466635 92.1099058,109.036109 93.73,109.14 C95.4106571,109.210455 97.0682434,108.729333 98.45,107.77 C99.6960583,106.89255 100.722718,105.739269 101.45,104.4 C102.148322,103.13238 102.602837,101.74509 102.79,100.31 C102.977875,98.8898844 102.913555,97.4477513 102.6,96.05 C102.30433,94.7725746 101.885712,93.5267661 101.35,92.33 C101.13,91.85 100.89,91.33 100.64,90.91 C101.855277,90.2921013 103.161923,89.8734346 104.51,89.67 C106.050549,89.4373635 107.625494,89.648975 109.05,90.28 C110.534371,90.9727811 111.838363,91.9995465 112.86,93.28 C114.060782,94.7127023 115.069311,96.2960921 115.86,97.99 C117.449319,101.45664 118.071286,105.288645 117.66,109.08 C117.158214,113.125343 115.899647,117.040131 113.95,120.62 C106.6,134.81 90.08,142.7 75.61,135.68 C70.9311741,133.354555 66.7102452,130.204103 63.15,126.38 C59.6382996,122.643122 56.7301059,118.382044 54.53,113.75 C52.4422902,109.249741 51.188643,104.407953 50.83,99.46 C50.5936232,94.5893971 51.1131152,89.7115695 52.37,85 C53.6170621,80.3919613 55.57382,76.0061245 58.17,72 C60.7132531,68.02536 63.8805405,64.4866423 67.55,61.52 C71.3050718,58.5395276 75.5111564,56.1765587 80.01,54.52 C84.5470591,52.8834482 89.3101342,51.9591688 94.13,51.78 L95.93,51.78 L97.8,51.83 C99.05,51.83 100.28,51.98 101.53,52.05 C103.97884,52.3062079 106.409944,52.7102788 108.81,53.26 C128.482909,57.5700282 142.358372,75.1950507 141.93,95.33 C141.806144,105.359048 138.516174,115.092462 132.53,123.14 C129.513291,127.207689 125.972693,130.859246 122,134 C119.980599,135.61434 117.874096,137.1166 115.69,138.5 C113.499436,139.883476 111.232493,141.142147 108.9,142.27 C103.933824,144.47836 98.8416366,146.391687 93.65,148 C88.32,149.8 82.83,151.5 77.36,154.31 C74.3331119,155.740168 71.6361808,157.783298 69.44,160.31 C68.1737271,161.830428 67.2952653,163.635393 66.88,165.57 C66.6348331,166.68696 66.5975441,167.839529 66.77,168.97 C66.9682754,170.167585 67.4255874,171.307452 68.11,172.31 C68.8604224,173.362197 69.7915071,174.272968 70.86,175 C69.6504679,177.828815 69.7864988,181.053114 71.23,183.77 C72.0135511,185.237144 73.0036483,186.584215 74.17,187.77 C74.7222111,188.352513 75.3100053,188.90023 75.93,189.41 C76.37,189.76 76.84,190.07 77.31,190.41 C76.8533745,191.035389 76.4613678,191.705486 76.14,192.41 C75.4368965,193.918981 75.2676372,195.622153 75.66,197.24 C75.8838418,197.990191 76.2210718,198.701746 76.66,199.35 C77.0725236,199.958401 77.5596508,200.512718 78.11,201 C77.4998735,199.789446 77.204129,198.44484 77.25,197.09 C77.3453806,195.895386 77.8221541,194.763049 78.61,193.86 C79.130891,193.223717 79.7365259,192.661822 80.41,192.19 C82.2909444,193.137372 84.2604006,193.89769 86.29,194.46 C89.1784312,195.25198 92.1407049,195.744576 95.13,195.93 C98.1582193,196.152707 101.202075,196.021824 104.2,195.54 C104.97,195.4 105.75,195.23 106.57,195 C107.487158,194.743311 108.370152,194.377355 109.2,193.91 C109.884901,193.525106 110.481151,193.000407 110.95,192.37 C111.381621,191.782737 111.65379,191.0937 111.74,190.37 C111.782261,189.917573 111.74846,189.461263 111.64,189.02 C111.622024,188.917882 111.595258,188.817509 111.56,188.72 L111.5,188.53 C111.170866,187.500281 110.670524,186.533405 110.02,185.67 C108.762481,184.119343 107.111679,182.934771 105.24,182.24 C103.63681,181.633292 101.95108,181.272546 100.24,181.17 C97.1164276,180.95902 93.9795888,181.27338 90.96,182.1 C88.0010479,182.870004 85.1733365,184.076584 82.57,185.68 C81.92,186.09 81.28,186.54 80.66,187.02 L80.46,186.9 C79.4732304,186.195389 78.5557605,185.398462 77.72,184.52 C76.9529269,183.670819 76.3251538,182.705534 75.86,181.66 C75.219719,180.336715 75.219719,178.793285 75.86,177.47 C76.34,177.63 76.86,177.78 77.31,177.92 C80.2542368,178.725851 83.2673347,179.254817 86.31,179.5 C92.2470538,180.012035 98.2263094,179.705837 104.08,178.59 C107.239813,178.045884 110.308996,177.066572 113.2,175.68 C114.116021,175.217913 114.975136,174.650762 115.76,173.99 C116.00243,173.783374 116.232808,173.563012 116.45,173.33 C116.707961,173.0616 116.945302,172.774117 117.16,172.47 C117.418168,172.118641 117.642502,171.743635 117.83,171.35 C118.227016,170.491584 118.42853,169.555741 118.42,168.61 C118.446288,168.277185 118.446288,167.942815 118.42,167.61 C118.341167,166.865163 118.148947,166.136752 117.85,165.45 C117.292172,164.157928 116.410422,163.031631 115.29,162.18 C114.413861,161.51567 113.443071,160.986454 112.41,160.61 C111.545652,160.289182 110.655848,160.041643 109.75,159.87 C108.130907,159.567506 106.487105,159.416852 104.84,159.42 C101.786336,159.421601 98.7407227,159.733199 95.75,160.35 C89.8272665,161.460709 84.1426628,163.592435 78.95,166.65 C77.5876431,167.489233 76.2966239,168.439102 75.09,169.49 C74.6488324,169.233629 74.2616626,168.894007 73.95,168.49 C73.72,168.06 73.68,167.92 73.83,167.17 C74.0302838,166.326715 74.4317138,165.544441 75,164.89 C76.630441,163.298825 78.570604,162.059844 80.7,161.25 C85.7496495,159.343836 90.9253957,157.79011 96.19,156.6 C101.847843,155.282978 107.423991,153.636845 112.89,151.67 C115.701242,150.555796 118.439937,149.266606 121.09,147.81 C123.753176,146.366501 126.318695,144.74969 128.77,142.97 C133.752139,139.368353 138.20538,135.086778 142,130.25 C145.84516,125.333337 148.914117,119.85643 151.1,114.01 C153.285397,108.114922 154.527323,101.912043 154.78,95.63 C155.351162,82.7792138 151.504447,70.1203447 143.88,59.76 C140.034776,54.5698538 135.285515,50.1153041 129.86,46.61 Z M97.65,99.76 C97.5764814,101.326841 96.828999,102.785343 95.6,103.76 C94.5650508,104.502151 93.1500132,104.410048 92.22,103.54 C91.8760143,103.24268 91.6728058,102.81449 91.66,102.36 C91.6184376,101.594649 91.734151,100.828898 92,100.11 C92.6756573,98.3317763 93.6950731,96.7041091 95,95.32 C95.3594924,94.9105307 95.7400047,94.5200049 96.14,94.15 C96.24,94.33 96.35,94.51 96.44,94.69 C96.8592791,95.5315307 97.1942448,96.4124907 97.44,97.32 C97.6584173,98.1136847 97.729592,98.940667 97.65,99.76 L97.65,99.76 Z M99.64,187.58 C100.729944,187.704604 101.800959,187.959767 102.83,188.34 C103.350721,188.536829 103.83937,188.809799 104.28,189.15 C103.86,189.3 103.41,189.43 102.95,189.55 C97.8705867,190.751878 92.5887868,190.820162 87.48,189.75 C86.99,189.64 86.48,189.51 86.04,189.37 C90.3943513,187.81254 95.0309451,187.202282 99.64,187.58 L99.64,187.58 Z M96.92,167.44 C99.4570445,167.087016 102.021337,166.969848 104.58,167.09 C105.739362,167.146503 106.890972,167.31054 108.02,167.58 C108.479396,167.689028 108.927914,167.839649 109.36,168.03 L109.36,168.03 C108.325786,168.511946 107.251773,168.903408 106.15,169.2 C104.97,169.54 103.72,169.84 102.45,170.09 C97.267967,171.074934 92.0048044,171.570448 86.73,171.57 C85.51,171.57 84.29,171.57 83.1,171.42 C87.4760434,169.394443 92.1369162,168.052166 96.92,167.44 L96.92,167.44 Z" id="Shape" fill-rule="nonzero"></path>
        </g>
    </g>
</svg>