<?xml version="1.0" encoding="UTF-8"?>
<svg width="200px" height="200px" viewBox="0 0 200 200" version="1.1" xmlns="http://www.w3.org/2000/svg" xmlns:xlink="http://www.w3.org/1999/xlink">
    <title>kanba</title>
    <g id="kanba" stroke="none" stroke-width="1" fill="none" fill-rule="evenodd">
        <g transform="translate(0.000000, 6.000000)" fill="#000000" id="Path">
            <path d="M66.34,72.69 C58.276556,55.9361293 63.1406523,35.8205747 77.9680753,24.6018923 C92.7954984,13.3832098 113.47577,14.1714579 127.406192,26.4862726 C141.336613,38.8010874 144.655375,59.2285394 135.34,75.32 L103.82,130 L113.27,146.37 L149.55,83.53 C164.452734,57.0587874 155.272606,23.5242564 128.965095,8.33440939 C102.657585,-6.8554376 69.0251625,1.95930547 53.55,28.1 C45.5604907,41.7525915 43.8614954,58.1920117 48.89,73.19 C51.4177269,72.873607 53.9625509,72.7133031 56.51,72.71 L66.34,72.69 Z"></path>
            <path d="M193.49,104.49 C185.562162,90.5716522 171.940649,80.8195548 156.21,77.8 C155.223607,80.1581055 154.091418,82.45254 152.82,84.67 L147.88,93.22 C166.498958,94.3638234 181.710585,108.513473 184.19653,127.001144 C186.682476,145.488816 175.748843,163.154089 158.093366,169.175555 C140.43789,175.197022 120.988701,167.893924 111.66,151.74 L80.19,97.24 L61.3,97.24 L97.48,159.92 C98.7240527,162.059207 100.10353,164.116732 101.61,166.08 L101.91,166.47 C112.353875,179.913406 128.456813,187.733883 145.48,187.631022 L145.48,187.631022 C165.281008,187.627616 183.576975,177.062867 193.477339,159.91461 C203.377704,142.766353 203.378718,121.639207 193.48,104.49 L193.49,104.49 Z"></path>
            <path d="M89.15,153.66 C81.7099964,164.986424 68.929757,171.645838 55.3839685,171.254506 C41.8381801,170.863174 29.4637101,163.477051 22.69,151.74 C15.7147681,139.654424 15.7146546,124.76619 22.6897022,112.680507 C29.6647498,100.594825 42.5559693,93.146606 56.51,93.14 L119.58,93.14 L129,76.78 L56.51,76.78 C36.5311366,76.5116339 17.953988,87.0164927 7.88628259,104.275354 C-2.18142283,121.534216 -2.18142283,142.875784 7.88628259,160.134646 C17.953988,177.393507 36.5311366,187.898366 56.51,187.63 C72.5807508,187.724337 87.8819786,180.755606 98.36,168.57 C96.74239,166.480593 95.2657866,164.285732 93.94,162 L89.15,153.66 Z"></path>
        </g>
    </g>
</svg>