<?xml version="1.0" encoding="UTF-8"?>
<svg width="200px" height="200px" viewBox="0 0 200 200" version="1.1" xmlns="http://www.w3.org/2000/svg" xmlns:xlink="http://www.w3.org/1999/xlink">
    <title>leaf</title>
    <g id="leaf" stroke="none" stroke-width="1" fill="none" fill-rule="evenodd">
        <g fill="#000000" id="Path">
            <path d="M128.81,0 L174,0 L174,45.19 C174,66.6241711 156.624171,84 135.19,84 L90,84 L90,38.81 C90,17.3758289 107.375829,0 128.81,0 Z"></path>
            <path d="M20,20 L54.43,20 C62.2724516,20 69.7936968,23.1154018 75.3391475,28.6608525 C80.8845982,34.2063032 84,41.7275484 84,49.57 L84,84 L49.57,84 C33.2389399,84 20,70.7610601 20,54.43 L20,20 Z" transform="translate(52.000000, 52.000000) rotate(-180.000000) translate(-52.000000, -52.000000) "></path>
            <path d="M38.81,90 L84,90 L84,135.19 C84,156.624171 66.6241711,174 45.19,174 L0,174 L0,128.81 C0,107.375829 17.3758289,90 38.81,90 Z"></path>
            <path d="M90,90 L149.18,90 C177.247111,90 200,112.752889 200,140.82 L200,200 L140.82,200 C112.752889,200 90,177.247111 90,149.18 L90,90 Z" transform="translate(145.000000, 145.000000) rotate(-180.000000) translate(-145.000000, -145.000000) "></path>
        </g>
    </g>
</svg>