<?xml version="1.0" encoding="UTF-8"?>
<svg width="200px" height="200px" viewBox="0 0 200 200" version="1.1" xmlns="http://www.w3.org/2000/svg" xmlns:xlink="http://www.w3.org/1999/xlink">
    <title>lighting</title>
    <g id="lighting" stroke="none" stroke-width="1" fill="none" fill-rule="evenodd">
        <g transform="translate(9.000000, 0.000000)" fill="#000000" id="Path">
            <path d="M22.58,100 C22.622698,64.0195158 50.5028925,34.2084147 86.4,31.76 L103.14,10.82 C57.0165811,4.51792991 13.6988935,34.4291688 3.25172481,79.7937202 C-7.19544392,125.158272 18.6760462,171.00334 62.91,185.51 L69.29,164.87 C41.4151008,155.507375 22.6201028,129.405223 22.58,100 Z"></path>
            <path d="M118.59,14.32 L112.27,35 C143.541959,45.2168374 163.110631,76.2487425 158.852726,108.870658 C154.594821,141.492574 127.716681,166.46211 94.87,168.31 L78.28,189.11 C124.606187,195.80357 168.329758,165.869967 178.848335,120.259891 C189.366913,74.6498158 163.16871,28.5908812 118.59,14.32 L118.59,14.32 Z"></path>
            <polygon points="117.24 83.21 93.4 80.28 117.94 0 47.79 87.72 64.76 115.75 88.6 118.68 63.46 200 134.21 111.25"></polygon>
        </g>
    </g>
</svg>