<?xml version="1.0" encoding="UTF-8"?>
<svg width="200px" height="200px" viewBox="0 0 200 200" version="1.1" xmlns="http://www.w3.org/2000/svg" xmlns:xlink="http://www.w3.org/1999/xlink">
    <title>tower</title>
    <g id="tower" stroke="none" stroke-width="1" fill="none" fill-rule="evenodd">
        <g transform="translate(21.000000, 0.000000)" fill="#000000" id="Path">
            <path d="M43.66,175.57 L43.66,67.57 L53.94,55.57 L53.94,171.35 C66.6668073,164.009326 74.505849,150.432075 74.5000033,135.74 L74.5000033,0 L23.1,60 L23.1,176.9 L33.38,176.9 C36.8491347,176.893364 40.3034008,176.44646 43.66,175.57 Z"></path>
            <path d="M136.19,187.15 L136.19,98.53 L84.78,38.53 L84.78,135.72 C84.7524467,164.097635 61.7576289,187.096926 33.38,187.13 L0,187.13 L0,200 L105.35,200 L105.35,94.14 L115.63,106.14 L115.63,200 L158,200 L158,187.15 L136.19,187.15 Z"></path>
        </g>
    </g>
</svg>