<?xml version="1.0" standalone="no"?>
<!DOCTYPE svg PUBLIC "-//W3C//DTD SVG 20010904//EN"
 "http://www.w3.org/TR/2001/REC-SVG-20010904/DTD/svg10.dtd">
<svg version="1.0" xmlns="http://www.w3.org/2000/svg"
 width="260.000000pt" height="260.000000pt" viewBox="0 0 260.000000 260.000000"
 preserveAspectRatio="xMidYMid meet">
<metadata>
Created by potrace 1.11, written by Peter Selinger 2001-2013
</metadata>
<g transform="translate(0.000000,260.000000) scale(0.100000,-0.100000)"
fill="#000000" stroke="none">
<path d="M2138 2385 c-3 -3 -50 -8 -104 -11 -55 -2 -112 -7 -129 -10 -16 -3
-40 -6 -52 -7 -13 0 -23 -4 -23 -7 0 -6 -94 -34 -115 -35 -5 0 -18 -8 -28 -18
-10 -10 -22 -15 -27 -12 -6 4 -10 3 -10 -2 0 -4 -15 -14 -32 -22 -18 -8 -45
-23 -60 -33 -16 -11 -28 -16 -28 -11 0 4 -7 -1 -15 -11 -8 -11 -15 -16 -15
-12 0 4 -15 -4 -33 -18 -19 -15 -39 -26 -46 -26 -6 0 -14 -7 -17 -15 -3 -8
-15 -17 -25 -20 -11 -4 -30 -17 -43 -30 -13 -13 -27 -21 -30 -18 -3 4 -6 2 -6
-3 0 -6 -20 -25 -45 -44 -24 -18 -42 -37 -39 -42 3 -5 1 -7 -5 -6 -8 3 -59
-48 -154 -152 -12 -13 -21 -28 -20 -32 2 -5 -6 -8 -17 -8 -11 0 -20 -5 -20
-12 0 -6 -3 -9 -6 -5 -3 3 -16 -4 -28 -17 -36 -38 -118 -90 -178 -112 -32 -12
-55 -17 -51 -11 4 6 1 7 -8 2 -7 -5 -42 -10 -78 -11 -39 -1 -58 1 -50 7 19 12
2 11 -21 -1 -13 -7 -21 -7 -25 0 -14 23 -95 -3 -95 -31 0 -3 -25 -33 -57 -65
-31 -32 -74 -84 -96 -114 -22 -30 -45 -58 -51 -62 -6 -4 -11 -11 -12 -15 -2
-19 -17 -42 -24 -38 -4 3 -11 -6 -14 -19 -3 -14 -12 -31 -19 -38 -6 -7 -26
-41 -43 -75 -17 -34 -34 -60 -37 -56 -3 3 -5 -4 -4 -16 1 -20 5 -21 62 -15
125 11 160 12 173 2 6 -6 12 -7 12 -2 0 5 22 9 50 9 27 0 50 -2 50 -5 0 -13
67 -3 82 13 10 9 16 17 13 17 -6 0 21 45 40 67 5 7 15 19 22 27 6 7 9 17 6 20
-6 6 10 8 57 8 60 0 110 -7 110 -14 0 -4 -5 -8 -11 -8 -5 0 -8 -4 -5 -8 2 -4
1 -14 -5 -22 -6 -10 -9 -11 -9 -2 0 23 -35 12 -75 -24 -41 -39 -50 -60 -34
-80 11 -13 -20 -39 -83 -69 -21 -9 -38 -23 -38 -30 0 -9 -8 -11 -22 -8 -13 3
-20 2 -16 -2 5 -5 -6 -16 -22 -26 -17 -11 -30 -27 -30 -36 0 -10 -16 -33 -35
-52 -19 -18 -32 -37 -30 -42 3 -4 1 -10 -5 -14 -6 -4 -8 -10 -6 -14 3 -4 -5
-14 -18 -21 -20 -10 -39 -41 -33 -54 1 -1 -5 -11 -13 -21 -8 -11 -10 -16 -4
-12 8 4 11 -2 10 -17 0 -13 -4 -22 -9 -19 -4 2 -7 -1 -7 -6 0 -6 -9 -11 -20
-11 -22 0 -23 -2 -25 -75 -2 -48 -5 -61 -18 -95 -3 -8 -8 -33 -10 -55 -6 -54
-10 -69 -22 -77 -6 -5 -6 -8 2 -8 6 0 15 5 18 10 4 6 11 7 17 4 6 -4 8 -2 5 3
-7 12 50 36 63 28 5 -3 11 -1 15 5 4 7 13 6 27 -1 16 -9 19 -8 12 3 -6 10 -5
11 7 2 18 -15 50 -9 65 10 6 9 16 16 22 16 5 0 12 7 16 15 3 8 9 14 13 13 16
-3 63 15 63 24 0 6 14 8 30 6 16 -3 30 -1 30 4 0 4 3 8 8 7 15 -2 52 14 52 23
0 5 4 7 9 4 5 -3 14 1 21 9 7 8 16 13 20 10 4 -3 10 9 14 26 4 19 13 33 26 36
11 3 20 10 20 15 0 5 4 7 8 4 5 -3 15 6 22 19 7 14 17 25 22 25 4 0 8 5 8 11
0 11 79 111 93 117 4 2 5 8 1 13 -3 5 -2 9 3 8 14 -4 66 21 60 28 -4 3 8 17
25 30 18 12 28 23 23 23 -4 0 4 11 19 25 15 14 31 25 35 25 12 0 19 -64 10
-87 -7 -19 -99 -90 -99 -76 0 4 -5 0 -11 -10 -6 -9 -14 -15 -20 -12 -5 4 -10
-1 -10 -9 -1 -9 -2 -22 -3 -28 -1 -7 2 -19 7 -25 6 -9 6 -13 -2 -13 -6 0 -11
-5 -11 -11 0 -5 3 -8 8 -6 4 3 7 -12 8 -34 1 -22 -3 -36 -8 -32 -6 3 -5 -4 1
-16 7 -12 9 -26 6 -31 -3 -5 -1 -11 5 -15 7 -4 7 -12 0 -26 -6 -10 -8 -19 -4
-19 3 0 0 -8 -7 -17 -10 -11 -10 -14 -1 -9 6 4 12 3 12 -3 0 -5 -5 -13 -10
-16 -8 -5 -7 -12 2 -23 7 -9 8 -13 2 -9 -8 4 -11 -5 -10 -27 1 -30 4 -33 26
-29 13 2 27 7 30 11 3 4 22 16 43 27 20 11 37 23 37 27 0 5 9 8 19 8 10 0 21
7 25 15 3 8 12 15 21 15 8 0 15 5 15 12 0 6 3 9 6 6 3 -4 14 1 24 10 35 33 70
60 70 56 0 -3 13 9 30 26 16 16 32 30 35 30 3 0 25 20 49 45 25 25 49 45 54
45 17 0 35 30 37 60 1 17 -1 30 -4 30 -12 0 -9 135 3 142 8 6 8 8 0 8 -13 0
15 90 35 114 8 9 10 16 5 16 -5 0 -1 5 9 11 9 5 17 17 17 24 0 8 4 15 9 15 5
0 13 9 16 20 4 11 10 18 14 16 3 -3 22 9 40 25 19 16 41 29 49 29 8 0 13 3 9
6 -7 7 9 23 40 41 17 10 23 10 26 0 3 -7 6 -5 6 5 1 9 44 60 97 112 53 53 94
96 90 96 -3 0 3 10 14 23 38 41 46 52 80 102 19 28 40 56 47 63 7 7 13 20 13
28 0 8 7 17 15 20 8 4 15 15 15 25 0 10 4 19 9 19 5 0 14 13 19 29 6 16 18 38
29 50 10 12 19 29 19 39 1 9 7 31 14 47 7 17 15 39 17 49 2 11 8 25 13 31 5 7
7 15 4 18 -3 3 -2 12 2 19 5 7 9 21 10 31 1 9 3 18 4 20 1 1 3 14 4 29 0 14 4
29 8 33 4 4 4 14 1 23 -5 11 -3 13 8 7 11 -7 12 -6 2 7 -7 8 -11 17 -9 19 8 9
16 60 9 56 -5 -3 -8 15 -8 40 1 33 -5 51 -22 69 -13 14 -23 28 -23 32 0 4 -14
9 -32 10 -18 2 -35 7 -38 12 -4 6 -9 8 -12 5z"/>
<path d="M261 791 c-8 -15 -6 -20 14 -29 24 -11 35 -1 35 34 0 21 -38 17 -49
-5z"/>
<path d="M253 703 c-18 -7 -16 -23 2 -23 8 0 15 7 15 15 0 8 -1 15 -2 14 -2 0
-9 -3 -15 -6z"/>
<path d="M552 413 c-15 -28 -2 -45 23 -27 18 13 18 16 3 30 -15 15 -17 15 -26
-3z"/>
</g>
</svg>
