<?xml version="1.0" encoding="UTF-8"?>
<svg width="600px" height="400px" viewBox="0 0 600 400" version="1.1" xmlns="http://www.w3.org/2000/svg" xmlns:xlink="http://www.w3.org/1999/xlink">
    <title>floral-03</title>
    <defs>
        <polygon id="path-1" points="0 0 228 0 228 403 0 403"></polygon>
        <polygon id="path-3" points="0 0 60 0 60 72 0 72"></polygon>
        <polygon id="path-5" points="0 0 827 0 827 607 0 607"></polygon>
        <polygon id="path-7" points="0 0 352 0 352 430 0 430"></polygon>
        <polygon id="path-9" points="-5.68434189e-14 0 46 0 46 47 -5.68434189e-14 47"></polygon>
    </defs>
    <g id="floral-03" stroke="none" stroke-width="1" fill="none" fill-rule="evenodd">
        <rect fill="#F1FFEE" x="0" y="0" width="600" height="400"></rect>
        <g id="Group-3" transform="translate(486.000000, 124.000000)">
            <mask id="mask-2" fill="white">
                <use xlink:href="#path-1"></use>
            </mask>
            <g id="Clip-2"></g>
            <path d="M227.260552,196.260667 C206.786607,216.415212 182.228868,229.36507 158.031726,244.400411 C165.816078,231.614515 172.655279,219.030545 180.800228,207.356045 C190.043135,194.107338 189.592794,179.922506 187.820536,164.103696 C181.865038,167.948349 170.114127,185.519868 166.17344,190.223107 C161.890753,196.770326 156.039552,202.559921 151.050226,208.458556 C146.659198,213.648838 101.478747,257.46577 92.818777,281.082119 C95.036525,268.77842 98.7807434,257.099882 99.2044036,244.523989 C99.4186592,238.179503 105.462285,230.774507 111.63689,227.996018 C110.470208,225.80715 106.337904,225.526878 104.339262,224.014864 C103.545304,226.740852 102.380238,228.079211 100.312873,230.400542 C97.1984857,219.801899 98.7370838,210.837234 104.871263,203.227082 C105.007093,202.955694 105.170413,202.68673 105.398413,202.429881 C105.651477,202.145571 105.953052,201.901645 106.221478,201.630258 C106.38318,201.454179 106.509308,201.267601 106.67667,201.09233 C106.674245,201.128676 106.672628,201.158561 106.670202,201.194908 C109.424802,198.560997 112.806807,196.449669 115.615577,193.840797 C120.013882,189.755449 124.683037,185.97945 129.188874,182.008795 C134.895351,176.980053 140.564636,171.70254 144.504514,165.136744 C147.263965,160.538507 151.867631,150.96322 151.750397,150.964028 C153.911549,145.591205 155.865722,141.02366 157.596746,136.37373 C162.788201,122.431208 164.787651,107.706024 167.85191,93.2586891 C170.585489,80.358908 169.189998,67.2313555 168.756635,54.1829575 C168.695997,52.3914783 168.03706,51.2849289 166.3691,50.7744624 C164.871736,50.317304 163.802075,50.8770403 163.251478,52.3050544 C159.836324,61.1768342 153.15074,67.9461702 148.166264,75.8067093 C135.703054,95.4588647 128.170958,117.238503 120.631585,139.059333 C115.892897,152.774084 108.330885,165.446901 106.426031,180.234278 C105.400838,188.192549 105.024072,196.628978 98.9764033,203.755318 C92.9618836,178.02441 97.7070397,153.449321 103.76441,129.188428 C108.412545,110.571745 111.459826,92.4106038 106.19318,73.2874921 C100.532789,52.737174 96.2573779,31.8169292 93.8560977,10.5614888 C93.4558844,7.01487689 93.3321821,2.79545065 88.4358343,0 C84.3730623,14.7219529 80.8794826,28.5586663 82.5037829,43.4090436 C83.5645504,53.0990238 84.8476587,62.7873886 84.9285099,72.6211394 C85.036042,85.6832683 86.4557888,98.6549347 91.1694129,111.067672 C96.361676,124.738807 99.3733826,138.426904 94.5118008,153.177126 C91.9488183,160.951241 92.3983509,169.482172 92.2503932,177.794215 C92.1186058,185.136211 93.7542252,192.326359 92.5592447,199.804048 C87.9806421,143.248875 75.2651763,88.1007152 65.452268,32.3613192 C63.4026905,32.933171 63.0558389,34.886998 62.3863911,36.3319738 C57.2119153,47.5056994 50.4689265,57.9621871 48.6675621,70.6059272 C45.8555579,90.3477373 43.0807452,109.826237 54.0595276,128.353266 C58.2225551,135.377835 59.7781319,143.41203 58.729492,152.095616 C45.7342811,132.414383 24.5140792,121.953857 8.80792806,105.27 C10.3125686,122.427977 14.8458945,137.869591 28.6197024,149.050586 C39.1812926,157.624324 48.7662006,166.738414 53.8428464,180.031545 C58.2734914,191.634159 67.3676326,199.114272 78.7102453,204.367554 C83.9768915,206.806809 88.9144733,210.096572 91.8736267,216.171286 C97.2809539,227.273126 93.2731607,238.379005 93.3410757,249.453384 C93.3726077,254.603281 91.7677116,259.566599 88.9128563,264.23026 C84.9964249,260.384799 83.6138697,255.838254 82.6945917,251.129362 C79.3133952,233.816306 73.1444498,217.835956 62.5699233,203.406391 C49.5051804,185.577215 39.4658888,165.469517 22.0909692,150.943027 C17.3918983,147.014373 13.5676373,142.356366 10.9391653,136.697618 C8.58801284,131.636568 4.35221927,128.060879 0,124.43592 C3.36987738,144.551695 16.3658968,160.84301 21.4918619,180.089699 C26.6251036,199.364659 33.2169007,217.933688 44.9532587,234.724161 C45.5790469,234.96001 56.1786372,244.385064 61.5034962,247.448672 C65.4247786,249.704578 74.7040691,252.914379 74.6434307,252.731031 C90.7910293,264.922459 87.594982,287.490413 76.3639439,306.761334 C76.5644549,306.150712 76.7342424,305.540898 76.9177745,304.931085 C76.3873908,305.700015 75.5570491,306.283983 74.4089623,306.402715 C72.4289168,306.931758 70.4488713,307.459994 68.4688257,307.989846 C68.0475911,308.151386 67.5891649,308.175617 67.1331642,308.102116 C70.8676804,310.41537 71.6697242,315.305995 71.8023201,319.390535 C72.0950014,328.431124 73.3417267,337.972488 68.4510385,348.180204 C57.2854899,335.130998 54.3546344,287.752108 52.276759,280.847886 C49.7388403,272.412264 47.4151773,263.534023 43.5124906,255.614521 C41.292317,251.108362 38.7309515,247.151438 36.8956296,242.596008 C36.7953741,242.667894 16.4475565,196.13305 2.50072714,173.493211 C-0.0614469004,178.503376 1.47795966,181.755177 1.3510233,184.863208 C0.0339574976,217.098526 2.66000398,248.710299 15.4676401,278.937674 C22.4256931,295.359836 27.4174452,312.938625 41.593892,324.951551 C51.6105452,333.439674 60.7596653,342.346992 67.3579305,353.799374 C68.6127409,355.97855 70.9752125,357.413833 70.8118931,360.436248 C70.4262329,367.570664 72.0165757,374.659042 70.3987435,381.900075 C69.2344865,387.108934 69.5190826,392.677219 69.5166571,398.085581 C69.5166571,399.79629 69.0816777,402.510163 71.7400647,402.944705 C74.659601,403.420441 75.0848782,400.724337 75.822241,398.773741 C76.2790502,397.565422 76.4245823,396.226255 76.604072,394.931511 C78.5574366,380.824218 78.1159891,366.746002 76.0017306,352.696056 C73.0619816,333.162632 81.314462,323.330497 100.785044,322.679491 C107.789991,322.445258 114.342979,320.637624 119.958094,315.719537 C125.841635,310.568025 132.162581,305.868017 138.582973,301.387704 C150.264352,293.2372 162.694413,286.072899 173.855919,277.285927 C197.317316,258.818668 212.1527,233.739575 224.734761,207.249429 C226.065572,204.447517 229.499322,201.923453 227.260552,196.260667" id="Fill-1" fill="#404F5E" mask="url(#mask-2)"></path>
        </g>
        <g id="Group-6" transform="translate(529.125461, 248.171587)">
            <g id="Group-3" transform="translate(67.874539, -0.171587)">
                <mask id="mask-4" fill="white">
                    <use xlink:href="#path-3"></use>
                </mask>
                <g id="Clip-2"></g>
                <path d="M2.32536956,71.9243849 C3.30238414,72.1281388 4.50399977,71.8594523 5.49449041,71.8243738 C5.91075103,71.8101931 7.33172702,71.6228589 7.66039323,71.5407603 C16.8570577,69.2449836 25.7100825,66.2453976 33.9634225,61.4545684 C40.2889368,56.9398892 45.6786134,52.9551195 50.157907,46.2401966 C52.1276582,43.2876307 54.9044759,40.7731731 56.5305875,36.3540269 C63.389155,17.7191269 60.2731897,0.927714702 45.4487716,0 C33.2169983,0.413478636 20.9605189,-0.988169159 12.1299542,10.050367 C3.14441473,21.2822081 4.45907956,34.3500736 2.30815015,47.4239098 C1.46290152,59.970822 1.0893151,65.0392939 0,68.1224712 C0.131765951,69.8495282 0.619150234,71.5676289 2.32536956,71.9243849" id="Fill-1" fill="#FDCE35" mask="url(#mask-4)"></path>
            </g>
            <path d="M30.6101033,80.4338342 C17.2465034,73.314534 8.36460319,83.0199047 8.21049614,83.2239706 C-7.62992989,104.234588 -0.792911582,138.628955 27.8517353,143.241585 C31.4969597,142.91508 33.8708009,143.900532 35.4318756,145.534543 C38.4436311,146.076245 41.9184486,146.1972 42.4556005,142.9225 C42.5408039,142.406028 42.7230652,141.993444 42.9653392,141.663971 C47.8263792,125.579873 46.2178869,109.666449 40.9345344,93.5311499 C41.1819947,93.7181484 36.2187106,83.4220999 30.6101033,80.4338342" id="Fill-4" fill="#FDCE35"></path>
        </g>
        <g id="Group-3" transform="translate(-248.000000, -540.000000)">
            <path d="M497.92004,1073.18689 C500.083381,1081.48711 493.99793,1089.32932 485.465375,1088.98933 C461.261238,1088.02556 439.821682,1077.83714 418.188269,1068.50853 C366.579936,1046.24911 323.464824,1012.02265 282.740626,973.882102 C251.082795,944.235653 227.822662,909.497804 211.878555,869.5955 C208.29078,860.615304 201.887852,852.638215 203.16619,841.609657 C204.332146,831.561728 219.492393,820.240949 229.002666,823.604308 C244.938344,829.238004 255.920813,840.845385 267.071854,852.840522 C279.377614,866.077601 290.483703,880.272829 301.634744,894.369714 C311.715352,907.109454 324.004255,908.508747 338.077212,905.670825 C348.551155,903.557837 359.025098,901.267831 369.288327,898.325946 C385.91234,893.566105 399.586343,901.059904 413.847539,907.530928 C432.188178,915.853625 451.079486,923.853193 463.733628,939.945053 C474.623382,953.791863 485.476613,967.874699 493.27307,984.135148 C498.675804,995.396921 502.794581,1006.7739 504.859589,1018.9011 C506.340214,1027.60593 495.877508,1040.07593 484.496085,1044.11083 C486.673474,1055.05509 495.20322,1062.74839 497.92004,1073.18689 Z" id="Fill-1" fill="#FFF1E0"></path>
            <g>
                <mask id="mask-6" fill="white">
                    <use xlink:href="#path-5"></use>
                </mask>
                <g id="Clip-2"></g>
                <path d="M333.605882,606.970939 C313.684654,607.631167 297.253217,596.908083 280.525515,588.431409 C257.876612,576.954071 236.279958,562.888965 211.530642,556.568764 C188.889911,550.786148 166.245094,554.925348 143.477685,559.841287 C110.420706,566.981153 76.660865,571.551648 43.0399622,563.667748 C9.51100349,555.806334 -14.5313644,518.817212 10.1178347,483.277322 C23.214765,464.39848 39.7933129,448.853483 55.0029149,431.99825 C68.2612581,417.303577 70.3534979,403.913008 63.102171,385.44502 C56.525101,368.698122 49.1716139,352.190378 50.8633859,333.06625 C53.7790364,300.122302 72.3967007,291.077383 102.854726,290.083975 C111.840732,289.791676 121.065793,294.039211 129.921034,293.25634 C141.843122,292.199566 150.559426,283.434681 159.392192,275.853301 C194.367738,245.830301 208.972552,201.633861 235.857015,165.999944 C252.923888,143.376403 273.574539,123.820981 291.650755,102.102954 C312.039876,77.6070638 338.309335,66.653002 368.961464,63.2578356 C377.365158,62.3277931 384.101597,65.9743775 389.068624,71.0027395 C407.249042,89.3991858 428.925381,84.869572 450.483215,81.8075857 C495.376468,75.432195 535.923828,55.7929665 577.944338,40.4155814 C616.759062,26.2114808 655.592176,11.4493547 696.280517,3.26293606 C714.755157,-0.453146097 733.732425,-1.60803412 752.507416,3.0789716 C764.19045,5.99583036 767.326767,19.5908042 759.129437,33.3820068 C754.446416,41.263862 749.332279,48.890211 744.46537,56.6637316 C741.016444,62.1765334 737.220173,70.6164142 740.299279,74.1812366 C744.728943,79.305669 753.054995,81.6849427 761.256411,80.3399581 C776.613124,77.821689 790.670359,69.3245748 807.269339,72.0615572 C822.448293,74.565518 831.229979,100.320543 824.949173,112.623677 C811.061524,139.825889 791.211808,162.189836 769.053273,181.933311 C751.289667,197.760387 732.625009,213.174565 711.275583,224.774546 C692.925578,234.743376 675.656428,246.690846 657.410626,256.870213 C640.403006,266.358691 621.662749,273.059086 605.56844,283.806698 C560.266547,314.058632 516.4235,346.19518 488.550127,395.09089 C484.531147,402.136729 485.432199,405.873252 492.274886,409.043573 C530.006713,426.536549 543.385605,460.463684 521.80121,498.266338 C510.177429,518.623027 484.439203,546.58767 463.823286,560.260318 C424.08912,586.076664 381.964407,605.360228 333.605882,606.970939 Z" id="Fill-1" fill="#F8BC85" mask="url(#mask-6)"></path>
            </g>
        </g>
        <g id="Group-3" transform="translate(-168.000000, -172.000000)">
            <mask id="mask-8" fill="white">
                <use xlink:href="#path-7"></use>
            </mask>
            <g id="Clip-2"></g>
            <path d="M254.485642,286.83 C274.161898,287.007504 293.820699,288.686512 313.511502,287.304313 C324.823241,286.509912 335.686932,284.551554 344.67988,276.849069 C346.501163,275.289366 348.683211,274.90817 350.711061,276.392215 C353.099677,278.141061 351.531511,280.242003 351.031095,282.313847 C347.836576,295.489841 339.181118,305.482412 331.351929,315.911468 C330.001968,317.706871 327.459155,318.966855 325.216009,319.668139 C304.504007,326.116461 283.448696,327.690713 262.259552,322.6275 C255.74832,321.073617 249.522209,318.256841 246.295687,311.24691 C244.439491,307.210889 241.050043,304.99937 236.115704,304.263167 C221.487253,302.077838 208.467698,301.696642 195.85255,313.007395 C177.715364,329.262055 153.072766,335.617261 133.411056,349.834996 C112.210275,365.170131 88.684885,376.864989 65.4562537,393.593962 C84.3178791,393.451378 99.5573043,390.081722 111.477107,377.717588 C124.432655,364.270974 138.034089,351.6304 155.586485,344.562271 C179.751943,334.83159 203.318064,331.968255 225.208372,351.141538 C234.297331,359.103005 246.95903,362.626885 254.002682,373.425496 C255.425377,375.613735 258.200942,377.045403 257.717982,380.249194 C255.108253,383.432617 252.067932,381.296756 249.32437,380.92429 C228.481445,378.107513 208.764457,379.996034 190.289781,391.594866 C181.631414,397.030545 171.966394,400.944351 162.056986,404.351835 C148.385726,409.054222 137.204911,401.354646 124.895249,399.451576 C119.230652,398.572789 113.673702,397.71437 108.468789,394.885955 C103.319155,392.086638 98.2568035,392.697715 93.0198876,395.942246 C82.3453074,402.553522 71.1004853,407.229719 58.3340481,401.441943 C55.7097714,400.251797 53.8215723,401.610717 51.683165,403.068573 C44.2496538,408.128876 36.5659345,412.810893 29.1411515,417.879926 C22.4117146,422.474647 15.6153616,426.708541 7.61451791,428.922969 C4.81858671,429.697001 2.19721938,431.271252 0.544681479,428.07619 C-1.07876244,424.942236 1.18474897,423.414542 3.9399486,421.915948 C18.7895145,413.843905 33.365597,405.30337 47.2841556,395.659986 C58.9071995,387.608313 66.6665632,360.165115 60.4142675,347.55946 C57.0364568,340.750311 53.68774,333.833497 48.5672,328.106828 C38.6054223,316.979398 36.8045051,304.149682 41.8668571,290.723437 C48.098787,274.195246 54.5256465,257.684515 63.2509303,242.218436 C67.7721343,234.207501 75.1445481,228.780552 81.2455551,222.218744 C87.9138946,215.048768 95.8216376,209.007831 100.153731,199.838759 C101.212752,197.598142 102.943843,195.677613 105.998711,196.856119 C98.0444174,223.39725 100.854896,251.038321 99.4962069,278.039215 C98.4080922,299.621889 96.6828193,319.080341 81.105904,335.020733 C70.2858539,346.092874 70.410958,360.604509 68.0165237,374.368301 C67.5568389,377.025033 67.1349762,379.684675 66.5385497,383.287122 C77.9230229,375.869806 88.6587004,368.694011 99.57767,361.815024 C108.777186,356.021428 117.941788,350.099797 127.560257,345.065682 C149.313824,333.682182 157.259389,315.378957 153.835028,291.931042 C151.5046,275.961551 150.92854,261.609961 157.535782,246.661842 C162.627228,235.144487 154.527465,224.581576 152.51998,213.541444 C148.958877,193.943317 139.765181,174.88643 146.672091,154.194183 C149.191629,146.654651 152.799282,139.697098 156.581499,132.774463 C157.625973,130.862663 158.932293,129.87621 162.007526,130.335973 C166.426901,152.957478 177.610626,173.140494 187.842978,193.826921 C207.970191,234.52759 197.694198,270.988545 170.898645,304.821867 C164.172118,313.312934 158.100205,322.324871 153.165866,332.870322 C161.928972,327.373535 170.77936,322.016422 179.431909,316.359591 C211.769864,295.222131 234.666824,266.385095 250.886717,231.402365 C254.991877,222.544652 254.066688,217.15844 248.704668,210.39876 C235.513459,193.780363 230.695497,173.451852 224.675953,153.763519 C222.383347,146.261815 225.758249,138.649536 226.965649,131.200211 C230.05252,112.152054 231.262829,93.2843096 225.522587,74.4922227 C223.628569,68.2912415 224.20754,61.9622249 226.343038,55.9911252 C232.414951,39.0439103 238.766166,22.1985417 245.076649,5.33862356 C245.902918,3.12128535 246.348056,0.138645369 249.411652,0.00479030686 C252.920386,-0.149434004 252.062113,3.4588329 253.345158,5.26005646 C261.703857,16.9549151 271.011021,27.9659489 278.045944,40.6007029 C291.027677,63.9205827 305.341913,86.9203743 307.297029,114.331563 C309.191047,140.895973 305.056793,166.991891 296.887204,192.389434 C293.774148,202.073557 288.054272,209.58108 279.61411,215.473612 C258.596621,230.139471 247.206329,252.557285 234.285693,273.601628 C230.817691,279.24682 226.261574,283.751334 221.1614,289.658416 C241.474815,287.179188 252.03011,273.249531 263.144009,260.056078 C273.693485,247.5319 276.608702,231.064817 285.540553,217.557096 C297.669832,199.218952 312.888891,182.958472 322.318249,162.790006 C326.667799,153.495809 331.552677,144.454772 336.830325,134.051906 C345.014461,141.472132 347.600915,151.211543 349.256362,160.913125 C356.695692,204.462579 337.167815,236.125121 304.021047,261.548853 C289.072562,273.01383 273.646935,283.57674 254.546739,287.007504 C244.497679,290.09199 233.642716,290.551753 223.552925,296.31625 C241.93159,299.613159 248.934511,297.355082 254.485642,286.83" id="Fill-1" fill="#FFFFFF" mask="url(#mask-8)"></path>
        </g>
        <g id="Group-3" transform="translate(529.000000, 11.000000)">
            <mask id="mask-10" fill="white">
                <use xlink:href="#path-9"></use>
            </mask>
            <g id="Clip-2"></g>
            <path d="M45.9671936,23.0420456 C45.5703803,26.6729553 45.2603699,30.3266748 43.9376589,33.7834004 C42.7968207,36.7569724 40.7652193,39.0939428 38.5083437,41.2546555 C37.1732322,42.5299322 35.7575181,43.7201904 33.9532577,44.219933 C30.7725511,45.1032953 27.8791208,47.1582534 24.47314,46.9902901 C21.3296346,46.8347686 18.1385944,46.8015906 15.0942923,45.733676 C13.7364468,45.2588169 12.3310664,44.924964 10.9401531,44.5517123 C8.499338,43.8964481 6.68061039,42.4511346 5.14709233,40.4397226 C2.12552441,36.4770336 1.39803336,31.7367369 0.379132548,27.0835322 C-0.455828767,23.2577022 0.203459994,19.4961544 1.24096143,15.8445085 C2.27846286,12.190789 4.2997306,9.00156045 6.92448523,6.24779228 C9.14829308,3.91911633 11.4465034,1.58007228 14.6396104,0.698783516 C19.1016933,-0.53502075 23.5451755,-0.0352781818 27.9039216,1.41832987 C30.0657274,2.13787622 32.3122693,2.70397465 34.2591346,3.90460098 C36.9582917,5.57179196 40.031528,6.76827105 42.0114611,9.42250544 C44.2022011,12.3608258 44.9565597,15.8403612 45.4153751,19.394547 C45.5765805,20.6096887 46.1407994,21.766769 45.9671936,23.0420456" id="Fill-1" fill="#F7CDCA" mask="url(#mask-10)"></path>
        </g>
    </g>
</svg>