<?xml version="1.0" encoding="UTF-8"?>
<svg width="600px" height="400px" viewBox="0 0 600 400" version="1.1" xmlns="http://www.w3.org/2000/svg" xmlns:xlink="http://www.w3.org/1999/xlink">
    <title>floral-01</title>
    <defs>
        <polygon id="path-1" points="0 0 625 0 625 601 0 601"></polygon>
        <polygon id="path-3" points="0 0 194.287638 0 194.287638 178.689352 0 178.689352"></polygon>
        <polygon id="path-5" points="-8.8817842e-16 0 89.7928326 0 89.7928326 216.768 -8.8817842e-16 216.768"></polygon>
        <polygon id="path-7" points="0 0 89.7928663 0 89.7928663 216.76779 0 216.76779"></polygon>
        <polygon id="path-9" points="0 0 11.8148047 0 11.8148047 13.5512839 0 13.5512839"></polygon>
        <polygon id="path-11" points="0 0 157.914 0 157.914 205.392 0 205.392"></polygon>
        <polygon id="path-13" points="0 0 157.914 0 157.914 205.392 0 205.392"></polygon>
        <polygon id="path-15" points="0 0 7 0 7 7 0 7"></polygon>
    </defs>
    <g id="floral-01" stroke="none" stroke-width="1" fill="none" fill-rule="evenodd">
        <g id="Group-154" transform="translate(47.000000, 0.000000)">
            <g id="Group-3" transform="translate(0.000000, 0.000000)">
                <mask id="mask-2" fill="white">
                    <use xlink:href="#path-1"></use>
                </mask>
                <g id="Clip-2"></g>
                <path d="M265.11735,0.0533701218 C180.372046,1.46748706 49.2547215,31.9017575 11.5142116,110.112139 C-1.66713955,137.428091 -0.774643443,177.586054 1.01001146,257.901308 C1.53451314,281.508019 2.40441014,315.915397 8.51291521,358.60714 C21.2024828,447.291465 29.8410761,507.664544 62.5349016,542.818813 C144.455992,630.904483 440.374442,628.358938 566.739883,469.775824 C635.673233,383.267632 646.277611,260.206853 583.246676,158.503375 C513.850887,46.5296494 378.570942,-1.83940204 265.11735,0.0533701218" id="Fill-1" fill="#F4F7FA" mask="url(#mask-2)"></path>
            </g>
        </g>
        <g id="Group-3" transform="translate(-64.000000, -28.000000)">
            <mask id="mask-4" fill="white">
                <use xlink:href="#path-3"></use>
            </mask>
            <g id="Clip-2"></g>
            <path d="M39.4679,127.814352 C46.2929,125.728352 53.0119,125.007352 58.7489,121.555352 C61.3959,119.962352 64.2939,118.110352 64.4079,114.421352 C64.4519,112.983352 63.7909,111.337352 62.3609,110.934352 C59.4859,110.123352 56.5909,111.044352 54.3679,112.714352 C48.8129,116.889352 44.5469,122.411352 39.4679,127.814352 M26.9619,136.006352 C17.8549,134.231352 11.1719,129.549352 6.9539,121.655352 C3.5389,115.263352 2.5649,108.199352 1.8619,101.018352 C1.1899,94.1543518 -0.7191,87.3693518 0.2869,80.4233518 C0.8229,76.7203518 1.7009,72.9843518 3.0359,69.4973518 C5.2979,63.5843518 6.4999,57.0703518 11.3639,52.4403518 C17.5169,46.5833518 21.5759,38.7033518 28.6099,33.7983518 C37.2229,27.7933518 44.6069,19.8103518 54.5019,15.9103518 C64.3479,12.0293518 74.3949,8.60635183 84.5059,5.35335183 C95.5729,1.79235183 106.8739,1.29035183 118.1449,0.302351832 C130.1609,-0.750648168 142.1849,1.00835183 153.5889,4.62035183 C162.4749,7.43435183 171.5299,10.2583518 179.6339,15.3133518 C183.1659,17.5163518 187.4409,17.7053518 191.6169,17.5463518 C196.0019,17.3793518 193.6769,20.6683518 193.6319,22.1943518 C193.3549,31.4793518 191.9149,40.6923518 193.3859,50.0603518 C194.7429,58.7023518 194.5699,67.5363518 192.6469,76.0663518 C190.1659,87.0743518 187.5649,98.0553518 182.1149,108.204352 C174.9179,121.607352 166.2319,133.748352 155.2799,144.341352 C146.4469,152.883352 137.5019,161.246352 126.6449,167.186352 C117.2889,172.304352 107.3509,175.898352 96.8739,178.051352 C92.3779,178.975352 87.8689,177.779352 83.4679,178.458352 C76.6689,179.507352 70.5599,176.698352 64.1209,175.770352 C57.5819,174.828352 52.2189,171.339352 46.6529,168.379352 C43.6889,166.804352 41.1489,164.283352 38.4909,162.098352 C31.6519,156.475352 28.5149,149.164352 26.6129,140.935352 C26.1739,139.035352 27.0719,137.365352 26.9619,136.006352" id="Fill-1" fill="#638085" mask="url(#mask-4)"></path>
        </g>
        <g id="Group-7" transform="translate(555.000000, 118.000000)">
            <g id="Group-3" transform="translate(0.000034, 0.000000)">
                <mask id="mask-6" fill="white">
                    <use xlink:href="#path-5"></use>
                </mask>
                <g id="Clip-2"></g>
                <path d="M40.6290326,6.0474 C41.9830326,11.0364 43.3510326,16.0724 44.0510326,21.1794 C46.3670326,38.0564 50.5090326,54.2764 59.6240326,68.9204 C63.9780326,75.9164 67.2710326,83.3794 68.2670326,91.6294 C68.9000326,96.8654 71.4830326,101.1834 74.3540326,105.2784 C77.2540326,109.4184 79.7720326,113.7484 82.2700326,118.1154 C86.9980326,126.3804 89.6390326,135.0624 87.4940326,144.6414 C86.6570326,148.3794 87.2030326,151.8264 88.4140326,155.4094 C90.0500326,160.2544 90.4030326,165.1684 88.5260326,170.2074 C87.1580326,173.8824 86.1710326,177.7834 86.7580326,181.8164 C87.5950326,187.5744 88.5140326,193.3204 89.3810326,199.0744 C90.2790326,205.0314 88.1910326,208.6374 84.1210326,211.1574 C79.2770326,214.1564 72.1750326,209.5434 68.9870326,204.2864 C65.4880326,198.5174 63.0420326,192.0354 57.9980326,187.2574 C56.4680326,185.8094 54.7220326,184.5354 52.5690326,185.1844 C50.4310326,185.8274 50.6020326,188.0544 50.5930326,189.7174 C50.5560326,196.9664 49.7150326,204.0514 47.3330326,210.9424 C45.8520326,215.2264 40.4860326,217.7274 36.2210326,216.4214 C29.8210326,214.4614 26.5410326,209.8104 25.3730326,203.7814 C21.4780326,183.6664 12.3620326,165.4894 4.90903259,146.6694 C0.361032586,135.1834 -2.56496741,123.3224 3.19603259,111.0594 C8.43603259,99.9084 10.4740326,88.0184 10.0240326,75.7204 C9.72503259,67.5824 11.0990326,59.7914 14.1160326,52.2094 C16.9310326,45.1364 18.6160326,37.7854 19.8900326,30.2264 C21.2820326,21.9634 23.6070326,13.7554 29.5850326,7.2364 C31.6830326,4.9484 33.5380326,2.4394 35.5280326,-0.0006 C39.0410326,0.3914 39.8970326,3.3494 40.6290326,6.0474" id="Fill-1" fill="#CE6C51" mask="url(#mask-6)"></path>
            </g>
            <g id="Group-6">
                <mask id="mask-8" fill="white">
                    <use xlink:href="#path-7"></use>
                </mask>
                <g id="Clip-5"></g>
                <path d="M56.2574663,179.3877 C56.1064663,179.6837 55.9564663,179.9797 55.8054663,180.2767 C57.0834663,180.9047 58.3614663,181.5327 59.6394663,182.1597 L59.9924663,181.4677 C58.7474663,180.7737 57.5024663,180.0807 56.2574663,179.3877 M38.0124663,13.1097 C36.0274663,14.8507 36.5234663,17.0087 35.8614663,19.6847 C39.5264663,17.8047 39.2234663,15.7277 38.0124663,13.1097 M31.1924663,15.5297 C28.1814663,19.5147 28.2314663,19.8517 32.1074663,22.6267 C32.9274663,20.1107 31.1574663,18.0527 31.1924663,15.5297 M39.5744663,20.6277 C35.4044663,22.3137 34.0754663,25.3107 34.8884663,30.4287 C37.3534663,27.0677 41.9704663,25.8337 39.5744663,20.6277 M25.2534663,30.0817 C22.9084663,33.4887 23.5634663,35.0107 32.0004663,45.5767 C32.1334663,38.6627 28.1704663,34.6837 25.2534663,30.0817 M31.4934663,34.9677 C33.0164663,29.7447 32.0484663,26.3937 27.8344663,22.3067 C24.9204663,26.6107 24.9884663,26.8497 31.4934663,34.9677 M41.2684663,27.7357 C36.0834663,31.1987 33.0804663,35.2447 34.9904663,42.3847 C37.3874663,37.3537 43.3704663,34.5867 41.2684663,27.7357 M37.6794663,211.3947 C37.5344663,205.0227 37.3914663,198.7447 37.2404663,192.0887 C29.4604663,201.6267 29.4424663,209.7947 37.6794663,211.3947 M65.3554663,187.3297 C68.4794663,194.6827 72.8314663,200.1547 77.1564663,205.6297 C78.5524663,207.3967 80.4964663,207.9347 82.6454663,207.1177 C84.9184663,206.2547 84.6374663,204.2227 84.7964663,201.9797 C74.9674663,202.1087 72.8274663,192.0007 65.3554663,187.3297 M34.0754663,56.7947 C37.7894663,52.0467 41.2584663,47.9587 44.3114663,43.5787 C46.1484663,40.9427 43.2994663,38.5887 43.2574663,35.1547 C37.2914663,41.6287 33.5024663,47.8937 34.0754663,56.7947 M19.0744663,63.5787 C23.1734663,66.1167 27.2664663,68.6637 31.5014663,71.2937 C32.9664663,62.0147 29.3584663,58.0957 17.6814663,55.7057 C14.9424663,58.9057 15.6874663,61.4807 19.0744663,63.5787 M46.1774663,199.0757 C46.1494663,196.6397 45.8424663,194.2007 45.5554663,191.7747 C45.0064663,187.1447 48.1134663,184.1737 51.3814663,180.6327 C40.6384663,182.7657 37.9934663,198.1107 41.6334663,212.0567 C45.7974663,208.1447 46.2304663,203.6617 46.1774663,199.0757 M34.8194663,70.9927 C38.8584663,65.3737 43.6124663,60.9107 47.4774663,55.8517 C49.2474663,53.5347 48.1144663,49.0987 45.9714663,45.9627 C38.7614663,54.7197 32.6514663,60.4907 34.8194663,70.9927 M22.3474663,36.5557 C21.8584663,41.8167 20.0934663,46.2527 18.6434663,50.7847 C17.9724663,52.8827 19.6084663,53.3387 20.8894663,53.9597 C24.1634663,55.5467 27.4764663,57.0527 31.0034663,58.6987 C32.3924663,49.3557 31.5604663,47.1847 22.3474663,36.5557 M32.6174663,86.0477 C33.6754663,75.6907 28.8854663,69.4257 16.0114663,64.3277 C14.2794663,69.8607 24.6794663,83.4627 32.6174663,86.0477 M34.9154663,114.5397 C36.1554663,105.7037 34.7024663,102.6527 27.5434663,98.5297 C22.5784663,95.6697 18.0074663,92.2607 13.7064663,87.7897 C13.2094663,91.9627 29.3854663,111.9657 34.9154663,114.5397 M26.8834663,86.1427 C21.3084663,84.1087 17.9794663,78.9157 15.3514663,73.0847 C13.1094663,85.0377 19.9224663,94.3977 34.0304663,99.0417 C34.3574663,92.9247 33.3794663,88.5137 26.8834663,86.1427 M38.7874663,164.6017 C39.0564663,164.6207 39.3444663,164.6327 39.5994663,164.5607 C41.4584663,164.0387 44.8254663,165.8707 44.8384888,162.5967 C44.8484663,159.7117 41.5184663,160.6917 39.5694663,160.3277 C31.5924663,158.8387 24.0204663,156.4507 17.9334663,150.7567 C16.2814663,149.2107 14.4414663,148.2787 11.9044663,147.9217 C14.9044663,161.6287 23.8784663,163.5377 38.7874663,164.6017 M52.4204663,172.7377 C53.1004663,174.2527 54.5254663,174.9377 55.8434663,175.4917 C67.5484663,180.4087 72.2904663,194.0257 85.1454663,199.8627 C84.1714663,194.7327 83.5004663,191.2007 82.7834663,187.4237 C75.2144663,186.9337 70.3444663,181.3427 64.8744663,176.7137 C61.3314663,173.7157 57.3904663,171.3867 52.8264663,170.0557 C51.9724663,171.1947 52.0564663,171.9277 52.4204663,172.7377 M6.24546631,118.8617 C19.1944663,121.4827 25.3924663,135.3087 38.5654663,137.9167 C39.3804663,133.2087 38.5834663,130.7177 33.8494663,129.4287 C26.2624663,127.3637 20.9634663,121.7707 16.3614663,115.6297 C14.4514663,113.0797 12.2324663,111.0067 9.00246631,109.4347 C7.14046631,112.4987 6.69246631,115.5177 6.24546631,118.8617 M49.0744663,176.4207 C47.9974663,171.1607 45.5144663,170.0787 41.2424663,173.8467 C36.6714663,177.8787 31.5394663,180.6727 25.4764663,183.1317 C28.5344663,188.3607 27.4624663,194.4817 29.3624663,201.4807 C33.0264663,189.6787 41.0914663,183.1137 49.0744663,176.4207 M18.1474663,162.5677 C19.6054663,169.2147 23.1114663,174.6147 25.1774663,180.6877 C33.5874663,178.3247 39.1354663,171.7057 46.5514663,167.8547 C36.6574663,167.8897 27.5394663,165.5897 18.1474663,162.5677 M36.2854663,92.4017 C39.6314663,85.4477 42.4904663,78.5537 47.6334663,73.0257 C53.3684663,66.8627 53.3514663,66.8467 48.8344663,58.9087 C36.8544663,67.7087 32.6784663,78.6217 36.2854663,92.4017 M60.6874663,166.4787 C57.9794663,164.9247 55.4294663,163.0697 52.2664663,162.5077 C50.9604663,162.2747 49.5874663,162.4297 49.2864663,163.8797 C49.0444663,165.0447 49.4684663,166.5287 50.8944663,166.7927 C61.4194663,168.7417 67.6884663,177.3627 76.0064663,182.7557 C77.9244663,183.9997 79.7204663,184.9057 82.4564663,184.3857 C81.8114663,179.1967 83.4144663,174.2877 84.6564663,168.7707 C75.7394663,172.8137 68.0774663,170.7197 60.6874663,166.4787 M30.8794663,114.9887 C24.6994663,110.9747 20.3834663,105.2577 17.1454663,98.6997 C16.2344663,96.8547 15.1324663,95.1797 12.7754663,93.7117 C11.6624663,98.0597 10.6114663,102.1697 9.49046631,106.5477 C20.6384663,110.5687 24.8354663,123.7867 37.0944663,126.7967 C37.4344663,121.4157 35.1804663,117.7817 30.8794663,114.9887 M6.22746631,131.7027 C6.25146631,132.7787 6.92346631,133.5077 7.96646631,133.6987 C19.0784663,135.7297 26.6364663,144.7227 36.8854663,148.4477 C38.5124663,149.0387 40.0494663,149.8777 42.4484663,150.9787 C41.6684663,147.6957 40.9014663,145.1857 40.5004663,142.6187 C39.8454663,138.4257 36.2614663,140.0007 33.9944663,139.3027 C29.5364663,137.9287 26.0234663,135.2987 22.6544663,132.2657 C14.7644663,125.1627 10.5844663,122.4877 6.23646631,121.7197 C5.09646631,125.2447 6.15646631,128.4737 6.22746631,131.7027 M61.4174663,164.4177 C65.5474663,166.7747 69.9864663,168.1637 74.5644663,168.3867 C81.8454663,168.7397 87.8904663,166.0397 84.5334663,155.7787 C84.0324663,154.2467 83.3404663,152.7767 82.6394663,151.0367 C77.3954663,154.4267 71.7464663,155.4537 65.9104663,156.1177 C60.2304663,156.7637 54.2544663,156.1927 49.0624663,159.6057 C54.2294663,158.7917 57.6324663,162.2577 61.4174663,164.4177 M55.1664663,90.2037 C61.7624663,82.2797 61.7234663,78.0307 54.2074663,70.8027 C42.6014663,79.0267 35.1574663,96.3087 38.3094663,109.1947 C43.0744663,101.4467 49.8864663,96.5467 55.1664663,90.2037 M58.8184663,108.3907 C65.0294663,103.8687 67.1854663,99.3797 65.0764663,92.1117 C64.2134663,89.1357 63.4034663,86.1427 62.1634663,81.7087 C58.5814663,94.8297 46.9274663,100.0957 40.7854663,109.9467 C37.9034663,114.5677 40.0524663,118.4277 39.2574663,123.8807 C45.6444663,116.9517 52.5014663,112.9907 58.8184663,108.3907 M54.7824663,131.2647 C51.4494663,132.9547 48.5334663,135.0537 45.7744663,137.4357 C42.3044663,140.4307 43.9554663,144.0537 44.7034663,147.7197 C52.9944663,141.8267 63.0974663,140.5747 71.7434663,135.8457 C75.8194663,133.6167 78.6134663,130.6367 80.6674663,126.7537 C81.7924663,124.6247 80.0824663,122.8597 79.2484663,121.0947 C78.3864663,119.2717 77.1834663,117.6097 75.7994663,115.3337 C71.3864663,124.7297 62.5364663,127.3337 54.7824663,131.2647 M63.6614663,123.7717 C76.0534663,116.2427 76.4394663,113.6257 67.9094663,101.2857 C63.8144663,109.9987 55.2124663,113.6617 48.2484663,119.0807 C41.4284663,124.3877 39.7854663,127.9867 42.3304663,136.9767 C48.5524663,130.3107 56.6774663,128.0157 63.6614663,123.7717 M70.5884663,153.3337 C82.1454663,151.3957 85.8054663,146.2597 84.5234663,134.6517 C84.3054663,132.6867 84.0864663,130.6057 82.7374663,128.8797 C76.1604663,138.8607 65.5494663,142.0267 55.1734663,145.1947 C48.1964663,147.3247 44.7654663,150.9947 46.9954663,156.5397 C54.8644663,154.3297 62.8404663,154.6337 70.5884663,153.3337 M12.6484663,137.6167 C11.3724663,136.7687 9.80246631,135.9877 8.06346631,136.2957 C7.71246631,141.7707 9.91446631,145.1987 14.8144663,146.2127 C17.0844663,146.6827 18.8564663,147.7397 20.4664663,149.2277 C26.9784663,155.2437 34.9634663,157.3187 43.7664663,158.1427 C43.5644663,155.2007 42.7904663,153.5717 39.6094663,153.0297 C33.2504663,151.9457 27.3304663,149.5907 22.6194663,144.8957 C25.8324663,146.5057 29.0464663,148.1167 32.2594663,149.7267 C32.3734663,149.5417 32.4864663,149.3557 32.6004663,149.1697 C29.5184663,147.4027 26.4644663,145.5847 23.3254663,143.9237 C22.8554663,143.6737 22.5464663,144.4307 22.7784663,145.0287 C19.4154663,142.5377 16.1284663,139.9317 12.6484663,137.6167 M40.6294663,6.0477 C41.9834663,11.0367 43.3514663,16.0727 44.0514663,21.1797 C46.3674663,38.0557 50.5094663,54.2767 59.6244663,68.9207 C63.9784663,75.9167 67.2704663,83.3797 68.2674663,91.6287 C68.9004663,96.8657 71.4834663,101.1837 74.3534663,105.2787 C77.2544663,109.4177 79.7714663,113.7477 82.2694663,118.1157 C86.9974663,126.3807 89.6384663,135.0617 87.4934663,144.6407 C86.6574663,148.3787 87.2034663,151.8257 88.4134663,155.4087 C90.0504663,160.2537 90.4034663,165.1677 88.5264663,170.2077 C87.1584663,173.8827 86.1714663,177.7837 86.7574663,181.8167 C87.5954663,187.5747 88.5134663,193.3207 89.3814663,199.0747 C90.2784663,205.0317 88.1914663,208.6377 84.1204663,211.1577 C79.2774663,214.1567 72.1744663,209.5437 68.9864663,204.2857 C65.4884663,198.5167 63.0424663,192.0347 57.9974663,187.2577 C56.4684663,185.8087 54.7224663,184.5357 52.5694663,185.1837 C50.4314663,185.8267 50.6024663,188.0547 50.5934663,189.7177 C50.5564663,196.9667 49.7154663,204.0517 47.3334663,210.9427 C45.8514663,215.2267 40.4864663,217.7267 36.2214663,216.4207 C29.8214663,214.4607 26.5404663,209.8097 25.3734663,203.7817 C21.4774663,183.6667 12.3614663,165.4897 4.90946631,146.6697 C0.36146631,135.1837 -2.56553369,123.3227 3.19646631,111.0587 C8.43546631,99.9087 10.4734663,88.0187 10.0234663,75.7207 C9.72546631,67.5817 11.0994663,59.7917 14.1164663,52.2097 C16.9314663,45.1367 18.6164663,37.7847 19.8904663,30.2267 C21.2824663,21.9627 23.6074663,13.7557 29.5854663,7.2367 C31.6824663,4.9487 33.5374663,2.4387 35.5284663,-0.0003 C39.0414663,0.3917 39.8964663,3.3487 40.6294663,6.0477" id="Fill-4" fill="#EF8E78" mask="url(#mask-8)"></path>
            </g>
        </g>
        <g id="Group-24" transform="translate(77.000000, 37.000000)">
            <path d="M69.2494047,92.6028 C69.2894047,97.3798 67.1064047,101.4578 62.4714047,101.2838 C56.9644047,101.0768 55.2734047,95.6158 54.9374047,91.0958 C54.6024047,86.5808 57.3354047,83.2718 62.4994047,83.3648 C68.7564047,83.4768 68.8124047,88.2148 69.2494047,92.6028" id="Fill-1" fill="#E1B961"></path>
            <path d="M78.9042047,121.6331 C78.7832047,126.0191 77.6362047,130.0381 72.6632047,129.7791 C68.5412047,129.5631 64.5772047,127.7971 64.5661789,122.2841 C64.5552047,116.9631 68.0632047,113.4801 72.2252047,113.0381 C77.2822047,112.5021 78.3482047,117.4771 78.9042047,121.6331" id="Fill-3" fill="#E1B961"></path>
            <path d="M93.6996047,105.324 C94.0756047,98.17 97.4526047,94.656 102.230605,94.214 C106.800605,93.791 107.561605,98.178 107.492605,101.98 C107.401605,107.009 104.772605,110.783 99.8566047,110.965 C95.9386047,111.11 93.6396047,107.85 93.6996047,105.324" id="Fill-5" fill="#E1B961"></path>
            <path d="M53.5746047,49.6277 C56.5556047,50.7547 58.3886047,53.6117 58.1096047,56.6357 C57.6256047,61.8707 53.9336047,64.9817 48.7676047,65.2627 C45.6666047,65.4317 42.8496047,63.1347 43.7706047,59.8417 C45.0956047,55.1057 47.7166047,50.8567 53.5746047,49.6277" id="Fill-7" fill="#E1B961"></path>
            <path d="M58.7723047,29.5052 C59.7233047,26.5132 60.3973047,21.7272 66.0113047,21.4462 C69.6903047,21.2622 71.8603047,23.7472 71.3863047,27.4132 C70.8013047,31.9402 68.9293047,36.1672 63.7403047,36.7252 C59.8763047,37.1402 58.3213047,34.4432 58.7723047,29.5052" id="Fill-9" fill="#E1B961"></path>
            <path d="M90.8753047,151.7151 C89.9833047,157.9291 88.8423047,163.0891 83.6983047,162.8911 C79.7523047,162.7401 77.3593047,157.5821 78.0443047,154.0871 C78.8043047,150.2021 82.7633047,147.0551 87.0713047,147.0531 C90.5493047,147.0521 90.9823047,150.4731 90.8753047,151.7151" id="Fill-11" fill="#E1B961"></path>
            <path d="M21.0306047,48.4573 C23.2526047,54.9593 26.8716047,60.5753 19.6556047,65.3133 C17.1746047,66.9433 15.1336047,66.0343 14.0106047,63.5893 C10.6146047,56.2013 15.9536047,52.9033 21.0306047,48.4573" id="Fill-13" fill="#E1B961"></path>
            <path d="M29.6288047,109.2654 C28.2568047,103.6454 30.9658047,99.7914 33.2328047,95.8614 C34.5748047,93.5334 36.4908047,92.9444 39.0378047,94.2654 C41.2118047,95.3914 43.2588047,96.7124 42.9728047,99.3444 C42.6918047,101.9324 40.4258047,105.6584 38.7688047,104.8654 C33.5988047,102.3904 33.4798047,108.4374 29.6288047,109.2654" id="Fill-15" fill="#E1B961"></path>
            <path d="M2.55110471,92.2669 C2.34910471,89.9159 3.91810471,86.7549 9.41510471,86.9639 C13.1151047,87.1049 13.6821047,89.6409 13.1841047,92.2959 C12.4901047,95.9949 11.9451047,100.3579 6.77210471,100.4959 C2.95710471,100.5979 2.27810471,97.8429 2.55110471,92.2669" id="Fill-17" fill="#E1B961"></path>
            <g id="Group-21" transform="translate(0.000000, 0.000000)">
                <mask id="mask-10" fill="white">
                    <use xlink:href="#path-9"></use>
                </mask>
                <g id="Clip-20"></g>
                <path d="M11.8148047,4.6092 C11.1418047,8.7792 8.95580471,12.1962 4.56680471,13.3882 C1.99980471,14.0852 -0.516195285,12.4932 0.0918047147,9.6602 C0.988804715,5.4752 2.16380471,0.9162 7.57980471,0.0702 C10.8398047,-0.4398 11.3738047,1.8982 11.8148047,4.6092" id="Fill-19" fill="#E1B961" mask="url(#mask-10)"></path>
            </g>
            <path d="M32.5497047,15.0999 C37.6477047,19.7259 36.5237047,23.6209 33.1017047,26.3989 C30.5947047,28.4329 26.8897047,26.1349 25.9557047,24.0739 C22.9927047,17.5309 30.8907047,18.9659 32.5497047,15.0999" id="Fill-22" fill="#E1B961"></path>
        </g>
        <g id="Group-7" transform="translate(-46.000000, 272.000000)">
            <g id="Group-3">
                <mask id="mask-12" fill="white">
                    <use xlink:href="#path-11"></use>
                </mask>
                <g id="Clip-2"></g>
                <path d="M121.0229,168.3727 C123.1579,170.7987 125.2129,173.3007 127.4459,175.6337 C131.8629,180.2477 136.1589,184.8227 135.0789,192.0397 C134.8129,193.8227 133.9119,195.0777 133.2829,195.9147 C129.1679,197.0747 126.0669,195.0397 122.6839,194.0247 C120.4519,193.3547 121.0449,196.0227 120.2149,197.0707 C117.7449,200.1877 114.1829,199.4277 111.5169,195.2857 C109.1119,191.5507 108.0879,187.1357 105.2549,183.5467 C102.1609,179.6277 99.1409,177.2407 93.5189,177.0967 C85.3489,176.8867 82.7969,174.7397 81.4209,168.6697 C80.9629,166.6457 79.7849,164.7707 78.8269,162.8837 C78.4159,162.0757 77.6079,160.7357 77.1819,160.8087 C76.0599,161.0007 76.1189,162.3687 75.8999,163.3277 C73.2099,175.1337 72.1769,187.3367 67.7459,198.7137 C66.6499,201.5277 65.9959,205.4327 61.6409,205.39202 C56.4749,205.3437 58.3749,201.7147 59.2429,199.5087 C63.4969,188.6917 66.6759,177.6357 67.7459,166.0297 C67.8569,164.8217 69.1259,159.7527 67.4889,158.0707 C65.4359,155.9607 63.0059,156.2617 61.0719,158.1597 C56.3439,162.8027 50.5349,165.9207 45.2799,169.8127 C39.2209,174.3017 32.4509,177.4227 25.7809,180.7577 C22.4549,182.4207 18.7709,183.5337 15.5819,181.0067 C11.0889,177.4467 11.8229,172.4647 13.3519,167.7787 C15.0669,162.5197 19.6669,160.1407 24.2959,157.9587 C25.1329,157.5637 26.1729,157.1347 26.0939,156.1977 C26.0459,155.6227 25.1029,155.0437 24.4639,154.6107 C20.4159,151.8637 15.4249,151.9747 11.0339,150.2307 C6.8909,148.5847 4.0469,146.6247 5.3599,141.1817 C6.4769,136.5547 2.4919,133.1217 0.7959,129.1807 C-1.2871,124.3387 0.8099,119.9857 6.0019,118.7597 C18.5649,115.7947 30.1199,118.9427 41.5009,123.9327 C45.6939,125.7717 50.0699,127.2027 54.3909,128.7407 C55.4049,129.1017 57.0099,129.3857 57.4209,128.4397 C57.9599,127.1977 56.3379,126.5497 55.4719,125.9517 C47.8319,120.6797 39.1379,117.7317 30.5239,114.5357 C25.8459,112.8007 21.4149,110.4137 18.8119,105.6637 C17.0379,102.4277 13.8249,100.4697 11.0959,98.1707 C8.7289,96.1787 7.2889,93.7647 7.2179,90.9687 C7.0659,84.9567 11.5629,87.3737 14.4019,87.6787 C17.5789,88.0197 20.6569,89.2017 23.8219,89.7797 C24.9469,89.9847 26.1989,89.4947 27.9829,89.2367 C24.8349,85.5977 22.9949,81.9197 18.8969,79.6537 C15.1069,77.5567 13.1309,73.2247 12.0959,68.9567 C11.6209,66.9967 13.6499,65.6627 15.1919,64.9377 C16.3999,64.3707 18.0029,63.8777 19.5309,64.8317 C25.1779,68.3567 30.8539,71.8367 36.5619,75.2607 C37.3489,75.7317 38.3809,75.7947 40.0049,76.2397 C37.4369,71.6927 34.0309,69.3027 30.0139,67.4027 C26.6599,65.8167 23.6489,63.5027 22.5759,59.7397 C22.1519,58.2557 22.2259,56.0957 23.7549,55.1007 C26.2829,53.4557 29.1179,54.1617 31.8339,54.8857 C36.7909,56.2057 41.0079,59.0357 45.3719,61.5617 C45.9929,61.9207 46.5489,62.5537 47.3249,61.7947 C48.0869,61.0487 47.4989,60.3567 47.2559,59.6917 C46.0149,56.2927 43.3849,53.8537 41.1679,51.1527 C38.4099,47.7947 37.0399,44.3057 39.9499,40.4837 C42.6109,36.9897 46.3069,38.4967 49.4259,39.4257 C54.9039,41.0597 58.7989,44.9327 62.2079,49.4757 C64.5509,52.5987 67.5229,55.2297 71.8619,55.7877 C69.9919,52.2267 68.4689,48.5427 66.2709,45.3187 C62.9189,40.4027 60.3019,35.4297 59.9059,29.2847 C59.6649,25.5597 56.6779,22.5457 56.0529,18.7387 C55.4769,15.2267 56.5659,11.9087 59.4019,10.6507 C62.0349,9.4837 64.1409,12.7017 65.6629,14.6287 C71.1269,21.5497 76.1739,28.7967 81.5559,35.7847 C82.4839,36.9887 84.1859,37.8987 86.0199,37.0297 C87.5889,36.2867 86.6359,35.0857 86.5559,34.0207 C86.0279,27.0477 82.8389,20.6917 81.8909,13.8207 C81.3929,10.2147 81.1079,6.7117 82.8149,3.1747 C84.5269,-0.3733 87.9899,-1.2043 90.3519,1.9977 C92.9769,5.5547 94.2429,9.7457 94.9339,14.0837 C95.1189,15.2477 95.3829,16.5307 96.5429,16.7247 C97.8359,16.9407 98.5959,15.6487 99.2099,14.6647 C100.8009,12.1097 102.1459,9.3937 103.8479,6.9207 C105.0989,5.1027 107.3479,3.6567 109.2719,3.9277 C112.6459,4.4027 113.7609,7.0867 113.2759,10.4697 C113.0789,11.8507 112.7079,13.3677 113.7109,14.7187 C116.2179,14.2187 118.3169,12.9237 121.3699,13.9887 C125.9639,15.5917 124.8159,18.9727 124.5049,21.6577 C123.6049,29.4137 118.8599,35.1837 113.5629,40.5287 C113.1839,40.9117 112.8919,41.3917 112.6149,41.8597 C112.4889,42.0737 112.5009,42.3677 112.3899,42.9277 C116.9329,40.8277 121.1419,38.5027 125.6149,36.9317 C129.3849,35.6077 133.3229,34.1727 137.4849,34.8807 C139.8419,35.2817 141.5429,36.8777 142.3259,39.0307 C143.1339,41.2517 141.4869,42.8307 140.1969,44.4477 C135.7339,50.0387 129.2819,52.9047 123.5539,56.7717 C120.9569,58.5257 118.5119,60.5057 115.7189,62.5917 C121.7859,64.1537 126.0839,60.2377 131.0769,59.2767 C136.8729,58.1617 142.5709,56.9117 148.4809,58.4057 C150.6219,58.9477 152.3899,60.3317 152.5699,62.2147 C152.7789,64.3947 151.2299,66.4137 149.4779,67.8487 C143.7999,72.4997 136.8289,74.1597 129.9939,76.1597 C127.4809,76.8957 124.8179,77.4247 121.8549,80.0147 C129.9099,78.3597 136.0939,82.3117 142.9029,83.2277 C148.0579,83.9217 152.5239,87.0517 156.5019,90.4327 C160.0679,93.4637 156.1659,98.0097 152.6889,99.7287 C152.2009,99.9707 151.6499,100.0847 150.7929,100.3697 C153.4819,104.0887 153.6669,107.7857 150.1419,110.8557 C147.2499,113.3757 144.9449,117.2377 140.0879,116.2327 C139.8399,116.1817 139.2199,116.7737 139.1999,117.0927 C139.1779,117.4387 139.5849,117.9157 139.9279,118.1657 C143.5929,120.8327 147.5219,123.2007 150.8659,126.2187 C152.5509,127.7397 155.1719,129.2827 154.9149,132.1297 C154.4669,137.0767 151.2189,139.0957 146.1269,137.8037 C144.6139,137.4197 143.1999,136.9367 141.5539,136.9627 C139.6949,136.9917 137.1329,135.8897 136.5969,138.1907 C136.0799,140.4137 138.4659,141.9437 140.0829,143.5007 C142.7659,146.0837 146.8029,147.2797 147.8719,151.5557 C148.7269,154.9757 147.8689,157.1857 144.3979,158.1167 C142.6979,158.5717 141.7649,159.3747 143.2949,160.8677 C145.3819,162.9027 145.7129,165.8997 144.5159,167.5957 C143.1009,169.5987 140.3409,170.6087 137.3179,170.7957 C131.7829,171.1377 126.9749,168.5767 121.0229,168.3727" id="Fill-1" fill="#57694E" mask="url(#mask-12)"></path>
            </g>
            <g id="Group-6">
                <mask id="mask-14" fill="white">
                    <use xlink:href="#path-13"></use>
                </mask>
                <g id="Clip-5"></g>
                <path d="M54.7725,86.6261 C60.8145,91.1001 66.6515,94.5611 73.3575,97.4531 C69.3125,90.1651 62.2275,88.8931 54.7725,86.6261 M99.4995,36.0971 C100.6945,26.1551 103.9805,17.8701 105.8295,8.5121 C104.1645,10.4871 103.1385,11.8451 102.4905,13.6881 C101.4555,16.6291 99.9125,19.8831 96.9595,20.9621 C92.6405,22.5401 93.0215,18.2141 92.4615,15.9751 C91.2645,11.1851 89.8505,6.3621 88.4335,5.0941 C88.9315,16.4421 95.9895,25.0531 99.4995,36.0971 M48.4555,49.4331 C61.6135,63.6021 73.7565,78.6041 88.4795,91.5541 C87.8875,88.8491 90.6825,86.3161 88.3535,83.6521 C80.0435,74.1471 70.1115,66.4431 60.3005,58.6311 C56.4135,55.5371 53.1375,51.6041 48.4555,49.4331 M90.6765,99.2871 C95.8675,94.6721 100.4095,90.2091 105.8105,86.7931 C115.2035,80.8511 123.8155,73.5441 135.3655,71.5941 C140.0425,70.8041 144.6005,68.9061 148.8385,65.0431 C147.2775,65.4941 146.4565,65.7611 145.6195,65.9681 C138.7565,67.6631 131.7825,69.0011 125.0575,71.1281 C117.8725,73.4001 110.8055,76.1491 103.9115,79.1991 C99.4105,81.1891 93.7165,82.1871 92.3845,88.2441 C91.6225,91.7121 91.2815,95.2741 90.6765,99.2871 M130.0455,191.9961 C115.7635,174.4351 100.9655,157.2291 80.5365,146.7231 C79.9455,149.4231 83.4015,154.5791 87.5095,156.5121 C91.4415,158.3631 95.5265,160.1871 98.9195,162.8261 C106.4135,168.6541 110.7655,176.7631 113.9035,185.5951 C115.0835,188.9181 116.5365,192.1431 117.9105,195.5231 C120.2625,186.8371 126.2715,194.3711 130.0455,191.9961 M115.5885,195.5181 C113.9185,191.1091 112.4285,187.3201 111.0435,183.4941 C107.9275,174.8811 102.9475,167.4611 94.9955,162.9391 C89.2385,159.6651 83.0015,157.3841 79.7045,151.0381 C78.1775,152.7311 77.2175,155.3701 78.2955,156.4391 C80.7525,158.8721 81.5075,161.8151 82.1385,164.8011 C83.9185,173.2281 89.5995,176.7321 97.7475,174.1091 C99.2495,173.6261 100.5245,173.8621 101.7745,174.9391 C106.5935,179.0921 108.5595,185.0321 111.4945,190.3521 C112.4745,192.1271 113.1655,194.0291 115.5885,195.5181 M75.1295,143.6611 C75.3035,140.9881 78.2725,138.8751 73.8445,137.2321 C66.4835,134.5021 59.0775,135.7601 51.6595,135.9311 C41.7235,136.1591 31.8055,138.3011 21.8525,136.3891 C16.5015,135.3611 11.1525,134.2481 5.9005,132.0891 C10.4425,135.0541 8.3245,138.9471 7.4295,142.6451 C8.2545,142.4651 9.0425,142.0201 9.4335,142.2501 C16.1555,146.1921 23.2165,144.8271 30.3235,143.8531 C38.1415,142.7821 44.9795,138.4811 52.9175,137.5971 C61.0995,136.6861 68.7625,136.4601 75.1295,143.6611 M16.2955,177.1391 C19.2335,179.5451 21.0065,180.0461 24.2315,178.7881 C37.8155,173.4861 47.8505,163.1011 59.5775,155.1721 C64.1065,152.1101 66.5175,150.3041 70.0715,156.2141 C70.6085,155.1401 71.1805,154.1041 71.6565,153.0251 C72.9825,150.0201 73.9585,147.4871 69.0235,146.6831 C58.3905,144.9501 50.9835,150.5451 43.9435,157.0911 C39.3395,161.3731 35.3795,166.5021 30.3035,170.0741 C26.2565,172.9201 22.3365,176.5431 16.2955,177.1391 M86.1125,2.3081 C85.0975,3.2361 84.5425,4.1411 84.4725,5.3491 C84.1165,11.5751 85.5835,17.6061 87.5685,23.3161 C88.9545,27.3031 90.3495,31.0701 89.7475,35.2681 C89.4955,37.0221 89.2095,39.5141 88.0485,40.2301 C85.9785,41.5071 83.3355,40.8191 81.2185,39.3621 C80.2645,38.7051 79.3595,37.9091 78.6205,37.0211 C72.9785,30.2491 67.4735,23.3721 62.8385,15.7321 C64.4565,25.6571 71.2195,32.3781 76.7545,39.9071 C82.3215,47.4791 89.2935,53.9171 94.0725,62.3601 C94.4175,61.7171 94.6805,61.4291 94.7275,61.1091 C95.4195,56.3461 95.8365,51.5511 97.0945,46.8651 C97.8655,43.9931 99.2675,40.5671 98.3835,38.1101 C95.8575,31.0911 92.2295,24.4761 89.1895,17.6331 C87.0885,12.9061 85.0935,8.0951 86.1125,2.3081 M143.0515,155.5461 C124.8035,143.5691 103.6615,139.8891 83.3245,134.0401 C82.4495,136.5471 83.0595,138.9991 85.6685,140.6851 C91.3085,144.3281 97.7845,146.1441 104.1025,147.8271 C110.3785,149.4991 116.6735,150.9841 122.6915,153.4571 C129.9435,156.4361 135.3655,162.2051 142.1185,165.9741 C142.3425,164.9241 141.9445,163.9271 141.5605,162.6721 C140.9215,160.5881 134.4315,157.0941 142.3335,155.8871 C142.5225,155.8571 142.6965,155.7181 143.0515,155.5461 M148.3015,133.8841 C148.2295,133.6551 148.2265,133.4641 148.1435,133.4171 C147.7845,133.2111 147.3955,133.0611 147.0295,132.8681 C142.7545,130.6121 138.2655,130.8261 133.5965,131.2231 C128.6245,131.6461 123.5845,131.4661 118.5815,131.2951 C109.2195,130.9761 99.6445,132.2461 90.8805,127.3531 C86.3255,124.8091 85.1765,125.4941 83.9335,131.2141 C104.0545,139.2141 126.4935,141.3741 145.1775,153.9021 C144.7535,152.3001 144.3045,150.6771 143.2505,149.7201 C140.2935,147.0351 137.1685,144.5121 133.9555,142.1341 C130.3885,139.4931 130.4865,137.8021 134.4405,135.7951 C138.8305,133.5661 143.6715,135.0851 148.3015,133.8841 M82.1325,140.7711 C82.0055,141.9941 81.2175,143.2811 82.6125,144.8211 C85.2155,147.6961 88.4395,149.6661 91.7475,151.3951 C99.6075,155.5031 106.0195,161.3331 111.7065,167.9391 C118.0985,175.3621 125.5845,181.8041 131.2355,189.9451 C130.1775,187.8591 132.0555,185.8681 130.6755,183.4721 C127.7325,178.3601 122.6485,175.6441 118.9465,171.4701 C117.0835,169.3701 116.8035,167.2601 119.2565,165.1391 C122.5495,162.2901 125.0635,164.7551 127.7205,166.1401 C131.5875,168.1551 135.5145,169.2531 139.9325,167.9231 C137.6935,164.8871 134.2475,164.0781 131.8485,161.8551 C125.7625,156.2161 118.2935,153.2211 110.4745,151.3721 C100.5355,149.0221 90.6715,146.7431 82.1325,140.7711 M16.6585,68.2541 C36.3665,88.4671 60.5445,101.5891 82.0455,118.4301 C83.1475,115.7451 85.4695,112.4311 84.1085,110.4531 C81.4115,106.5311 78.3195,102.6041 73.7745,100.2371 C67.1145,96.7691 60.3895,93.3411 54.1025,89.2631 C48.6185,85.7071 44.3185,80.6201 37.6015,78.5991 C30.4185,76.4381 25.1235,70.1101 16.6585,68.2541 M15.8895,175.4811 C25.4445,171.6061 32.9435,165.2891 39.9485,158.2751 C49.4165,148.7961 59.3125,140.5471 75.1385,146.5731 C71.7335,143.6561 69.5305,140.6321 65.8125,139.8591 C58.4155,138.3201 51.1275,139.5921 44.1425,141.8971 C33.3265,145.4681 22.6415,149.2281 10.6845,145.5451 C11.1635,146.1261 11.3515,146.5941 11.6465,146.6751 C15.9515,147.8571 20.2375,149.1491 24.6005,150.0781 C27.9335,150.7871 31.0765,153.0251 30.9595,155.1221 C30.7085,159.5721 27.0775,161.1281 23.9185,162.4751 C18.9855,164.5771 14.9585,170.2501 15.8895,175.4811 M137.7405,37.8701 C137.4015,37.4011 136.6425,36.9731 135.3665,37.1391 C128.3065,38.0561 121.8935,40.7331 115.6755,44.0491 C111.9395,46.0411 108.2395,48.2311 103.7855,48.4811 C104.4485,46.6891 104.8935,45.1411 105.9395,43.7241 C110.9885,36.8851 117.6785,31.2221 121.0505,23.2021 C121.8865,21.2141 122.6565,18.6201 120.7365,16.7851 C118.8575,14.9891 116.8565,15.9811 115.0305,17.3911 C114.2265,18.0121 113.2455,18.5261 112.2655,18.7601 C111.4325,18.9591 110.0395,19.0071 109.7015,18.5401 C109.2555,17.9211 109.0265,16.9631 109.4305,15.7451 C110.1935,13.4431 111.3475,10.9961 110.4135,7.9171 C102.0945,25.4821 100.6305,44.2401 96.1605,63.0451 C109.1445,51.8081 124.0435,46.0331 137.7405,37.8701 M149.4445,61.2551 C143.0685,59.8511 137.6895,60.6081 132.2035,61.6081 C126.7865,62.5951 122.0885,66.1481 116.3475,65.8021 C115.0615,65.7241 113.2755,66.4881 112.8045,64.8231 C112.2775,62.9611 113.1165,60.9671 114.6605,59.8751 C118.5735,57.1081 122.7315,54.6901 126.6875,51.9811 C130.2455,49.5451 134.5715,48.2411 137.3535,44.6421 C138.1825,43.5691 138.6425,42.2501 138.0555,41.3251 C137.5205,40.4801 136.2635,41.3201 135.2895,41.5791 C131.1325,42.6831 127.8405,45.4541 124.1785,47.4391 C116.6555,51.5171 108.8845,55.2561 102.0805,60.5631 C99.2055,62.8051 96.4115,65.4651 95.3875,68.8621 C94.0565,73.2821 93.7975,78.0241 93.1135,82.3901 C110.5545,72.9101 129.7905,67.9771 149.4445,61.2551 M80.2255,126.8391 C80.5765,124.4501 83.4505,122.3121 79.6845,119.3421 C72.5245,113.6981 65.2765,108.2491 57.6895,103.1731 C42.2835,92.8651 27.4125,81.8291 14.6785,69.1181 C14.8035,69.8891 15.0345,71.4131 16.2785,72.7871 C20.5155,77.4671 25.1405,81.7241 29.8975,85.8531 C31.6545,87.3791 32.5055,89.2991 31.4045,91.4671 C30.5165,93.2171 28.6405,93.1771 26.9615,92.9291 C25.0185,92.6421 23.0485,92.3281 21.1895,91.7241 C17.7265,90.5991 14.2655,89.6741 10.1625,89.6331 C11.5435,91.5041 12.9265,92.4051 14.4945,93.2031 C22.1365,97.0901 29.9645,100.5581 37.7765,104.0861 C48.1145,108.7551 59.1975,111.8741 68.6295,118.4721 C72.4355,121.1341 76.1655,123.9041 80.2255,126.8391 M44.2825,43.6031 C60.0745,55.9161 76.3295,67.2641 89.8025,82.1251 C90.3505,79.3821 90.8455,76.8721 91.5645,74.3801 C92.4685,71.2501 93.8815,67.3901 92.8285,64.7351 C89.8725,57.2781 83.6925,51.8071 78.8185,45.5411 C72.1655,36.9881 65.2385,28.6541 60.3275,18.9811 C59.9395,20.5711 60.4305,22.1681 61.4055,23.4931 C63.5315,26.3811 63.5775,29.7311 63.7485,33.0431 C63.8425,34.8601 64.2745,36.4951 65.0235,38.1551 C67.4515,43.5371 70.6865,48.3511 74.6585,52.7051 C76.4475,54.6661 75.9515,57.0081 74.6595,58.7811 C73.7155,60.0771 71.5475,60.3891 70.1275,59.4611 C68.0095,58.0771 66.1925,56.2241 64.2845,54.5281 C58.5535,49.4341 53.9775,42.3191 44.2825,43.6031 M148.7305,107.7191 C145.4035,107.6941 142.2685,108.3021 139.0915,108.3751 C133.7275,108.4981 128.3745,110.3751 123.0405,110.2731 C113.6935,110.0961 104.9065,112.7951 95.9855,114.6451 C92.8125,115.3031 89.1065,116.6701 86.8765,119.6251 C85.5985,121.3171 84.9095,123.3351 87.9585,124.3741 C95.3385,126.8901 102.5315,129.6591 110.6875,129.1311 C118.5385,128.6231 126.4715,129.5181 134.3445,129.1931 C138.5095,129.0211 142.5375,128.5711 146.4575,130.3251 C148.1585,131.0851 149.8665,131.8291 152.0725,132.8011 C151.4865,131.5431 151.2155,130.7121 150.7515,130.0081 C147.6745,125.3421 142.9465,123.1101 137.8535,121.5361 C136.1075,120.9971 135.2855,119.9221 134.8435,118.2961 C134.4065,116.6921 135.5225,115.4631 136.4585,114.9911 C138.8645,113.7741 141.4825,112.9101 144.0935,112.1841 C146.4605,111.5251 148.1265,110.3891 148.7305,107.7191 M40.4055,44.7721 C40.9665,46.0461 41.0725,46.5071 41.3345,46.8481 C44.3115,50.7271 47.3405,54.5641 50.2935,58.4601 C51.9115,60.5941 51.1375,62.7941 50.0295,64.7951 C48.8545,66.9171 47.0675,67.1891 44.9885,65.9301 C39.8795,62.8351 34.7385,59.7971 29.1355,57.6431 C27.5515,57.0341 25.7225,55.8191 24.7665,58.1741 C24.0375,59.9701 25.2925,61.2891 26.8235,62.3191 C31.6575,65.5681 36.4455,68.8861 41.2515,72.1771 C42.2975,72.8941 42.9805,73.8831 42.7625,75.1491 C42.4555,76.9371 43.1375,78.2991 44.6465,78.9131 C46.0655,79.4921 51.1355,82.4971 52.5395,83.3341 C56.6165,85.7661 61.3835,85.8291 65.6555,87.6211 C72.0195,90.2911 75.2885,95.8231 79.1475,100.9021 C80.8855,103.1901 82.8265,105.3251 84.9955,107.9111 C85.7365,104.4711 86.7045,101.6751 86.8105,98.8471 C86.8735,97.1791 88.4635,95.6781 86.6245,93.5341 C80.9215,86.8881 74.2775,81.1881 68.4115,74.7481 C59.4235,64.8811 51.1565,54.3531 40.4055,44.7721 M148.6435,104.8451 C146.2385,103.3281 145.1845,101.6791 146.9995,99.6751 C148.3125,98.2251 149.7615,96.6361 151.8355,96.1101 C153.4365,95.7051 154.7355,94.8561 154.772059,93.1691 C154.8055,91.4921 153.2815,90.8801 151.9515,90.2431 C144.4705,86.6591 136.4765,84.6341 128.4615,82.7921 C124.4235,81.8641 120.0415,80.1341 116.0915,82.6161 C110.5745,86.0831 104.7835,89.2591 100.0345,93.7791 C96.4105,97.2281 91.6365,99.5911 89.6385,104.6641 C88.2945,108.0721 89.6325,111.8001 87.6305,115.6551 C107.3435,106.4441 128.3015,107.7261 148.6435,104.8451 M11.6005,94.3671 C13.8375,95.8691 16.1055,97.3261 18.3005,98.8871 C19.9365,100.0511 22.4455,100.5531 22.2245,103.3141 C21.8305,108.2361 25.9465,109.2271 28.9755,111.1411 C32.1275,113.1341 35.8665,113.6151 39.2415,114.9721 C44.4125,117.0511 49.2855,119.8141 54.5865,121.6911 C57.3275,122.6621 60.5905,123.5841 61.7725,126.8251 C62.3275,128.3441 61.7005,130.0181 60.4775,131.0491 C58.2785,132.9031 55.6065,132.5741 53.1615,131.7531 C44.6375,128.8911 36.8875,124.1671 28.1965,121.5931 C21.1295,119.5011 14.1795,119.1561 7.2245,121.2301 C5.5935,121.7161 2.6725,123.2261 4.0485,125.8211 C6.3745,130.2091 11.0385,131.7611 15.4225,133.0091 C26.8015,136.2491 38.4455,134.6111 49.9705,134.0621 C59.3105,133.6161 68.6865,131.5231 77.2675,136.3941 C77.8245,134.9941 78.4705,133.8261 78.7345,132.5781 C78.9735,131.4481 80.3295,130.3831 79.1005,129.0751 C75.1865,124.9081 70.5075,121.7171 65.6425,118.8331 C54.7165,112.3571 42.6485,108.3641 31.0695,103.3211 C24.5585,100.4851 18.2305,97.3511 11.6005,94.3671 M121.0225,168.3731 C123.1585,170.7981 125.2125,173.3011 127.4455,175.6331 C131.8635,180.2481 136.1585,184.8221 135.0795,192.0401 C134.8125,193.8231 133.9125,195.0771 133.2835,195.9151 C129.1685,197.0741 126.0675,195.0401 122.6835,194.0241 C120.4525,193.3551 121.0455,196.0231 120.2155,197.0701 C117.7445,200.1881 114.1835,199.4271 111.5165,195.2861 C109.1125,191.5511 108.0885,187.1351 105.2545,183.5471 C102.1605,179.6281 99.1405,177.2401 93.5195,177.0961 C85.3485,176.8871 82.7975,174.7391 81.4215,168.6691 C80.9625,166.6461 79.7855,164.7711 78.8265,162.8841 C78.4155,162.0751 77.6085,160.7361 77.1815,160.8091 C76.0595,161.0011 76.1185,162.3681 75.9005,163.3281 C73.2095,175.1341 72.1765,187.3361 67.7465,198.7131 C66.6495,201.5281 65.9955,205.4321 61.6405,205.392405 C56.4755,205.3431 58.3755,201.7151 59.2425,199.5091 C63.4975,188.6911 66.6755,177.6351 67.7455,166.0301 C67.8565,164.8211 69.1265,159.7521 67.4885,158.0701 C65.4355,155.9611 63.0065,156.2611 61.0725,158.1601 C56.3435,162.8021 50.5345,165.9211 45.2805,169.8131 C39.2205,174.3021 32.4515,177.4221 25.7805,180.7581 C22.4555,182.4211 18.7705,183.5331 15.5825,181.0071 C11.0885,177.4461 11.8235,172.4651 13.3515,167.7791 C15.0665,162.5201 19.6675,160.1411 24.2955,157.9591 C25.1335,157.5641 26.1725,157.1351 26.0945,156.1971 C26.0455,155.6231 25.1035,155.0441 24.4645,154.6111 C20.4165,151.8631 15.4245,151.9741 11.0345,150.2311 C6.8905,148.5851 4.0475,146.6251 5.3605,141.1821 C6.4775,136.5541 2.4925,133.1211 0.7965,129.1811 C-1.2875,124.3391 0.8095,119.9861 6.0015,118.7601 C18.5645,115.7941 30.1195,118.9431 41.5005,123.9331 C45.6945,125.7721 50.0695,127.2031 54.3905,128.7401 C55.4055,129.1021 57.0095,129.3851 57.4205,128.4391 C57.9605,127.1981 56.3375,126.5501 55.4715,125.9521 C47.8325,120.6801 39.1375,117.7321 30.5235,114.5361 C25.8465,112.8001 21.4155,110.4141 18.8115,105.6641 C17.0385,102.4281 13.8255,100.4691 11.0955,98.1711 C8.7295,96.1791 7.2895,93.7651 7.2185,90.9681 C7.0665,84.9571 11.5635,87.3741 14.4015,87.6781 C17.5795,88.0201 20.6575,89.2011 23.8215,89.7791 C24.9465,89.9851 26.1985,89.4951 27.9825,89.2371 C24.8355,85.5981 22.9945,81.9201 18.8975,79.6531 C15.1065,77.5571 13.1315,73.2241 12.0965,68.9571 C11.6205,66.9971 13.6505,65.6631 15.1915,64.9381 C16.3995,64.3701 18.0035,63.8781 19.5315,64.8321 C25.1775,68.3561 30.8535,71.8361 36.5625,75.2601 C37.3485,75.7321 38.3815,75.7941 40.0055,76.2401 C37.4365,71.6921 34.0305,69.3031 30.0145,67.4031 C26.6595,65.8161 23.6495,63.5031 22.5755,59.7391 C22.1515,58.2551 22.2255,56.0961 23.7555,55.1001 C26.2825,53.4551 29.1175,54.1621 31.8345,54.8851 C36.7905,56.2061 41.0075,59.0351 45.3725,61.5621 C45.9925,61.9211 46.5495,62.5541 47.3255,61.7951 C48.0875,61.0491 47.4995,60.3561 47.2565,59.6921 C46.0155,56.2931 43.3845,53.8541 41.1675,51.1531 C38.4095,47.7941 37.0405,44.3061 39.9505,40.4841 C42.6115,36.9891 46.3065,38.4961 49.4255,39.4261 C54.9035,41.0591 58.7985,44.9321 62.2075,49.4751 C64.5515,52.5981 67.5225,55.2301 71.8615,55.7871 C69.9925,52.2261 68.4685,48.5431 66.2705,45.3191 C62.9185,40.4031 60.3025,35.4291 59.9055,29.2851 C59.6655,25.5601 56.6775,22.5461 56.0525,18.7381 C55.4765,15.2271 56.5655,11.9091 59.4015,10.6511 C62.0355,9.4831 64.1405,12.7011 65.6625,14.6291 C71.1265,21.5491 76.1735,28.7971 81.5565,35.7841 C82.4835,36.9891 84.1855,37.8991 86.0195,37.0301 C87.5895,36.2861 86.6365,35.0861 86.5555,34.0211 C86.0285,27.0481 82.8395,20.6921 81.8905,13.8211 C81.3935,10.2151 81.1075,6.7111 82.8145,3.1741 C84.5265,-0.3729 87.9895,-1.2039 90.3525,1.9981 C92.9765,5.5541 94.2425,9.7451 94.9335,14.0841 C95.1185,15.2471 95.3825,16.5311 96.5435,16.7251 C97.8355,16.9411 98.5965,15.6491 99.2105,14.6641 C100.8005,12.1101 102.1455,9.3941 103.8475,6.9201 C105.0995,5.1031 107.3475,3.6571 109.2715,3.9281 C112.6455,4.4021 113.7615,7.0861 113.2765,10.4701 C113.0785,11.8511 112.7075,13.3671 113.7105,14.7181 C116.2185,14.2181 118.3175,12.9241 121.3695,13.9891 C125.9645,15.5911 124.8165,18.9731 124.5045,21.6571 C123.6045,29.4131 118.8595,35.1841 113.5635,40.5281 C113.1845,40.9111 112.8915,41.3921 112.6155,41.8601 C112.4895,42.0731 112.5005,42.3681 112.3895,42.9271 C116.9325,40.8281 121.1415,38.5021 125.6155,36.9321 C129.3845,35.6081 133.3235,34.1731 137.4855,34.8801 C139.8425,35.2811 141.5435,36.8771 142.3265,39.0301 C143.1345,41.2521 141.4875,42.8311 140.1965,44.4481 C135.7345,50.0381 129.2815,52.9041 123.5545,56.7721 C120.9575,58.5261 118.5125,60.5051 115.7185,62.5921 C121.7855,64.1541 126.0845,60.2381 131.0775,59.2761 C136.8725,58.1611 142.5705,56.9111 148.4805,58.4061 C150.6215,58.9481 152.3905,60.3321 152.5705,62.2141 C152.7785,64.3951 151.2295,66.4131 149.4785,67.8481 C143.8005,72.5001 136.8285,74.1591 129.9945,76.1601 C127.4805,76.8961 124.8175,77.4241 121.8555,80.0141 C129.9095,78.3591 136.0945,82.3121 142.9025,83.2281 C148.0585,83.9221 152.5235,87.0511 156.5015,90.4321 C160.0685,93.4641 156.1665,98.0101 152.6885,99.7291 C152.2005,99.9701 151.6495,100.0851 150.7935,100.3701 C153.4825,104.0891 153.6665,107.7851 150.1425,110.8561 C147.2505,113.3761 144.9445,117.2371 140.0875,116.2321 C139.8405,116.1811 139.2205,116.7731 139.2005,117.0931 C139.1785,117.4391 139.5845,117.9161 139.9275,118.1661 C143.5925,120.8331 147.5215,123.2011 150.8655,126.2191 C152.5505,127.7391 155.1715,129.2821 154.9145,132.1301 C154.4675,137.0771 151.2185,139.0951 146.1265,137.8031 C144.6145,137.4201 143.2005,136.9371 141.5535,136.9621 C139.6955,136.9921 137.1325,135.8891 136.5975,138.1901 C136.0795,140.4141 138.4655,141.9431 140.0835,143.5011 C142.7655,146.0841 146.8035,147.2791 147.8725,151.5561 C148.7275,154.9761 147.8685,157.1861 144.3975,158.1171 C142.6975,158.5721 141.7645,159.3751 143.2945,160.8671 C145.3815,162.9031 145.7135,165.9001 144.5155,167.5961 C143.1015,169.5991 140.3415,170.6091 137.3175,170.7951 C131.7825,171.1371 126.9745,168.5771 121.0225,168.3731" id="Fill-4" fill="#8DA082" mask="url(#mask-14)"></path>
            </g>
        </g>
        <g id="Group-119" transform="translate(365.000000, -43.000000)">
            <path d="M25.6863337,50 C24.252715,48.8964042 20.7738993,50.6372533 21.0115977,47.3582064 C21.2096798,44.6089832 22.0589565,41.2249482 25.624433,41.0076472 C28.2663521,40.8465027 29.8113919,43.2587874 29.9871897,45.7223454 C30.1753677,48.3323983 28.2688281,49.5849308 25.6863337,50" id="Fill-1" fill="#DE8478"></path>
            <path d="M31.9531817,88.1448878 C31.6350121,90.1223217 30.7224327,92.2418914 27.8564399,91.9775686 C25.8684966,91.7930414 23.7522989,90.4215551 24.0236063,88.4092107 C24.3393095,86.0652159 25.4048076,83.504277 28.9688003,84.0827948 C31.2502489,84.4543429 32.2343548,85.4118897 31.9531817,88.1448878" id="Fill-3" fill="#DE8478"></path>
            <path d="M37.087551,86 C35.6520005,85.8603335 33.601214,85.9844815 34.0675238,83.6489473 C34.6290486,80.8426853 36.335596,78.4787005 39.2213456,78.0415961 C41.816567,77.6484607 42.0094386,80.1262479 41.999673,81.921221 C41.9801417,85.1594146 39.7071866,85.8732656 37.087551,86" id="Fill-7" fill="#DE8478"></path>
            <path d="M76.497471,57 C74.0862,56.4214543 71.6234611,56.229416 72.0480713,53.5092786 C72.3620254,51.5086771 73.4248375,48.8711891 75.6688379,49.0048867 C78.5639072,49.1750472 79.8866321,51.958387 79.9972881,54.4986404 C80.0899303,56.6548172 77.7867419,56.623216 76.497471,57" id="Fill-13" fill="#DE8478"></path>
            <path d="M74.7756886,38 C76.8492673,38.1537204 78.3170545,39.0314144 77.9411286,40.5463042 C77.4598476,42.4926029 78.2835325,45.6984172 75.3335914,45.9785851 C73.7029827,46.1323055 71.0786845,45.4876715 71.0020626,43.0926084 C70.9182575,40.4496091 73.4084675,39.3487726 74.7756886,38" id="Fill-23" fill="#DE8478"></path>
            <path d="M74.0844779,84 C76.1531104,84.4694817 77.0095968,86.1566031 76.999919,88.0495936 C76.9829828,91.0246514 74.4909461,91.582004 72.3836024,91.9560831 C70.2907754,92.3276515 69.8794684,90.2589192 70.0270551,88.8630271 C70.2762587,86.5030656 71.5464716,84.6226281 74.0844779,84" id="Fill-27" fill="#DE8478"></path>
            <path d="M67,79.2659236 C66.7033728,82.3130772 65.5451143,84.0486982 63.1367841,83.9989595 C61.5971477,83.9675455 59.6784878,83.7502656 60.0457405,81.072226 C60.384743,78.614084 61.1474986,76.2763622 63.7724137,76.0171971 C66.0324304,75.7920637 66.5456425,77.8261173 67,79.2659236" id="Fill-31" fill="#DE8478"></path>
            <path d="M24,56.5201465 C26.6620663,55.3520431 29.4075591,53.7507359 31.2758089,56.5846114 C32.4564214,58.3793132 32.2794559,61.4246335 30.1053087,62.4173924 C24.2174147,65.1017094 26.9704918,57.7063 24,56.5201465" id="Fill-33" fill="#DE8478"></path>
            <path d="M15.9536133,62.9982549 C13.5688413,63.0336558 11.7603449,62.542764 12.0259097,60.3951124 C12.2489841,58.6038293 12.5835958,56.0880088 15.0294478,56.0030468 C17.4328093,55.9180848 19.7193224,57.6196856 19.9795759,59.8995004 C20.2557633,62.3279988 17.669162,62.625366 15.9536133,62.9982549" id="Fill-35" fill="#DE8478"></path>
            <path d="M88.5346865,67 C90.6459621,67.369277 92.0435671,68.6577617 91.9989627,70.8548273 C91.9543582,73.0943996 90.9061545,74.8717115 88.4479557,74.9939183 C86.4506691,75.092215 84.9167729,73.9950106 85.0035037,71.9892252 C85.1001466,69.7496528 86.2375591,67.7279274 88.5346865,67" id="Fill-44" fill="#DE8478"></path>
            <path d="M96.995006,58.4318259 C97.0641579,62.0834797 96.4338117,63.9341035 93.9337042,63.996748 C91.9309586,64.0463416 89.9920455,63.5530159 90,60.8305892 C90.0053439,58.2517229 91.4947696,56.2966916 93.6783741,56.0226218 C95.6944182,55.7668233 96.9418122,57.7505666 96.995006,58.4318259" id="Fill-46" fill="#DE8478"></path>
            <path d="M52.9838108,94.93245 C53.0173093,97.4756987 51.0254397,98.6142019 48.5336702,98.9666561 C46.7299074,99.2202203 45.7636059,97.9980409 46.0496311,96.3067679 C46.459343,93.8750874 47.0030486,91.194914 50.1982856,91.0072766 C52.4401052,90.8754232 53.1178046,92.5489468 52.9838108,94.93245" id="Fill-48" fill="#DE8478"></path>
            <path d="M56.3869387,69 C58.3982262,69.4305796 59.9543145,70.621144 59.9988448,72.4164022 C60.0507969,74.4728316 58.3438002,75.7316299 56.2063434,75.973978 C54.0960997,76.2139732 53.0150018,74.7575317 53.0001583,73.1058001 C52.9828409,71.1152518 54.3880209,69.7364558 56.3869387,69" id="Fill-62" fill="#DE8478"></path>
            <path d="M58.0817721,94.9986368 C57.6935303,91.5231075 58.6215878,88.8505536 62.2965892,88.0693456 C64.0915429,87.6896253 66.2747384,88.9061815 65.9715907,90.8168761 C65.3679544,94.6237537 61.9322801,95.02766 58.0817721,94.9986368" id="Fill-64" fill="#DE8478"></path>
            <path d="M21.7287789,73 C19.738413,72.841441 18.0628499,72.4987489 18.0019203,69.8390493 C17.938452,67.1537757 19.454075,66.1691753 21.680543,66.0131737 C25.0367466,65.78045 24.6153171,68.683103 24.9453523,70.6088278 C25.374398,73.1074109 23.1809336,72.670095 21.7287789,73" id="Fill-70" fill="#DE8478"></path>
            <g id="Group-74" transform="translate(91.000000, 46.000000)">
                <mask id="mask-16" fill="white">
                    <use xlink:href="#path-15"></use>
                </mask>
                <g id="Clip-73"></g>
                <path d="M3.68782863,6.9100167 C1.38470624,6.90294304 -0.254053924,6.45966026 0.0325337034,4.46017197 C0.358201462,2.16123202 2.09596462,0.395174554 4.46682591,0.0320599354 C6.31401343,-0.253244408 7.22588316,1.4137818 6.95232224,3.11853419 C6.63707585,5.07322263 6.74650022,7.49948848 3.68782863,6.9100167" id="Fill-72" fill="#DE8478" mask="url(#mask-16)"></path>
            </g>
            <path d="M54,83.3883864 C53.7653742,86.5628572 51.8012903,86.9580621 49.8759075,86.9991224 C47.9166612,87.0401827 46.8402851,85.6364352 47.019278,83.6270491 C47.2272968,81.3020122 48.8140444,79.9598552 50.8869753,80.0009155 C52.9332992,80.044542 53.7919813,81.7665064 54,83.3883864" id="Fill-75" fill="#DE8478"></path>
            <path d="M6.72625586,44.4087549 C7.28236906,46.3865715 7.19098895,47.9924479 4.52791165,48 C2.13114208,48.0050135 0.851820634,46.5247924 1.01369396,44.4615302 C1.17295643,42.4837137 2.06587058,40.040972 4.41303381,40.0007623 C7.36591658,39.9505001 7.10483057,42.3957549 6.72625586,44.4087549" id="Fill-77" fill="#DE8478"></path>
            <path d="M17,48.9365365 C16.6588128,50.7724793 16.8148597,52.989367 14.2943065,53 C11.4246315,53.013176 10.9088835,50.4629616 11.0120331,48.5264917 C11.0993135,46.8889577 11.0437714,43.8546258 13.4823339,44.0054165 C15.8389057,44.1482708 16.6508783,46.7408125 17,48.9365365" id="Fill-79" fill="#DE8478"></path>
            <path d="M5.51672379,67.9711663 C4.06060774,68.2063686 2.84993102,66.9838336 3.01513058,64.9910755 C3.18269012,62.9828096 3.18505012,59.9768724 5.81644298,60.0001342 C8.57999549,60.023396 8.24015641,63.4015215 8.86555471,65.3089863 C9.51927294,67.304329 7.6902779,67.8419343 5.51672379,67.9711663" id="Fill-81" fill="#DE8478"></path>
            <path d="M71.1543713,79 C71.1867651,75.3156935 69.9358693,71.9174439 74.0498712,71.1069494 C75.7791972,70.7652704 78.178824,71.1811123 77.9894454,73.2497273 C77.6580327,76.8651682 74.421153,77.5882564 71.1543713,79" id="Fill-85" fill="#DE8478"></path>
            <path d="M38.6717915,88 C40.8990143,88.4422224 41.9167167,89.8331662 41.9966409,91.9877151 C42.0818935,94.3325224 40.5340269,95.1501197 38.5332561,94.9778586 C36.6603641,94.8184528 34.9633055,93.8851578 35.0006035,91.7357511 C35.0352374,89.568347 36.3300105,88.2776746 38.6717915,88" id="Fill-87" fill="#DE8478"></path>
            <path d="M3.01385941,50 C5.30038871,50.6255842 7.11995076,51.4185058 6.99381592,53.8230149 C6.88915085,55.8362119 5.88007219,57.0152966 3.50229642,56.9998501 C1.14062296,56.9818292 -0.00800913147,55.7049164 0,53.7972706 C0.00809318755,51.9771552 1.30432987,50.6410308 3.01385941,50" id="Fill-91" fill="#DE8478"></path>
            <path d="M69.9960044,68.5653458 C69.8600943,71.450207 67.7393845,72.5446431 65.4545568,72.9508523 C63.0748485,73.3725853 63.2261446,70.9793148 63.0440764,69.6287341 C62.6773757,66.9586204 64.6570468,66.1643134 66.8162218,66.0194235 C68.480479,65.9081687 70.090885,66.2134724 69.9960044,68.5653458" id="Fill-93" fill="#DE8478"></path>
            <path d="M38,66.1302215 C37.5591252,69.0461894 35.0931333,69.309002 33.1019295,69.8997045 C31.5273767,70.3677611 30.8345735,69.1287877 31.0332094,67.6119837 C31.3214736,65.3618077 32.3025412,63.4119888 34.6425689,63.0390453 C36.6725309,62.7161613 37.4040923,64.4532271 38,66.1302215" id="Fill-95" fill="#DE8478"></path>
            <path d="M33,76.5336473 C32.8288218,78.4249025 32.4738788,80.097114 30.3870152,79.995606 C28.2774957,79.8940979 26.8753449,78.5771646 27.0087632,76.2932335 C27.1220429,74.3458817 27.7538918,72.035238 29.9716563,72.0005116 C32.6903689,71.9551001 32.1541783,74.9442449 33,76.5336473" id="Fill-97" fill="#DE8478"></path>
            <path d="M50,71.7046033 C49.151336,73.8357333 47.3659621,74.8449689 45.2724279,74.9928336 C43.6876028,75.1031454 42.7777959,73.9272686 43.0468248,72.3406564 C43.3965624,70.2658558 44.7196957,68.9632378 46.9501901,69.0007908 C48.6255067,69.0289555 49.679611,70.0499264 50,71.7046033" id="Fill-99" fill="#DE8478"></path>
            <path d="M18.0101011,78 C19.3916683,80.419789 22.645857,81.9875058 19.9844955,84.8572654 C19.0125643,85.9056013 17,86.6954434 15.8754144,85.0702835 C14.1071101,82.5140672 15.1172062,80.2378859 18.0101011,78" id="Fill-101" fill="#DE8478"></path>
            <path d="M13.9323045,74.0030285 C14.1784893,76.1069634 13.8430021,77.8606685 11.4101164,77.9936024 C8.88551484,78.1316491 9.15583547,76.0072629 9.02067515,74.3660404 C8.83241614,72.0422533 9.93783444,70.0789216 12.0086836,70.002229 C14.3136497,69.9153107 13.746459,72.3899266 13.9323045,74.0030285" id="Fill-105" fill="#DE8478"></path>
            <path d="M85.9457057,52 C83.6430405,51.8434223 82.2476353,50.675303 82.0257511,48.6273662 C81.8260553,46.7757729 82.7924844,45.2075107 84.7623231,45.0186233 C87.1562073,44.7924555 87.9648521,46.6639317 87.996902,48.5851151 C88.016625,49.9818875 88.0042981,51.8682759 85.9457057,52" id="Fill-107" fill="#DE8478"></path>
            <path d="M81.9547999,83.9845443 C80.5650631,84.1181551 79.8689735,83.3807264 80.0204036,81.9572576 C80.3012818,79.3852498 81.8693152,77.5609487 84.062608,77.0547693 C85.8358046,76.6462286 86.0287558,78.6092795 85.9970043,80.0841371 C85.9383862,82.8077416 84.2995227,83.8201003 81.9547999,83.9845443" id="Fill-111" fill="#DE8478"></path>
            <path d="M84.3436596,55 C86.2736124,55.2140584 87.1329517,56.3366207 86.9833982,58.1436722 C86.8290969,60.0204171 86.3424545,61.892184 84.106273,61.9967241 C82.2855181,62.0813519 81.8368574,60.5107603 82.0481315,59.0870228 C82.2878919,57.4790954 81.8463529,55.1592993 84.3436596,55" id="Fill-113" fill="#DE8478"></path>
            <path d="M72.7950427,60 C74.2692093,60.4805869 75.1139302,61.3950009 74.987573,63.1562868 C74.8331365,65.3695843 73.6912424,66.710032 71.8052451,66.9801998 C70.5720931,67.1542502 69.8350098,66.1619032 70.0315653,64.748718 C70.310019,62.7354486 70.5533735,60.6156708 72.7950427,60" id="Fill-115" fill="#DE8478"></path>
            <path d="M80.6306035,70 C79.58859,69.5550328 78.1763874,69.423731 78.0141441,67.9696851 C77.8724668,66.6882768 78.8139352,66.075535 79.9953408,66.0050211 C81.3092833,65.9272126 81.8005836,66.7612222 81.965112,67.9842742 C82.1136446,69.1003395 81.809724,69.8565406 80.6306035,70" id="Fill-117" fill="#DE8478"></path>
        </g>
    </g>
</svg>