<?xml version="1.0" encoding="UTF-8"?>
<svg width="600px" height="400px" viewBox="0 0 600 400" version="1.1" xmlns="http://www.w3.org/2000/svg" xmlns:xlink="http://www.w3.org/1999/xlink">
    <title>floral-02</title>
    <defs>
        <polygon id="path-1" points="0 0 149 0 149 343 0 343"></polygon>
        <polygon id="path-3" points="-2.91618918e-15 0 149 0 149 343 -2.91618918e-15 343"></polygon>
        <polygon id="path-5" points="0 0 32 0 32 10 0 10"></polygon>
        <polygon id="path-7" points="0 0 420 0 420 308 0 308"></polygon>
        <polygon id="path-9" points="5.68434189e-14 0 81 0 81 82 5.68434189e-14 82"></polygon>
    </defs>
    <g id="floral-02" stroke="none" stroke-width="1" fill="none" fill-rule="evenodd">
        <rect fill="#FFFAF7" x="0" y="0" width="600" height="400"></rect>
        <path d="M99.5112351,484.391189 C60.158736,462.817279 25.1802422,436.319711 2.14510503,396.69432 C-7.34222839,380.371152 -5.76874775,361.855175 -6.20421287,344.097875 C-6.79257464,320.05633 -4.75072707,295.732216 -10.5820889,272.250001 C-15.9160528,250.768991 -29.5238539,233.73166 -43.8361409,216.940125 C-64.6184718,192.563755 -83.57572,166.44746 -92.0818054,134.861723 C-100.566601,103.365015 -80.5042394,66.7182061 -39.8066369,71.3496195 C-18.188213,73.811449 2.21090865,80.6724439 23.0900096,85.8031907 C41.2924516,90.2778368 53.398382,86.0180202 65.5468911,71.6863792 C76.5612556,58.6921001 87.029837,45.1539733 103.73815,37.9910559 C132.517556,25.6528775 148.414936,37.1278673 162.903344,62.0945342 C167.178644,69.4606686 167.774747,79.0602553 172.400355,86.0973716 C178.628474,95.5711572 189.84799,98.9116585 200.132709,102.881165 C240.859342,118.600488 284.266505,110.965333 326.045997,117.419894 C352.56679,121.515201 378.137302,129.972902 404.360044,135.316543 C433.9349,141.34338 454.852708,158.347809 471.433285,182.400967 C475.979541,188.992941 475.958251,196.248758 473.99382,202.647192 C466.805742,226.061667 480.307096,242.11775 492.529151,258.729293 C517.987409,293.326513 552.551727,318.349306 584.224557,346.51132 C613.480072,372.523103 643.21363,398.304573 668.290615,428.578108 C679.678511,442.325258 689.152297,457.640083 693.665651,475.405124 C696.473917,486.460132 686.543377,495.173305 671.365966,494.517205 C662.691501,494.145608 654.040261,493.297902 645.371602,492.725024 C639.226705,492.316654 630.488372,492.934047 628.895537,497.1029 C626.609829,503.096835 628.357496,511.107458 633.159224,517.347189 C642.147224,529.031202 655.540196,536.946991 660.703845,552.023761 C665.426222,565.811554 647.885687,584.68558 634.808186,584.960407 C605.893302,585.571994 578.339004,579.040017 551.934335,569.405593 C530.766859,561.683345 509.537451,553.020492 490.289892,540.411358 C473.744153,529.571179 456.033303,520.521246 439.359827,509.862995 C423.816626,499.928585 409.82368,487.298161 393.641796,478.689499 C348.092144,454.46022 301.625113,432.292142 248.345472,430.958651 C240.667738,430.767046 237.956241,433.194039 238.380094,440.324054 C240.718058,479.645587 218.426115,506.021225 177.217567,504.962561 C155.028199,504.393554 120.161959,495.459745 99.5112351,484.391189" id="Fill-1" fill="#FFFFFF"></path>
        <g id="Group-7" transform="translate(-29.930954, 170.759606) rotate(-330.000000) translate(29.930954, -170.759606) translate(-104.430954, -0.740394)">
            <g id="Group-3">
                <mask id="mask-2" fill="white">
                    <use xlink:href="#path-1"></use>
                </mask>
                <g id="Clip-2"></g>
                <path d="M114.489125,0.0881314303 C113.866508,7.61416114 113.360632,14.6979396 115.216809,22.0377583 C119.75802,40.0110035 130.155722,54.6014147 141.176041,68.7573334 C146.032452,74.9954034 147.293252,81.9938351 148.020935,88.9612317 C149.522998,103.408105 148.908164,117.963602 148.686357,132.51134 C148.480115,145.976726 146.904116,159.155037 144.927307,172.341106 C144.117905,177.737347 142.203359,183.009447 140.444466,188.223357 C131.774526,213.935998 117.757864,236.126148 96.8807417,253.831714 C89.5338626,260.058146 83.4244346,267.727714 74.8284304,272.526527 C73.7427422,273.127834 72.8555132,274.380879 72.2718099,275.529181 C62.0025229,295.682647 48.6318255,313.869259 36.0277253,332.544675 C33.7279342,335.954664 30.5214573,338.48791 27.2721755,340.912533 C25.8440481,341.975488 24.1551998,344.15183 22.2795665,342.243167 C20.3377801,340.264674 21.3573152,338.006865 22.9839018,336.036132 C29.4980308,328.145439 36.1833795,320.386645 42.4017655,312.270947 C52.4103317,299.205139 61.1425333,285.297502 68.9797232,270.819593 C72.7582293,263.82892 70.9176182,257.284378 67.8862523,250.863976 C63.1115592,240.74263 55.7880282,232.685123 47.4021572,225.279354 C38.2730373,217.221847 28.7859128,209.641506 19.2676574,202.061165 C9.82722904,194.546773 5.43388874,183.602995 0.752588143,173.054915 C-1.1386106,168.783699 1.02887438,163.938333 1.84995038,159.496424 C4.23535127,146.59355 5.5078245,133.112646 11.6639488,121.4473 C26.303228,93.7018546 39.6661426,64.695605 66.2246435,45.6012142 C76.0580987,38.5368327 87.3352468,33.60224 95.6238339,24.2334968 C100.986122,18.1699997 104.519472,11.1909649 108.165672,4.17313621 C109.325296,1.94636248 110.317592,-0.49765748 114.489125,0.0881314303" id="Fill-1" fill="#E5873B" mask="url(#mask-2)"></path>
            </g>
            <g id="Group-6">
                <mask id="mask-4" fill="white">
                    <use xlink:href="#path-3"></use>
                </mask>
                <g id="Clip-5"></g>
                <path d="M96.9133343,32.0477052 C97.1156852,36.2878901 97.2985792,40.5280749 99.9135748,45.4355167 C100.174296,39.8957326 98.7111438,35.9232264 96.9133343,32.0477052 M104.423664,21.8332433 C98.2675285,25.9764432 99.0808233,30.1894723 102.58305,36.055126 C103.267929,30.7364677 103.793263,26.6941323 104.423664,21.8332433 M110.922239,29.7588588 C109.248954,35.938744 107.676843,41.7656037 106.09695,47.5963429 C109.544697,42.0759558 115.945988,37.207308 110.922239,29.7588588 M103.454715,74.1547196 C108.649684,63.7424083 113.081946,54.6684903 117.704884,45.6954366 C119.078535,43.0225296 117.54923,41.5173221 116.358473,39.531069 C110.786042,45.9282006 104.75443,61.72512 103.454715,74.1547196 M81.184447,48.0347152 C83.9161835,65.9381491 90.2629958,82.9570797 94.9365222,101.938987 C97.5203869,96.15868 97.2246433,91.4374495 96.4658276,87.3718376 C93.8780716,73.4525481 85.13418,61.7173612 81.184447,48.0347152 M94.6758009,199.121852 C103.135623,188.97334 110.447493,177.955842 119.697262,168.404758 C128.939248,158.869191 136.690842,148.138769 143.247788,136.539361 C125.304715,156.056626 106.563913,174.960945 94.6758009,199.121852 M92.6834233,32.9710025 C87.8814819,36.7456593 81.2506002,38.9995911 83.9317489,46.7273572 C87.2432985,56.2706827 91.2980982,65.5075356 96.5475463,75.1827608 C101.240529,60.0065455 97.4153201,46.5993369 92.6834233,32.9710025 M120.339337,47.3092673 C111.786122,65.7868525 100.1276,82.2471494 100.84361,103.188154 C107.18264,91.4025349 113.899132,79.958303 122.460129,69.6972883 C130.554163,59.9949073 130.484119,57.8728752 120.339337,47.3092673 M133.737298,189.923793 C132.853959,190.637603 132.134057,190.994508 131.741029,191.572539 C119.743958,209.122947 106.606718,225.699626 91.2008141,240.460745 C85.7762548,245.659142 81.1688816,251.586866 80.4917845,260.292241 C104.808909,241.519822 122.907636,218.767137 133.737298,189.923793 M100.497279,129.81636 C106.15532,113.04959 116.078295,98.7966725 126.46045,84.7454834 C129.651367,80.4315899 132.071795,75.5163893 133.787886,70.3412688 C134.784074,67.3269745 134.426069,64.8480375 131.11452,62.8656638 C117.533664,83.8687388 97.0456407,101.298886 100.497279,129.81636 M75.9583471,45.7458688 C70.6193977,81.188073 83.2624346,112.386213 97.049532,143.297277 C96.6720699,133.486273 97.5437351,123.314484 95.6603156,113.678053 C91.1580092,90.6460517 80.5462635,69.278313 75.9583471,45.7458688 M69.5726212,48.4071376 C63.5332266,55.518079 53.3923358,56.8564722 55.4080616,67.524824 C56.6610804,74.1469608 57.9063164,80.7341831 60.4746156,87.0808826 C71.3237344,113.8953 86.73353,138.758378 94.8859345,166.818083 C95.6486415,160.874841 95.6369674,155.063499 94.3061214,149.186207 C90.7766556,133.622052 83.2896741,119.578622 77.5226749,104.871814 C72.3588368,91.6973693 68.304037,78.3211959 69.4831199,63.874308 C69.8411252,59.4944646 69.5570558,55.0603097 69.5726212,48.4071376 M96.4230226,186.90562 C111.190743,166.302123 126.845695,148.259031 143.041546,130.65819 C143.917102,129.707737 144.944422,128.39262 144.956096,127.240438 C145.068946,116.021211 146.146853,104.755432 143.850949,92.1551386 C140.804012,98.9246927 138.691002,104.542065 135.850308,109.771497 C126.26199,127.446046 115.078215,144.154625 103.9567,160.88648 C99.045801,168.276738 96.0611259,176.237268 96.4230226,186.90562 M137.850468,73.3788395 C118.685508,100.181619 98.0223726,126.227914 99.9836194,161.844692 C106.003557,152.60008 111.965125,143.611509 117.751581,134.514314 C126.549951,120.676492 135.107058,106.71065 139.947912,90.8555394 C141.916942,84.3924579 143.045437,78.1466229 137.850468,73.3788395 M87.9009387,237.271878 C112.482676,211.749301 139.274707,187.561238 143.146612,149.124137 C119.230298,175.034654 98.3064421,202.82668 87.9009387,237.271878 M25.464027,107.602912 C21.0590046,112.525871 20.9850687,118.209193 24.6390581,126.619734 C30.1881411,139.39848 38.9826204,149.810791 47.9561024,160.23474 C62.6537787,177.304103 79.6006625,192.798429 87.4923457,215.244641 C91.6833431,201.317593 89.3679824,194.982532 79.4294425,179.317512 C63.3308757,153.938473 37.9786489,135.546235 25.464027,107.602912 M75.6664949,253.301562 C80.4801104,246.807445 80.9665307,241.27154 77.2619536,234.269222 C70.6466373,221.773673 59.9492817,212.606649 50.7189698,202.271926 C41.231828,191.650127 30.5967342,182.009816 22.5610706,170.154368 C18.0626555,163.516713 14.0817916,156.529913 9.82853238,149.636218 C6.92168457,160.742942 8.20194284,172.450973 13.2101264,182.37448 C18.9926911,193.82647 27.0283547,204.518099 39.4962803,210.418667 C41.0333685,211.147994 43.0023979,212.005342 43.6756036,213.347614 C47.189504,220.326656 54.4157642,223.143101 60.1944375,229.606182 C59.5990591,222.285753 52.7152388,222.363341 50.0613295,216.447256 C64.4671536,226.068169 68.9889168,240.43359 75.6664949,253.301562 M19.0354961,118.721274 C17.2026644,122.76361 16.1247569,124.994265 15.1674818,127.271473 C11.949325,134.948807 11.6847123,143.114945 14.9456741,150.39658 C21.6154695,165.289599 31.6824243,177.990757 43.1502697,189.644477 C57.1046957,203.815927 73.4523097,216.012763 81.5035387,235.844259 C85.6400571,227.309577 86.6362459,219.620605 82.5464239,211.415673 C78.0168779,202.337875 71.7829151,194.47821 65.9653282,186.281036 C50.3531817,164.269317 26.7676334,147.93704 19.0354961,118.721274 M48.6876786,67.7692262 C42.7338939,77.1534963 37.1614628,86.2080174 31.7213379,95.4254733 C27.8961286,101.907952 29.4332168,106.943414 31.8808838,112.46768 C33.589192,116.316046 35.7488982,119.958803 38.4962001,123.291208 C49.5321042,136.694537 60.392897,150.237525 71.3081689,163.741718 C78.6706268,172.838913 84.9901996,182.642158 91.3759255,194.590712 C92.1814375,189.454386 93.8119184,185.850423 93.0336459,182.871043 C88.5118826,165.530122 83.3869582,148.336619 74.915462,132.392282 C64.116931,112.071981 55.9762006,90.7120016 48.6876786,67.7692262 M114.490619,0.0892027328 C113.868001,7.61523996 113.362124,14.6990255 115.214412,22.0349721 C119.755632,40.0121147 130.157244,54.598661 141.177583,68.754594 C146.034003,74.9965496 147.290914,81.9949883 148.018598,88.9623919 C149.524556,103.40928 148.90972,117.960912 148.684021,132.512543 C148.477779,145.977943 146.905669,159.156267 144.924965,172.34235 C144.115562,177.738596 142.204903,183.010701 140.446007,188.224616 C131.776051,213.937283 117.759363,236.127455 96.8783121,253.82916 C89.535311,260.059477 83.4219805,267.725173 74.829852,272.523992 C73.7441619,273.129178 72.8569312,274.378345 72.2693355,275.530527 C62.0039211,295.684013 48.6331995,313.870644 36.0290763,332.542199 C33.7253896,335.956071 30.5227983,338.48932 27.2735106,340.913945 C25.8414892,341.976901 24.1526378,344.153245 22.2770011,342.2407 C20.3391026,340.266086 21.3547482,338.008274 22.9852291,336.033659 C29.4993699,328.146838 36.1847308,320.388037 42.4031281,312.272331 C52.4078211,299.206509 61.14393,285.298858 68.9772428,270.817055 C72.7596471,263.830255 70.9151413,257.285706 67.8876613,250.861419 C63.1129594,240.740062 55.7855238,232.682547 47.4035289,225.280651 C38.2705011,217.219256 28.7833592,209.638907 19.2650865,202.062438 C9.82853238,194.548039 5.43518409,183.60425 0.753874968,173.056159 C-1.13732722,168.784939 1.02627035,163.939568 1.8512392,159.497654 C4.23664443,146.590888 5.50522861,133.11385 11.6613641,121.448493 C26.3006699,93.7030194 39.6675002,64.6967409 66.2260495,45.602331 C76.0595226,38.534063 87.3366912,33.6033448 95.621402,24.2345923 C100.987591,18.1672097 104.520948,11.1920473 108.167155,4.1742116 C109.326781,1.94355624 110.319078,-0.500466164 114.490619,0.0892027328" id="Fill-4" fill="#BC6535" mask="url(#mask-4)"></path>
            </g>
        </g>
        <g id="Group-45" transform="translate(-125.000000, 271.000000)">
            <path d="M293.71536,233.388413 C261.222712,215.444091 231.815854,195.709682 197.975366,183.708861 C155.195374,168.53762 114.86131,147.822286 74.8925875,126.204665 C58.2644099,117.208705 38.5174169,114.282483 20.9789828,106.383339 C18.3328403,105.191328 15.8084782,103.726147 12.5307291,102.025048 C16.8652839,96.1394925 21.0347127,97.9958017 25.2784482,99.6017057 C64.9127912,114.582555 102.654379,133.462275 139.619874,154.140359 C161.238982,166.234307 185.085225,173.51882 208.215235,182.12986 C235.029616,192.110884 259.375366,206.33431 283.277339,221.66283 C292.260188,227.424218 301.940693,231.763883 313,233.158702 C311.577853,238.795922 310.300192,243.864039 308.752136,250 C278.48456,238.330293 245.756607,235.462016 217.546912,217.062411 C195.188866,202.480968 168.244448,197.926078 142.323811,192.431651 C103.054809,184.110337 68.2442061,167.018634 36.8785424,142.139538 C27.8502841,134.977123 17.511339,129.6586 6,127.03659 C10.4026692,119.147793 11.6390493,118.829095 19.9655226,123.555751 C34.8371735,131.999164 48.7428379,141.903619 61.9302047,152.733124 C82.3418294,169.495782 106.724732,177.134173 131.404861,184.317283 C148.39838,189.263302 165.649908,192.980059 183.126419,195.662084 C204.953999,199.010477 222.444959,211.679736 240.753293,222.569255 C253.478307,230.141424 267.974297,231.863218 281.574478,236.538137 C281.91505,235.662754 282.255622,234.78737 282.594131,233.909918 C273.266582,229.928269 263.631486,226.536417 254.661021,221.861498 C212.333062,199.796873 168.02772,183.007312 121.862648,171.130658 C102.648186,166.188779 88.1109154,152.97939 71.6499277,143.215659 C53.72964,132.586892 35.132336,123.487459 15.7940297,115.869762 C11.9878778,114.37147 8.24158403,113.398822 7.84528188,107.84645 C12.5926514,105.60936 16.5783777,108.471428 20.6528591,109.835205 C42.6084109,117.177663 61.9425892,129.470279 80.6658016,142.673459 C99.1330689,155.696596 119.833664,162.912817 141.1122,169.737909 C163.810818,177.016214 185.704448,186.999308 208.167761,194.892244 C237.366148,205.154716 262.30635,224.146187 293.71536,233.388413" id="Fill-1" fill="#4C5184"></path>
            <path d="M330,186.267466 C316.111581,185.702303 305.506819,182.445883 295.040424,178.878935 C276.387606,172.51515 260.281171,161.420966 243.858761,150.850542 C204.591193,125.579652 164.390159,102.163658 118.243435,91.5124964 C95.9434882,86.3659875 72.633662,88.1629182 50.4886042,81.811555 C46.7278889,80.7329825 42.9155438,79.8345172 38.805811,79.5653916 C45.7944219,82.548545 52.6529258,85.9001933 59.794361,88.454816 C99.0495375,102.492819 137.56331,118.458176 178.443793,128.043186 C203.279796,133.866649 223.745853,150.026604 244.149953,165.174233 C266.07197,181.450119 289.212451,195.500543 315.956692,202.576475 C318.164383,203.162341 320.778916,203.706803 322.313354,207.414525 C315.116159,211.240248 309.156013,207.269611 303.173151,204.659093 C273.196884,191.585802 244.670382,176.247715 219.493622,154.846022 C198.841698,137.288684 172.549734,131.802663 147.294496,125.124209 C126.929634,119.741698 106.608142,114.537223 87.170551,106.347525 C66.4566716,97.6195764 45.8130087,88.7177309 25,79.832447 C29.4484244,69.767151 36.9450727,69.1440218 48.4874328,73.768841 C63.4476863,79.7662007 79.7833579,81.4368494 95.8732717,83.23378 C140.237734,88.191901 180.139316,103.511356 217.59984,128.734632 C244.616687,146.92752 271.284516,167.107797 303.454017,176.688667 C311.566093,179.104586 320.754134,178.671915 330,186.267466" id="Fill-3" fill="#4C5184"></path>
            <path d="M46,43.6660223 C53.0353528,40.0377977 58.8118128,43.2334501 64.6749508,44.818858 C82.4562941,49.6268247 98.489634,58.5845861 114.985256,66.3770934 C149.231264,82.5561186 184.862055,95.2973338 219.820061,109.706746 C237.543619,117.012868 253.046573,128.005167 267.20602,141.51632 C281.968084,155.602855 299.012666,167.108445 320.122852,170.509 C323.65807,171.078174 328.014664,171.523165 330,175.660541 C328.722533,178.512619 326.588607,178.158697 324.483573,177.661963 C306.161525,173.319684 288.836273,167.135352 273.550013,155.33586 C261.250013,145.839971 249.034626,136.406173 237.306286,126.136207 C225.666688,115.946961 209.955295,112.455338 195.729808,106.585603 C153.38561,89.115071 111.229215,71.1850601 69.0975853,53.2053759 C61.7217123,50.0573271 53.1117118,49.8503548 46,43.6660223" id="Fill-8" fill="#4C5184"></path>
            <path d="M20,92.6381018 C22.7475516,87.4150976 25.4227992,88.9126742 28.7673752,90.4349362 C60.3662846,104.812083 93.3554964,115.175807 126.319918,126.033238 C165.715263,139.009492 205.691107,152.388941 238.34772,179.997424 C258.851066,197.328582 283.099758,206.885919 308.877163,213.172449 C312.322965,214.013808 316.462885,214.017922 317,220 C297.579148,215.593669 278.670622,211.378649 261.245361,201.539488 C244.981095,192.358603 230.633917,180.540501 215.441816,169.958724 C191.874847,153.54298 164.481964,146.664002 138.452528,136.596502 C99.4063074,121.497309 58.4491959,111.42158 20,92.6381018" id="Fill-16" fill="#4C5184"></path>
            <path d="M193.156582,62.3158184 C226.669745,72.772933 257.405289,88.4266418 284.396726,111.046261 C295.790128,120.593972 309.513012,125.17811 324,128.207395 C320.28274,135.878558 316.422985,136.369347 310.118099,133.053425 C295.575353,125.40907 281.924748,116.741893 269.166286,106.295089 C248.593318,89.4494635 224.877199,78.0540749 198.99681,72.2491493 C172.280037,66.2565689 147.463197,55.7417144 123.234923,43.5977688 C109.158899,36.543186 93.7632471,34.5429097 78,30.8949831 C83.5986064,22.778398 90.0542478,26.8573119 95.5144896,28.3812338 C120.26318,35.2935289 143.208999,46.975555 167.197717,55.9108099 C175.611115,59.0452635 184.067881,62.8334156 193.470484,62.2395192 L193.156582,62.3158184 Z" id="Fill-18" fill="#4C5184"></path>
            <path d="M193.086323,62.1687011 C166.706901,53.0930766 142.85376,38.2920295 116.876809,28.2331259 C108.00799,24.7999468 98.1814953,25.6940254 88,20.5369963 C96.4230047,16.7241967 103.368217,17.6618384 110.003836,20.3731164 C132.575259,29.5877277 155.392293,38.3189971 177.412641,48.7367768 C196.283391,57.6651169 216.695916,59.5715167 236.431464,64.2783949 C254.19387,68.5164522 269.077057,75.6545606 282.290504,88.6923435 C292.513278,98.7761402 303.000239,109.639922 317.571769,114.218186 C319.158951,114.718123 320.975233,115.705551 321,118.138856 C316.263221,122.13213 312.131181,118.823417 308.742165,116.358996 C298.878519,109.187697 288.375047,102.4624 280.028408,93.7228325 C263.089521,75.990618 241.451005,69.6158993 218.759872,65.5583172 C210.241926,64.0356867 201.810665,60.5734656 192.803561,62.2371573 C192.772602,62.245455 193.086323,62.1687011 193.086323,62.1687011" id="Fill-20" fill="#4C5184"></path>
            <path d="M329,154.00475 C326.744861,160.246445 323.859276,157.590625 321.223802,156.48076 C296.580571,146.097226 274.661697,131.77853 254.807794,113.681748 C242.384893,102.357825 227.225234,93.5409148 210.302392,91.6787402 C184.201899,88.8038404 160.637662,79.0217404 137.677,67.7804893 C116.241813,57.2853481 93.6036094,49.8800525 72.0299305,39.8685393 C69.9380877,38.8992164 66.9429492,39.0397579 67,35.4869521 C69.9298196,32.2999675 72.6211035,35.0715281 75.1511584,36.1049213 C98.5748366,45.6720754 123.017565,53.4927951 145.341579,64.7588476 C167.229447,75.8058208 189.722958,82.2231926 212.966804,87.8262504 C234.951824,93.1254907 253.32366,105.046715 269.824827,119.884174 C285.753424,134.204937 303.933026,144.375593 323.830337,151.813957 C325.467432,152.425726 327.05285,153.175969 329,154.00475" id="Fill-22" fill="#4C5184"></path>
            <path d="M112,14.8746727 C120.015532,10.4688821 126.63481,14.9158483 133.045168,17.1558017 C146.291998,21.7901169 157.683362,30.3731734 171.027413,35.0774872 C196.182739,43.9446554 223.340396,44.0084776 248.394364,52.8859397 C270.175926,60.6022496 289.013978,73.2472803 305.547694,89.2872403 C307.7817,91.4530776 309.078665,94.0162595 306.821905,98 C297.017099,89.4910596 288.261035,80.2944865 277.486091,73.5355096 C251.565412,57.2793776 222.643303,50.8436293 192.837935,46.201079 C179.224975,44.0805349 165.237613,41.4823538 153.254651,33.2616426 C142.856179,26.1279677 131.557898,20.9027824 118.662717,19.7972172 C116.389409,19.6016331 113.828576,18.8872362 112,14.8746727" id="Fill-26" fill="#4C5184"></path>
            <path d="M187.612907,24.3965579 C211.512394,31.8127544 237.198816,31.1376134 260.643822,40.579233 C268.843067,43.8803828 276.856388,47.3969149 283.039391,54.2415197 C285.824118,57.323145 286.803317,60.0402771 285.291136,64 C270.875835,48.0099264 252.901124,40.8401771 232.445361,38.673927 C199.813648,35.2153824 167.911169,29.0438477 139,12.0265657 C139.334663,9.74641148 140.262217,7.59051632 142.716413,6 C157.082134,13.6543598 170.057558,25.1131186 187.900056,24.3261444 L187.612907,24.3965579 Z" id="Fill-32" fill="#4C5184"></path>
            <path d="M187.958706,24.4349565 C179.134205,20.7091951 170.309704,16.9834336 161,13.05296 C163.859601,8.72125052 166.099794,9.86559154 168.58362,11.2453515 C181.995871,18.6845917 196.174123,19.3171523 211.134893,17.0448473 C220.584997,15.609815 230.020647,17.1328735 236,27 C220.128699,17.1820044 203.823813,23.3254166 187.702684,24.4943231 C187.671714,24.5045587 187.958706,24.4349565 187.958706,24.4349565" id="Fill-38" fill="#4C5184"></path>
            <g id="Group-44" transform="translate(177.000000, 0.000000)">
                <mask id="mask-6" fill="white">
                    <use xlink:href="#path-5"></use>
                </mask>
                <g id="Clip-43"></g>
                <path d="M0,-0.000835631727 C11.6633031,3.08891268 21.1603014,5.60625325 32,8.47873731 C23.3920041,12.5399075 4.36939584,8.04838697 0,-0.000835631727" id="Fill-42" fill="#4C5184" mask="url(#mask-6)"></path>
            </g>
        </g>
        <g id="Group-3" transform="translate(414.000000, -154.000000)">
            <mask id="mask-8" fill="white">
                <use xlink:href="#path-7"></use>
            </mask>
            <g id="Clip-2"></g>
            <path d="M279.556075,284.285136 C259.376324,297.385298 237.984623,307.169652 213.425148,307.985015 C203.30614,308.322808 194.962328,302.881232 186.467022,298.579223 C174.965147,292.755202 163.997384,285.618836 151.427284,282.411743 C139.929293,279.478378 128.42936,281.576966 116.865334,284.07353 C100.078656,287.694129 82.9346081,290.01403 65.8585383,286.01487 C48.8310241,282.025416 36.6202357,263.254599 49.1378962,245.221491 C55.7900276,235.64292 64.2095866,227.755255 71.9338279,219.203652 C78.6675329,211.746965 79.7299317,204.952275 76.0474671,195.581427 C72.7068347,187.084181 68.97193,178.707299 69.8323371,169.00254 C71.3103727,152.287602 80.7670815,147.696333 96.2349865,147.193526 C100.799223,147.045984 105.483877,149.200872 109.980135,148.802897 C116.036002,148.267087 120.46234,143.819477 124.946945,139.971741 C142.710564,124.738046 150.125991,102.311685 163.783739,84.2300442 C172.449961,72.7528419 182.937993,62.8287116 192.116963,51.8096655 C202.472924,39.3792652 215.814089,33.8192673 231.381048,32.0972987 C235.648123,31.6255531 239.068387,33.4775915 241.591341,36.0285123 C250.824694,45.3624752 261.833243,43.0639286 272.781583,41.5108566 C295.581399,38.2746427 316.174844,28.3116856 337.514105,20.5074986 C357.225778,13.3012444 376.949105,5.80961315 397.610528,1.65708679 C406.993432,-0.229895732 416.632711,-0.816180425 426.167109,1.56196113 C432.100616,3.04126224 433.693243,9.94078476 429.531048,16.9393156 C427.151818,20.9384761 424.555059,24.8075668 422.084545,28.7523698 C420.330713,31.5498408 418.40208,35.8324369 419.967516,37.6398245 C422.218559,40.2412202 426.444847,41.4487337 430.610927,40.7673233 C438.408973,39.4879802 445.548603,35.176264 453.979816,36.5643221 C461.688519,37.8358999 466.147875,50.905001 462.958736,57.1464093 C455.904564,70.949337 445.822457,82.2984109 434.569188,92.3157255 C425.54948,100.347049 416.069464,108.168708 405.227947,114.05291 C395.907194,119.112042 387.138034,125.174847 377.871663,130.340753 C369.234575,135.155276 359.715715,138.554563 351.542819,144.007787 C328.537126,159.357963 306.271423,175.665219 292.114522,200.475545 C290.07324,204.051493 290.531606,205.946241 294.00431,207.555612 C313.168275,216.431419 319.964131,233.647222 309.000253,252.827662 C303.097822,263.157532 290.028569,277.346787 279.556075,284.285136" id="Fill-1" fill="#C7C2FF" mask="url(#mask-8)"></path>
        </g>
        <g id="Group-3" transform="translate(560.000000, 227.000000)">
            <mask id="mask-10" fill="white">
                <use xlink:href="#path-9"></use>
            </mask>
            <g id="Clip-2"></g>
            <path d="M2.09334052,25.9689885 C0.418044794,23.4679795 -0.278382991,20.8015191 0.100783248,17.8310899 C0.255544978,16.6190624 0.561199395,15.3877964 0.483818529,14.1873121 C0.240068805,10.4973618 0.0698309016,6.81510696 0.514770876,3.13285211 C0.727568254,1.37829807 2.42994729,-0.341626607 3.50941035,0.05853484 C7.25077518,1.43601367 10.9766638,2.85581726 14.7412429,4.17558049 C21.2567117,6.46111799 27.5555142,9.21607564 33.444198,12.8213764 C36.7290157,14.8337267 39.9364526,16.9807468 43.1361513,19.1277669 C46.0108505,21.0554677 48.7772164,23.1524676 51.0212615,25.7881463 C52.9286998,28.0352068 54.5111385,30.5516066 56.3566721,32.8525349 C58.7825622,35.8691366 61.4986306,38.5894649 63.5337474,41.9869895 C66.0138041,46.1232737 65.9054709,50.1556698 64.5280915,54.384299 C63.76589,56.7313997 61.715297,58.4782584 61.1426786,60.9561812 C60.5855364,63.3763884 59.3087521,65.8735497 61.9551777,67.9474634 C62.7173792,68.5438578 63.3480333,69.3095514 64.1024967,69.9136413 C69.1902886,73.9845144 74.6881991,77.4320592 80.4530735,80.4640517 C80.7509898,80.6218077 81.0218229,80.7256957 80.9986086,81.1720297 C80.9715253,81.6222113 80.7587279,81.8338351 80.3679545,81.9338755 C79.3039676,82.2186057 78.5495042,81.5221709 77.7834337,81.0181214 C75.4078411,79.4598004 73.1096294,77.7783528 70.7146916,76.2469657 C68.1765993,74.6270814 65.5920784,73.0187402 63.4911879,70.8871109 C61.1039882,68.4707514 58.4227412,66.9278212 55.0334593,67.2240946 C52.6733429,67.428023 50.5415001,68.6362028 48.3516216,69.5442615 C43.728115,71.4604192 39.1007392,72.0991384 34.2180066,69.9790523 C29.7299165,68.0282652 26.4025393,65.0539883 23.9108754,60.9369426 C22.8275433,59.151607 22.5605793,56.8776126 20.9742716,55.4616567 C19.0204047,53.7186458 17.1284426,51.9563963 15.3951112,49.9863707 C13.7585059,48.1279286 12.8957093,45.8693251 12.2882695,43.6799803 C11.3751753,40.4055823 10.1641647,37.4005237 8.36119059,35.0110981 C5.60256275,32.1368616 4.05881449,28.9086361 2.09334052,25.9689885" id="Fill-1" fill="#D3D1D2" mask="url(#mask-10)"></path>
        </g>
    </g>
</svg>