<?xml version="1.0" encoding="UTF-8"?>
<svg width="600px" height="400px" viewBox="0 0 600 400" version="1.1" xmlns="http://www.w3.org/2000/svg" xmlns:xlink="http://www.w3.org/1999/xlink">
    <title>shapes-03</title>
    <defs>
        <polygon id="path-1" points="0 0 7 0 7 6 0 6"></polygon>
        <polygon id="path-3" points="-1.86200623e-15 0 7 0 7 6 -1.86200623e-15 6"></polygon>
        <polygon id="path-5" points="0 -5.68434189e-14 101 -5.68434189e-14 101 104 0 104"></polygon>
        <polygon id="path-7" points="2.44249065e-15 0 159.868486 0 159.868486 130.612814 2.44249065e-15 130.612814"></polygon>
        <polygon id="path-9" points="1.55431223e-15 0 121.205425 0 121.205425 212.23066 1.55431223e-15 212.23066"></polygon>
        <polygon id="path-11" points="1.0658141e-14 0 104.428763 0 104.428763 107.684523 1.0658141e-14 107.684523"></polygon>
    </defs>
    <g id="shapes-03" stroke="none" stroke-width="1" fill="none" fill-rule="evenodd">
        <path d="M222.733573,136.354206 C234.651213,132.762487 251.022287,139.614383 260.763987,152.232446 C263.719502,156.063116 266.539114,160.014754 269.175033,164.070934 C273.293937,170.409087 269.052571,184.516108 262.094641,187.319293 C255.920766,189.805868 252.527673,195.238998 247.151294,199.796972 C263.946505,196.483032 283.706191,210.142021 290.0772,222.858651 C291.718489,226.133762 292.611565,229.813595 293.609182,233.372459 C294.66803,237.147872 290.900085,238.25899 289.022832,239.19687 C280.29219,243.554723 276.288281,252.924557 268.311826,257.954459 C266.887085,258.852015 265.589287,259.949693 263.780733,261.2908 C276.221077,264.948232 288.815244,267.988873 296.059915,280.173838 C296.053941,280.181305 295.552146,280.638298 295.295275,280.874261 C304.983211,286.792758 297.711658,295.790726 295.770188,299.896189 C291.794654,308.302754 286.24653,316.803407 277.406867,322.348545 C260.666913,332.845925 242.629162,341.110614 226.19387,351.964926 C215.384361,359.102069 204.562905,366.821653 197.366024,378.291262 C193.693659,384.145541 181.039754,384.499486 172.455468,379.584579 C161.021702,373.038838 154.081693,362.819238 148.0258,351.512414 C144.704392,345.311657 150.268944,342.85047 151.822121,338.707671 C152.471766,336.973789 153.305105,335.311592 154.98821,331.510791 C146.309839,338.285028 138.800829,343.207402 132.489558,349.360369 C127.141554,354.57247 120.41212,357.967056 115.55247,364.061778 C113.348155,366.826133 106.213999,369.420236 101.642583,363.598813 C101.106439,362.914818 99.1918504,363.161235 97.9269079,363.219479 C83.9513094,363.872112 77.7445785,353.68686 70.9658607,344.128853 C61.9559455,331.419691 71.5318739,322.441138 77.2502504,312.868196 C81.3333115,306.035715 86.2093886,299.676653 90.7464551,293.084615 C85.859924,291.627019 82.2248944,294.101647 78.4539619,296.122269 C65.8986235,302.848717 52.3098255,300.302404 42.2231412,290.199292 C33.4252943,281.383524 27.2827813,271.31028 24.3810301,259.208947 C23.4356834,255.269256 24.224219,252.015053 27.0288967,249.020709 C35.7550585,239.704639 44.2736324,230.192928 53.0834267,220.958997 C55.5938971,218.329052 56.1210809,215.840983 53.9869571,213.161754 C46.2016616,203.388692 49.4439169,196.720489 57.9684644,188.600663 C70.5103619,176.654647 81.113776,162.680542 92.6416287,149.656264 C102.819413,138.155293 115.032754,129.272321 128.639473,122.241212 C129.408594,121.843957 130.625746,121.457156 130.779571,120.85082 C133.024209,111.934992 139.920908,112.633921 145.931999,114.558963 C154.84036,117.411431 158.385783,110.889585 163.248419,106.37492 C167.919895,102.036481 172.410665,97.502401 177.083635,93.1654553 C181.08157,89.4542603 195.514161,90.5967409 202.364563,95.9522117 C215.281314,106.046363 225.217161,117.974458 222.733573,136.354206" id="Fill-1" fill="#F8F8F8"></path>
        <g id="Group-18" transform="translate(525.000000, 101.500000) rotate(-30.000000) translate(-525.000000, -101.500000) translate(472.000000, 15.000000)">
            <path d="M92.493233,0 C97.4455875,3.30531672 101.663837,6.12423232 106,9.02052992 C103.238549,20.1709072 98.9594408,30.5290402 98.2861945,42 C92.7823106,34.9803474 92.0329912,30.8643622 96.1485423,21.9912265 C98.2443543,17.469907 99.5413995,14.3451483 94.3950588,10.8555887 C91.5423201,8.92103878 91.7134844,4.93033866 92.493233,0" id="Fill-1" fill="#EF652D"></path>
            <path d="M41.4201759,115 C37.0905773,111.475031 33.5266019,108.072637 35.884721,102.122163 C36.8532342,99.678085 35.5248781,97.5497317 34.2156627,95.5253818 C32.5772292,92.9958729 32.5848855,90.4923648 34.2998812,88 C44.9152453,91.7441189 46.7565688,94.3999175 43.6175142,104.057367 C42.4767358,107.567478 46.4694602,111.437887 41.4201759,115" id="Fill-3" fill="#EF652D"></path>
            <path d="M82.2250458,163 C78.3822324,160.479708 75.0140294,158.269886 70,154.982549 C75.4656748,154.920455 79.4194858,155.844562 83.063269,154 C83.7675296,157.564935 85.1186383,160.344562 82.2250458,163" id="Fill-5" fill="#EF652D"></path>
            <path d="M74.8263198,173 C71.0354623,170.064886 72.4486222,166.747779 72,163.208492 C76.175925,162.491279 79.1816937,163.539813 79.9107048,167.679375 C80.5163447,171.086134 77.9554597,172.465989 74.8263198,173" id="Fill-7" fill="#EF652D"></path>
            <path d="M87,23.9468274 C87.326442,20.2679847 87.0035873,16.6598134 90.7845751,16.0237702 C92.205136,15.7842724 94.1960736,17.3900853 93.9844244,19.2393221 C93.5683005,22.9103125 91.1289535,24.3001847 87,23.9468274" id="Fill-9" fill="#EF652D"></path>
            <path d="M71.2822502,48 C75.3598448,49.8970438 74.8477207,52.7612079 76,54.8739938 C74.7740058,55.4579857 74.0562561,56.1163715 73.5829292,55.9824625 C68.0387973,54.3941534 70.3394762,51.4518757 71.2822502,48" id="Fill-11" fill="#EF652D"></path>
            <g id="Group-15" transform="translate(0.000000, 64.000000)">
                <mask id="mask-2" fill="white">
                    <use xlink:href="#path-1"></use>
                </mask>
                <g id="Clip-14"></g>
                <path d="M7,3.56102211 C4.49085589,5.98634857 2.481965,7.17264955 0.532159136,4.39331581 C-0.220190198,3.32376191 -0.27139722,1.61774811 0.996961342,0.747794057 C4.0615047,-1.36118547 5.06201114,1.44451051 7,3.56102211" id="Fill-13" fill="#EF652D" mask="url(#mask-2)"></path>
            </g>
            <path d="M103.723935,79 C102.70712,76.1247345 99.739221,74.7870442 101.600255,71.7157379 C101.945447,71.1429912 103.847753,70.7662853 104.290499,71.1660548 C106.793139,73.4262902 106.500477,75.8325953 103.723935,79" id="Fill-16" fill="#EF652D"></path>
        </g>
        <g id="Group-36" transform="translate(56.000000, 286.000000)">
            <path d="M19.6658387,52.9976299 C17.0927697,53.0470645 15.661932,52.3280152 16.06842,50.3865819 C16.8041632,46.9261568 19.4991786,46.1396965 22.2754916,46.0048748 C23.7998216,45.9284758 25.3404111,46.7463944 24.9339231,48.7192861 C24.2022447,52.2246518 21.4462561,52.7189983 19.6658387,52.9976299" id="Fill-1" fill="#FF6F54"></path>
            <path d="M58,50.6827852 C60.9498617,48.5317028 60.7866961,43.6474804 65.5657297,45.3556929 C67.3648447,46.0010176 68.829041,47.7218835 67.4636028,49.4511851 C65.2651615,52.2265032 62.2165417,52.8844813 58,50.6827852" id="Fill-3" fill="#FF6F54"></path>
            <path d="M30,38.2388982 C30.9634754,34.2892682 33.2033499,32.170387 36.3902301,32.0019404 C37.7283904,31.9310155 39.8529772,33.814958 38.6383394,35.9249735 C36.6619796,39.3515324 33.5986219,39.5776055 30,38.2388982" id="Fill-5" fill="#FF6F54"></path>
            <path d="M44,50.834379 C47.1772095,48.1150875 48.2138948,43.7744125 52.2599053,45.3263081 C53.9093681,45.9563313 54.5305398,48.5598098 53.4896574,49.7457359 C51.181249,52.3677445 48.1593324,52.664226 44,50.834379" id="Fill-7" fill="#FF6F54"></path>
            <path d="M34.883703,51.8326637 C33.5461058,51.3797579 30.6136812,52.2562145 31.0423983,49.8197489 C31.5311357,47.0394104 34.5021448,46.121018 37.2287852,46.003598 C39.0894171,45.9281137 40.2812505,47.0436039 39.942564,49.043938 C39.4709753,51.8326637 37.5245999,52.3233117 34.883703,51.8326637" id="Fill-9" fill="#FF6F54"></path>
            <path d="M0,36.1674134 C1.79376693,34.7076979 1.78041383,30.9319597 5.71957942,32.2896282 C7.17506772,32.7909895 9.00444293,32.9240942 9,34.9029182 C8.99554086,36.5090489 7.97625394,37.6404393 6.40503874,38.385826 C3.61424007,39.7168735 1.69584417,38.842819 0,36.1674134" id="Fill-11" fill="#FF6F54"></path>
            <path d="M23,20.3871563 C22.288224,22.1457486 21.7652062,23.9958043 19.4961743,24 C17.1327632,24.0082766 16.0198758,22.6612697 16.0002134,20.2707483 C15.9884161,18.3749608 16.4603118,16.7494062 18.749006,17.0321114 C20.7427655,17.2815571 22.3118187,18.2169785 23,20.3871563" id="Fill-13" fill="#FF6F54"></path>
            <path d="M46.0004399,80.1214082 C46.81752,78.2728137 47.586017,75.7956972 50.3199228,76.0134205 C52.1484156,76.1654161 54.157991,77.8332591 53.9901583,79.8256331 C53.804659,82.0562704 51.9364164,83.2106149 49.3659266,82.9682436 C47.572767,82.7957081 45.9695234,82.4424212 46.0004399,80.1214082" id="Fill-15" fill="#FF6F54"></path>
            <path d="M23.3170851,60 C25.2154446,60.2213282 26.3447927,61.0002331 25.9053577,62.3409711 C25.0264875,64.9756277 23.4884648,67.1761406 20.0784486,66.9888629 C18.2152439,66.8867114 17.8417241,65.7332511 18.0526529,64.2180044 C18.505271,60.9491574 21.436303,60.8768001 23.3170851,60" id="Fill-17" fill="#FF6F54"></path>
            <path d="M17.8964105,38.9620215 C15.9944608,39.1593972 14.7998478,37.8360827 15.0277674,35.9879282 C15.3421392,33.439987 17.1969331,31.9910698 19.409325,32 C21.0361993,32.0045272 22.2936867,33.274012 21.9400183,35.3913152 C21.5431239,37.8001962 20.258129,39.2580851 17.8964105,38.9620215" id="Fill-19" fill="#FF6F54"></path>
            <path d="M53,64.1466557 C51.9513073,66.7302821 50.3782681,68.3284456 47.890873,67.9428298 C46.3915023,67.7114602 44.4457873,66.6317358 45.1478047,64.6565256 C45.8888232,62.561346 47.4401951,60.7746591 50.1269286,61.0231672 C52.1896465,61.2159751 52.3933182,62.9855235 53,64.1466557" id="Fill-21" fill="#FF6F54"></path>
            <path d="M0,49.613952 C2.51323496,48.3702936 4.82258166,45.0538713 7.41071435,48.5664261 C9.00021063,50.7283412 7.07367456,52.743157 5.18874834,53.5588899 C2.37176147,54.7802605 0.55341101,53.4652812 0,49.613952" id="Fill-23" fill="#FF6F54"></path>
            <path d="M34.2953377,81.9987931 C33.2064809,81.8282488 31.7348229,81.2542217 32.0410638,79.1120189 C32.3558115,76.9115815 33.5127219,75.08135 35.8648227,75.0023173 C37.7873355,74.9357634 39.1228865,76.308437 38.9910327,78.3924052 C38.8464189,80.7883445 37.4555745,82.0445489 34.2953377,81.9987931" id="Fill-25" fill="#FF6F54"></path>
            <path d="M64.2886113,66.9248423 C62.88214,66.5296629 60.6652326,66.3255593 61.0425785,63.576674 C61.4585167,60.5455177 64.2671712,61.401016 66.0166842,61.0492629 C67.7790613,60.6975098 69.2241248,62.28257 68.9711315,64.1108176 C68.6666819,66.2951608 66.9857772,67.2939659 64.2886113,66.9248423" id="Fill-27" fill="#FF6F54"></path>
            <path d="M35.1492411,67 C33.5236411,66.6370956 31.7506317,66.1314759 32.029072,64.170161 C32.4139747,61.4871148 34.8994637,61.4055633 36.9836712,61.050814 C38.949132,60.7123751 39.0433104,62.1272946 38.9900791,63.4321194 C38.8999955,65.8542006 37.4504681,66.9266036 35.1492411,67" id="Fill-29" fill="#FF6F54"></path>
            <path d="M16.0033213,81.680224 C16.4449139,79.4717171 18.0414412,78.2864566 20.2409121,78.022118 C22.0922043,77.8004146 23.098526,79.2841219 22.9923739,80.7379846 C22.8310228,82.8740116 21.1962808,84.0251638 19.0477628,83.9995827 C17.6380633,83.9867921 15.9141536,84.1019073 16.0033213,81.680224" id="Fill-31" fill="#FF6F54"></path>
            <g id="Group-35" transform="translate(14.000000, -0.000000)">
                <mask id="mask-4" fill="white">
                    <use xlink:href="#path-3"></use>
                </mask>
                <g id="Clip-34"></g>
                <path d="M7,4.33878228 C4.58071673,6.20189855 2.45074116,6.38508265 0.148858121,5.44682265 C-0.488457403,2.54268458 1,0.594678119 3.10063528,0.0853369803 C5.62474019,-0.526765967 6.02725525,2.22099544 7,4.33878228" id="Fill-33" fill="#FF6F54" mask="url(#mask-4)"></path>
            </g>
        </g>
        <g id="Group-3" transform="translate(40.000000, -52.000000)">
            <mask id="mask-6" fill="white">
                <use xlink:href="#path-5"></use>
            </mask>
            <g id="Clip-2"></g>
            <path d="M70.1977009,13.7207544 C70.2695433,13.5287943 70.3413857,13.3368342 70.4147248,13.1448741 C69.7591631,12.8959259 69.1050981,12.6469776 68.4495364,12.3995291 C68.3821841,12.5794916 68.3163286,12.7579545 68.2489764,12.9379171 C68.8985512,13.1988629 69.5466294,13.4598086 70.1977009,13.7207544 M48.3456438,1.79823331 C50.8930549,1.74274485 53.8475727,3.44489094 56.5251981,0.563989941 C53.4629167,1.0258939 50.9035319,1.41131376 48.3456438,1.79823331 M48.6973722,3.58436194 C46.5271336,2.18215349 41.9726261,3.17944613 39.9804968,5.26701208 C42.8811328,4.7061287 45.6066531,4.18123783 48.6973722,3.58436194 M78.2156098,18.0143616 C77.444801,15.6373558 76.7952261,13.6337724 74.7357446,12.3050487 C74.2792461,15.9927819 74.2792461,15.9927819 78.2156098,18.0143616 M69.0557065,40.506685 C68.166657,38.6815644 66.7792011,37.2013722 67.2192356,35.2052872 C64.1674312,35.1512985 62.3174899,36.5280122 63.6226265,39.3174322 C64.3694879,40.9146001 66.768724,41.2490306 69.0557065,40.506685 M82.1953783,9.03122941 C86.9025509,14.7555392 89.602627,19.9429606 91.7833426,25.2158643 C93.627297,29.6699382 97.2029521,32.9062653 98.8897513,37.3288457 C101.318922,43.6980214 101.824812,50.6265808 99.4884378,56.5938401 C97.683398,61.21138 97.9707675,65.6759517 97.0787246,70.1555203 C96.6371933,72.3765585 96.1612376,74.3636453 93.7709817,75.6233834 C91.2505116,76.9521071 90.8329277,80.0474635 89.4290079,82.3299889 C85.1334323,89.3080381 79.1241166,94.3904813 71.8680363,98.0767149 C69.4942443,99.2809645 67.1159622,100.494212 64.8364634,101.863428 C60.1173171,104.697838 54.8877905,103.289631 49.8962419,103.889506 C42.9230409,104.724833 37.7488929,100.641182 32.1436905,97.7932738 C29.8028263,96.6040211 27.2868463,97.6178103 25.052249,96.5830254 C18.0760546,93.3511974 13.2521382,87.7948527 9.07480313,81.5726464 C3.24209994,72.8819534 -1.49650368,63.7638493 0.440247137,52.8191249 C2.16446425,43.0636533 6.132259,34.3849578 11.7838595,26.0226965 C19.0384431,15.2864288 30.4074997,10.8308552 40.3112711,4.01327276 C52.6756439,-4.49745767 76.7563115,2.14016222 82.1953783,9.03122941" id="Fill-1" fill="#FFD44C" mask="url(#mask-6)"></path>
        </g>
        <g id="Group-3" transform="translate(345.000000, 335.000000)">
            <mask id="mask-8" fill="white">
                <use xlink:href="#path-7"></use>
            </mask>
            <g id="Clip-2"></g>
            <path d="M1.55534957,62.8253137 C-2.80265043,48.6293137 2.39634957,39.2753137 12.1793496,30.4603137 C23.8143496,19.9783137 38.1803496,17.1493137 51.7363496,12.2183137 C58.1663496,9.87831372 65.7173496,9.66831372 72.7003496,8.03831372 C84.9923496,5.16731372 97.4493496,3.15931372 109.91335,1.12931372 C124.96235,-1.32068628 139.24735,0.0513137174 152.93335,6.86631372 C158.47035,9.62331372 160.58035,18.2643137 159.66035,27.5773137 C157.29135,51.5703137 149.92335,74.3673137 144.14735,97.5693137 C142.09035,105.832314 142.25235,114.483314 136.53735,121.796314 C131.42835,128.333314 121.37935,132.369314 113.54835,129.860314 C107.74835,128.002314 100.97635,127.721314 96.1903496,124.458314 C86.2113496,117.658314 76.0973496,111.371314 65.1123496,106.322314 C46.7493496,97.8803137 28.8033496,88.5773137 11.9053496,77.4513137 C6.28234957,73.7493137 3.56634957,67.5273137 1.55534957,62.8253137" id="Fill-1" fill="#225455" mask="url(#mask-8)"></path>
        </g>
        <g id="Group-19" transform="translate(604.134627, 263.221626) rotate(-345.000000) translate(-604.134627, -263.221626) translate(539.501294, 157.106296)">
            <g id="Group-3" transform="translate(0.000000, 0.000000)">
                <mask id="mask-10" fill="white">
                    <use xlink:href="#path-9"></use>
                </mask>
                <g id="Clip-2"></g>
                <path d="M106.541067,177.5716 C106.458067,177.3176 106.366067,177.0666 106.274067,176.8156 C106.360067,177.0686 106.451067,177.3206 106.541067,177.5716 M105.965067,173.7166 C106.126067,173.6876 106.287067,173.6596 106.449067,173.6326 L105.842067,170.8786 C105.750067,170.8916 105.658067,170.9056 105.566067,170.9196 C105.699067,171.8516 105.832067,172.7836 105.965067,173.7166 M28.8670665,95.3616 C28.2260665,96.6476 27.8110665,97.4816 27.1270665,98.8536 C30.0880665,98.4056 29.2760665,97.0966 28.8670665,95.3616 M72.7910665,39.5516 C72.5390665,37.9496 72.3830665,36.9546 72.1620665,35.5476 C71.3770665,37.0536 71.0200665,38.0946 72.7910665,39.5516 M46.0320665,46.1576 C45.1790665,48.2586 44.5150665,49.8956 43.7360665,51.8126 C47.5530665,51.1576 47.0830665,49.0496 46.0320665,46.1576 M102.691067,191.6196 C106.342067,189.9886 107.944067,185.9276 106.545067,181.2426 C107.166067,185.3406 102.804067,187.6026 102.691067,191.6196 M4.72106653,108.7946 C9.08506653,96.8036 16.1330665,85.9836 19.9840665,73.9306 C26.5740665,53.3046 37.4990665,35.2286 50.0200665,17.8846 C53.2940665,13.3506 55.8950665,7.9116 60.9510665,5.4156 C64.4220665,3.7016 67.1250665,-2.7824 72.0490665,1.3586 C77.4900665,5.9336 81.5130665,12.1886 84.0610665,18.7076 C91.1530665,36.8516 94.9790665,55.9616 99.1500665,74.9396 C101.826067,87.1136 103.420067,99.5016 108.011067,111.2746 C110.826067,118.4926 112.485067,126.1966 114.254067,133.7786 C116.263067,142.3916 116.170067,151.3336 118.694067,159.9516 C121.603067,169.8846 122.756067,179.9416 117.862067,189.9886 C113.097067,199.7706 104.812067,205.1386 95.5590665,209.4066 C87.6080665,213.0736 79.0040665,213.4316 71.5830665,208.9216 C62.9590665,203.6796 54.9480665,197.3926 45.9930665,192.6186 C35.0960665,186.8086 28.2940665,176.3386 18.8740665,168.9276 C9.47706653,161.5336 2.82706653,152.7906 1.54306653,145.6426 C-1.85793347,129.7196 0.885066528,119.3346 4.72106653,108.7946" id="Fill-1" fill="#EBBCB2" mask="url(#mask-10)"></path>
            </g>
            <g id="Group-6" transform="translate(24.837903, 64.907010)">
                <mask id="mask-12" fill="white">
                    <use xlink:href="#path-11"></use>
                </mask>
                <g id="Clip-5"></g>
                <path d="M48.2197634,86.2744898 C46.9287634,87.0404898 46.0707634,86.2714898 45.3677634,85.3624898 C43.4327634,82.8634898 41.4277634,80.7674898 38.2147634,79.5444898 C35.2637634,78.4224898 32.7417634,76.0234898 31.4567634,72.8154898 C31.1807634,72.1254898 30.6607634,71.6514898 30.2317634,71.0884898 C28.1707634,68.3864898 26.6677634,65.4574898 26.0527634,62.0414898 C25.4247634,58.5504898 24.6017634,55.0844898 23.6537634,51.6654898 C22.7707634,48.4784898 22.4737634,45.1554898 22.7807634,42.0144898 C23.0877634,38.8734898 24.4107634,35.7464898 26.1407634,32.9554898 C29.9187634,26.8614898 35.0947634,22.0034898 41.1157634,18.4074898 C47.4877634,14.6014898 54.4877634,15.6474898 61.1497634,18.2504898 C66.1577634,20.2064898 71.0187634,22.5044898 75.7087634,25.1834898 C84.1517634,30.0054898 89.1707634,36.8414898 88.8177634,46.8794898 C88.6787634,50.8194898 89.4687634,54.7874898 88.4757634,58.7014898 C88.3767634,59.0924898 88.4507634,59.5404898 88.3047634,59.9064898 C85.0697634,68.0224898 82.1427634,76.4894898 76.1487634,82.9314898 C69.8547634,89.6944898 62.0927634,94.2484898 52.0737634,92.6874898 C49.0577634,92.2174898 46.0807634,91.6234898 43.0967634,91.0154898 C39.8027634,90.3434898 37.2707634,88.2954898 34.6027634,86.4664898 C27.7717634,81.7844898 22.6567634,75.6514898 20.0377634,67.8144898 C18.2107634,62.3484898 17.4477634,56.6064898 17.7197634,50.7444898 C17.8757634,47.4034898 18.4337634,44.0664898 18.0837634,40.7014898 C17.7407634,37.4124898 19.1647634,34.5544898 20.3927634,31.6594898 C22.5007634,26.6904898 24.9687634,22.0864898 29.1717634,18.3534898 C35.6487634,12.5984898 43.0507634,9.39248981 51.5727634,9.79048981 C57.9237634,10.0874898 64.3297634,11.1414898 69.8627634,14.8914898 C71.1197634,15.7434898 72.4887634,16.4624898 73.8777634,17.0804898 C79.3827634,19.5304898 83.8847634,23.3974898 87.7737634,27.7994898 C89.7827634,30.0734898 90.8617634,33.3824898 91.1937634,36.4884898 C91.9057634,43.1474898 92.6927634,49.8334898 92.2747634,56.5544898 C91.9567634,61.6674898 90.4767634,66.4744898 88.3857634,71.1584898 C87.3987634,73.3684898 86.2027634,75.4614898 85.2347634,77.6564898 C83.7767634,80.9664898 81.4247634,83.6424898 79.5067634,86.6224898 C78.8907634,87.5774898 77.9287634,87.8584898 77.1577634,88.4784898 C74.8037634,90.3714898 72.7227634,92.5494898 70.1377634,94.2224898 C65.0597634,97.5094898 59.6327634,98.8644898 53.6727634,98.3374898 C50.3417634,98.0434898 47.0267634,97.8374898 43.7317634,97.0184898 C38.4067634,95.6954898 33.6527634,93.5704898 29.6877634,89.6564898 C27.5957634,87.5914898 25.6297634,85.4004898 23.3487634,83.5004898 C19.9707634,80.6854898 18.1947634,76.6854898 16.6997634,72.6994898 C14.8157634,67.6754898 13.1537634,62.5554898 11.8177634,57.3424898 C11.3807634,55.6394898 11.3577634,53.9684898 11.5677634,52.2274898 C12.0507634,48.2094898 12.8777634,44.2294898 13.3947634,40.2494898 C14.2307634,33.8134898 16.6267634,28.0144898 19.8047634,22.6764898 C25.4227634,13.2404898 33.5837634,6.81848981 44.7027634,4.74748981 C47.3357634,4.25648981 49.9727634,4.20148981 52.5897634,4.64948981 C57.7997634,5.54148981 63.0157634,6.43048981 68.1817634,7.54248981 C71.9837634,8.36048981 75.4257634,10.1144898 78.6647634,12.2994898 C80.8457634,13.7704898 83.1687634,15.0054898 85.1947634,16.7344898 C88.2987634,19.3844898 91.0637634,22.4084898 93.2977634,25.7264898 C94.8747634,28.0704898 95.7577634,31.1204898 96.1537634,33.9664898 C96.7407634,38.1874898 98.0807634,42.2884898 98.1227634,46.5944898 C98.1387634,48.3184898 98.1127634,50.0164898 97.9357634,51.7414898 C97.3467634,57.5094898 96.2887634,63.2064898 95.4407634,68.9334898 C95.0667634,71.4614898 93.8807634,73.8024898 92.2897634,75.7744898 C89.5897634,79.1204898 87.8877634,83.0764898 85.3577634,86.5274898 C83.1457634,89.5444898 81.0487634,92.4594898 77.7097634,94.5044898 C73.4707634,97.1004898 69.5017634,100.06249 64.7227634,101.74449 C59.0597634,103.73749 53.4337634,105.08049 47.4457634,103.34449 C44.8087634,102.58049 42.1177634,102.01349 39.5327634,101.05249 C38.6897634,100.73949 37.7327634,100.50549 36.8497634,100.56449 C32.0247634,100.88349 28.4497634,98.7324898 24.9217634,95.6024898 C20.2187634,91.4304898 17.0647634,86.0164898 12.7197634,81.5904898 C11.3567634,80.2034898 10.9537634,78.2024898 10.3727634,76.3474898 C9.28676338,72.8784898 8.80776338,69.2734898 7.27976338,65.8714898 C6.24476338,63.5694898 6.26376338,60.7014898 6.21776338,58.0794898 C6.18476338,56.2324898 6.03076338,54.4284898 5.72776338,52.6294898 C5.48676338,51.1884898 5.50576338,49.6854898 5.88876338,48.3824898 C7.14176338,44.1164898 7.52176338,39.6564898 9.35876338,35.4954898 C11.3247634,31.0394898 12.9977634,26.4424898 15.5467634,22.2794898 C17.7077634,18.7504898 19.2877634,14.8644898 22.2757634,11.8194898 C23.6707634,10.3974898 25.2897634,9.37748981 26.9147634,8.40548981 C31.4317634,5.70348981 35.8097634,2.65648981 40.9167634,1.12648981 C45.1427634,-0.139510188 49.5507634,-0.102510188 53.9017634,0.120489812 C61.5357634,0.512489812 69.1597634,1.41648981 76.4077634,3.86548981 C83.6407634,6.30948981 90.3617634,9.42248981 95.0227634,16.3294898 C98.3847634,21.3114898 101.055763,26.3834898 102.817763,32.0374898 C102.907763,32.3284898 103.029763,32.6164898 103.070763,32.9154898 C104.302763,41.8954898 105.163763,50.9124898 103.529763,59.9094898 C102.471763,65.7324898 100.127763,71.1874898 97.6827634,76.5624898 C93.8837634,84.9124898 88.3797634,91.8204898 81.0677634,97.4904898 C76.1787634,101.28149 70.8587634,103.89549 65.0987634,105.81449 C62.0007634,106.84649 58.7567634,107.35949 55.5277634,107.54149 C45.4757634,108.10849 35.6257634,107.05049 26.1827634,103.27449 C22.4297634,101.77349 19.2707634,99.4064898 16.5197634,96.5284898 C10.4907634,90.2214898 5.30576338,83.3094898 2.64676338,74.8724898 C1.11576338,70.0164898 0.344763383,64.9634898 0.0297633835,59.8734898 C-0.0432366165,58.7024898 -0.0362366165,57.4324898 0.701763383,56.3624898 L0.617763383,56.3544898 C1.50976338,58.0334898 1.21876338,59.9144898 1.33776338,61.6744898 C1.76476338,67.9744898 3.45276338,73.9264898 6.13076338,79.5654898 C9.94676338,87.5994898 15.4667634,94.4274898 22.5127634,99.7904898 C26.0567634,102.48749 30.5687634,103.67449 34.9417634,104.58749 C41.5147634,105.96049 48.1747634,106.83049 54.9267634,106.36949 C61.7007634,105.90749 67.9627634,103.90649 74.0347634,100.78449 C79.1447634,98.1574898 83.1087634,94.2434898 87.0197634,90.3494898 C90.7297634,86.6564898 93.8497634,82.3034898 95.8717634,77.3334898 C97.6697634,72.9124898 99.8637634,68.6754898 101.140763,64.0174898 C103.390763,55.8164898 103.510763,47.6054898 102.367763,39.2484898 C101.856763,35.5094898 101.297763,31.8294898 100.169763,28.2124898 C99.2167634,25.1564898 97.9207634,22.3244898 95.9957634,19.7844898 C93.1887634,16.0774898 90.8717634,11.9314898 86.5507634,9.60048981 C82.8787634,7.61848981 79.1447634,5.76548981 75.1287634,4.63048981 C69.8427634,3.13748981 64.3907634,2.48148981 58.9607634,1.71748981 C54.4967634,1.08948981 50.0217634,1.29548981 45.5587634,1.35848981 C41.7407634,1.41248981 38.1997634,2.67048981 35.0027634,4.83348981 C32.3927634,6.59948981 29.3357634,7.56948981 26.7747634,9.44748981 C23.7067634,11.6974898 21.2857634,14.3654898 19.4317634,17.7934898 C17.3077634,21.7194898 15.0117634,25.5554898 13.0267634,29.5684898 C10.3077634,35.0664898 8.13376338,40.8354898 7.47576338,46.8594898 C6.73076338,53.6834898 7.02576338,60.5894898 9.48876338,67.2384898 C10.5777634,70.1794898 11.0727634,73.3374898 11.8657634,76.3894898 C12.4647634,78.6934898 13.4717634,80.6964898 15.3977634,82.2864898 C16.7097634,83.3694898 17.9047634,84.7574898 18.7207634,86.2454898 C21.1447634,90.6604898 25.1267634,93.5854898 28.6667634,96.9034898 C30.2817634,98.4174898 32.6737634,99.2524898 34.8277634,99.2324898 C38.0957634,99.2044898 41.0137634,100.18949 44.0297634,101.09049 C48.6447634,102.46949 53.4087634,103.41549 58.1607634,102.36449 C64.2207634,101.02449 69.6837634,98.3284898 74.9417634,94.8574898 C81.0657634,90.8154898 84.9197634,85.2054898 88.3477634,79.0624898 C88.4967634,78.7954898 88.5847634,78.4724898 88.7897634,78.2644898 C94.1327634,72.8564898 94.6697634,65.7514898 95.5827634,58.8154898 C96.2047634,54.0884898 97.0817634,49.3684898 96.4437634,44.5454898 C95.6957634,38.8964898 94.7827634,33.2914898 93.0177634,27.8504898 C92.2327634,25.4314898 90.1017634,24.0324898 88.6507634,22.1554898 C85.2117634,17.7024898 80.5007634,14.6574898 75.5777634,11.9034898 C71.3037634,9.51348981 66.7377634,8.32348981 61.9977634,7.63748981 C58.5747634,7.14248981 55.1577634,6.64848981 51.8097634,5.78948981 C50.1747634,5.37048981 48.6017634,5.53448981 46.9807634,5.77048981 C41.0577634,6.63048981 35.2527634,8.32548981 30.7147634,12.1154898 C25.9337634,16.1094898 21.4247634,20.6904898 19.2397634,26.8514898 C18.4227634,29.1564898 17.0967634,31.2104898 16.3747634,33.5794898 C14.4107634,40.0234898 13.7307634,46.6724898 12.8657634,53.2954898 C12.7357634,54.2894898 12.9217634,55.3104898 13.1807634,56.3164898 C15.2657634,64.4044898 17.6657634,72.3694898 21.8687634,79.6704898 C22.1757634,80.2024898 22.3897634,80.7884898 22.9047634,81.1494898 C26.5167634,83.6864898 29.1297634,87.2964898 32.4757634,90.0954898 C35.6117634,92.7194898 39.2847634,94.4984898 43.2897634,95.4154898 C48.8347634,96.6844898 54.4437634,97.7714898 60.1347634,96.6144898 C63.5607634,95.9184898 66.8987634,95.0964898 69.9467634,92.9504898 C72.8747634,90.8874898 75.1177634,88.1244898 78.0257634,86.1094898 C79.6787634,84.9644898 80.5487634,83.1494898 81.5327634,81.5404898 C86.7117634,73.0634898 90.8137634,64.0894898 91.0147634,53.9774898 C91.1327634,48.0104898 90.7197634,41.9594898 89.7757634,36.0694898 C89.0657634,31.6404898 86.6987634,27.6014898 83.0207634,24.7534898 C76.6657634,19.8314898 69.9597634,15.3634898 62.2567634,12.8754898 C54.9707634,10.5214898 47.4017634,9.72048981 40.1517634,12.8144898 C33.4157634,15.6894898 27.7307634,20.0014898 24.2497634,26.8204898 C22.9067634,29.4514898 21.8927634,32.2164898 20.5117634,34.8204898 C19.7347634,36.2854898 19.4517634,37.9294898 19.5707634,39.5704898 C19.8567634,43.5534898 19.1157634,47.4974898 19.1427634,51.4484898 C19.2247634,63.3944898 22.3617634,74.1384898 32.0367634,82.0944898 C35.0797634,84.5964898 37.9557634,87.3464898 41.7527634,88.7214898 C47.5697634,90.8274898 53.5827634,91.5784898 59.7357634,91.0594898 C64.1967634,90.6834898 67.5727634,88.1074898 71.0797634,85.5824898 C76.6187634,81.5944898 79.3507634,75.7314898 82.4767634,70.0504898 C84.0077634,67.2684898 84.6997634,64.1684898 86.1557634,61.3694898 C87.1577634,59.4414898 87.4047634,57.2224898 87.4967634,55.1544898 C87.6667634,51.3174898 87.3857634,47.4524898 87.1477634,43.6084898 C86.7187634,36.6394898 82.9417634,31.6504898 77.3597634,27.9164898 C71.5197634,24.0104898 65.2367634,20.8974898 58.5957634,18.6264898 C49.7677634,15.6074898 42.0677634,17.6304898 35.3447634,24.1054898 C31.9477634,27.3784898 28.8437634,30.7874898 26.7037634,35.0314898 C24.3177634,39.7664898 23.8697634,44.6994898 24.9357634,49.8304898 C25.8457634,54.2094898 26.8657634,58.5684898 27.6217634,62.9734898 C28.0197634,65.2894898 29.2737634,67.1544898 30.4037634,69.0244898 C32.5987634,72.6544898 35.0417634,76.1344898 38.8217634,78.4384898 C39.8477634,79.0634898 41.0747634,78.7414898 41.9467634,79.4794898 C43.3347634,80.6544898 44.8537634,81.7434898 45.7097634,83.4054898 C46.2977634,84.5474898 47.2037634,85.2824898 48.2467634,85.9204898 C48.2387634,86.0384898 48.2287634,86.1564898 48.2197634,86.2744898" id="Fill-4" fill="#F9EFE8" mask="url(#mask-12)"></path>
            </g>
            <path d="M73.0849665,150.8279 C73.6469665,150.2659 74.4179665,150.1139 75.0769665,150.2979 C77.8289665,151.0679 80.1869665,149.8669 82.6339665,148.9939 C83.2399665,148.7769 83.8519665,148.5159 84.1329665,148.0149 C85.2419665,146.0379 87.1689665,145.8909 88.9379665,146.1669 C91.7549665,146.6089 93.3839665,145.0399 94.8309665,143.1889 C97.1999665,140.1589 99.5259665,137.0859 101.868967,134.0489 C104.700967,130.3769 106.028967,125.7179 106.016967,120.9689 C106.012967,119.2189 105.052967,117.5049 104.800967,115.6649 C104.560967,113.9179 104.405967,112.3159 104.936967,110.5889 C106.261967,106.2749 104.202967,102.8859 101.472967,99.9289 C97.3899665,95.5039 92.0419665,93.3349 86.2589665,92.1169 C84.3629665,91.7179 82.4239665,91.3699 80.7569665,90.3539 C76.5399665,87.7849 72.4539665,87.9509 68.5239665,90.8519 C65.9859665,92.7249 63.0259665,93.9529 60.6609665,96.0699 C60.0599665,96.6079 59.2799665,97.1589 59.0429665,97.8589 C56.5369665,105.2449 53.9109665,112.5349 56.9139665,120.5729 C58.6069665,125.1049 60.3299665,129.4739 63.6779665,133.0409 C64.1649665,133.5589 64.5949665,134.2669 65.2029665,134.5119 C68.5209665,135.8499 70.3139665,138.7199 72.3719665,141.3529 C74.9759665,144.6859 81.9259665,144.9009 84.5479665,141.5739 C86.1809665,139.5019 87.8799665,138.1909 90.5989665,137.5409 C94.2299665,136.6729 96.4999665,134.1439 97.3089665,130.0939 C98.4999665,124.1319 99.2029665,118.0659 100.896967,112.2059 C101.385967,110.5149 100.949967,109.2109 99.8739665,107.7249 C96.1339665,102.5629 90.9239665,100.0179 84.9429665,98.6429 C84.2499665,98.4839 83.4439665,98.4549 82.8969665,98.0719 C80.0369665,96.0659 77.1069665,96.6999 74.1239665,97.6339 C72.0859665,98.2729 70.0359665,98.8799 67.9749665,99.4419 C65.1599665,100.2089 63.3989665,102.0079 62.7789665,104.8219 C61.6589665,109.9109 61.2519665,114.8489 63.0659665,120.0649 C64.2409665,123.4419 65.2199665,126.7609 67.3799665,129.6459 C68.1389665,130.6579 69.0359665,131.4929 70.2369665,131.8379 C73.2099665,132.6909 75.9009665,134.0359 78.1889665,136.1279 C79.0509665,136.9159 79.8959665,136.9849 80.9759665,136.5339 C84.8209665,134.9299 88.0619665,132.5689 90.6079665,129.2529 C91.1189665,128.5869 91.6719665,127.8339 91.6559665,127.0899 C91.5869665,123.7939 93.0469665,120.4929 91.6389665,117.1999 C91.4429665,116.7409 91.3339665,116.2199 91.2979665,115.7199 C90.8409665,109.3169 86.2959665,106.2839 81.1239665,104.4199 C78.0579665,103.3159 74.7049665,104.6729 71.9579665,106.6119 C67.8719665,109.4959 67.3069665,114.1999 69.6509665,118.5939 C71.2779665,121.6429 74.0019665,123.0289 76.5669665,124.6929 C78.7139665,126.0849 80.8809665,125.2239 82.2949665,122.9899 C83.3449665,121.3309 83.2709665,119.4529 83.1289665,117.6729 C83.0189665,116.2869 81.2969665,116.2579 80.3749665,115.5149 C79.4179665,114.7449 78.3809665,114.5919 77.4509665,115.3339 C76.5859665,117.4259 78.7949665,118.1879 79.1679665,119.7009 C77.0269665,120.1079 76.6349665,119.7199 75.3139665,116.0069 C76.1169665,114.7929 77.1649665,113.6519 78.7129665,113.9189 C80.7149665,114.2649 82.5879665,115.2669 83.9869665,116.7189 C85.1569665,117.9339 83.9979665,123.1459 82.6829665,124.7049 C80.6679665,127.0929 76.9009665,126.9739 75.1879665,125.5869 C74.0619665,124.6759 72.7919665,124.0999 71.5959665,123.3609 C69.0679665,121.7989 67.6189665,119.2019 66.9719665,116.4549 C65.7269665,111.1669 67.3289665,107.9179 71.9329665,105.1789 C79.6939665,100.5599 90.1589665,105.1039 92.4489665,113.8739 C93.5229665,117.9849 93.5599665,122.0489 93.1999665,126.1869 C93.0349665,128.0809 92.1969665,129.5429 90.8069665,130.9469 C88.1239665,133.6589 85.1139665,135.8159 81.7439665,137.5359 C79.5069665,138.6789 78.5109665,138.5769 76.5569665,136.8559 C74.7709665,135.2829 72.5749665,134.4039 70.4479665,133.5249 C67.9929665,132.5119 66.2049665,131.1429 64.8159665,128.7609 C61.5699665,123.1909 60.0429665,117.2689 60.2299665,110.8909 C60.3249665,107.6479 61.0279665,104.5079 62.5249665,101.5779 C63.0189665,100.6119 63.7369665,100.0009 64.7109665,99.5659 C68.9139665,97.6909 73.3739665,96.6699 77.8119665,95.5819 C78.5959665,95.3899 79.4349665,95.3819 80.2229665,95.6919 C84.0019665,97.1789 88.0629665,97.9089 91.7639665,99.4759 C96.1149665,101.3209 99.5659665,104.5829 102.125967,108.6459 C102.503967,109.2459 102.715967,109.9609 102.521967,110.6959 C101.722967,113.7409 101.498967,116.8919 100.590967,119.9339 C99.6389665,123.1249 99.5059665,126.5099 98.7339665,129.7709 C97.4059665,135.3809 95.3239665,137.7039 89.0179665,139.2669 C87.8019665,139.5679 86.8479665,139.9589 86.4259665,141.0569 C85.3559665,143.8449 83.1159665,144.6279 80.4429665,145.0189 C78.4909665,145.3049 76.5969665,145.2849 74.6869665,144.9039 C73.2299665,144.6129 72.0459665,143.9299 71.2529665,142.5989 C69.5629665,139.7649 67.4939665,137.3269 64.3989665,135.8869 C62.8899665,135.1839 61.9689665,133.7699 60.9579665,132.4969 C56.6279665,127.0429 54.9249665,120.5069 53.9779665,113.8729 C53.5609665,110.9559 53.5009665,107.5939 55.4519665,104.7909 C56.0309665,103.9589 56.2859665,102.9419 56.3349665,101.8989 C56.5399665,97.5809 58.9359665,94.7029 62.6449665,92.9499 C65.0609665,91.8069 67.1349665,90.1799 69.4069665,88.8419 C72.5619665,86.9839 75.7859665,86.6279 78.9809665,88.3299 C82.9169665,90.4269 87.3109665,90.9309 91.4439665,92.3169 C96.1879665,93.9079 100.372967,96.5349 103.553967,100.2379 C105.972967,103.0559 107.556967,106.6839 106.476967,110.7039 C105.675967,113.6849 106.246967,116.4639 107.050967,119.3469 C107.863967,122.2589 107.121967,125.1999 106.264967,128.0279 C104.850967,132.6949 101.863967,136.4069 98.6979665,139.9659 C97.6099665,141.1889 96.6449665,142.4769 95.7099665,143.8079 C94.1089665,146.0859 92.1269665,147.6369 89.0969665,147.3469 C87.2569665,147.1699 85.7099665,147.6079 84.1279665,148.9429 C81.9109665,150.8129 79.3029665,152.4059 76.0489665,151.4259 C75.0839665,151.1349 74.0169665,151.7659 73.0579665,151.1819 C73.0669665,151.0639 73.0759665,150.9459 73.0849665,150.8279" id="Fill-7" fill="#F9EFE8"></path>
            <path d="M58.9340665,61.8367 C50.8780665,64.4317 45.6150665,70.3187 41.0330665,77.0117 C40.8080665,77.3397 40.5550665,77.6507 40.2950665,77.9517 C40.2460665,78.0097 40.1010665,77.9847 40.0070665,77.9977 C40.4440665,75.5977 42.1820665,73.9707 43.5420665,72.1257 C46.6420665,67.9217 50.6240665,64.7427 55.2130665,62.3137 C56.3570665,61.7087 57.6090665,61.2467 58.9320665,61.9217 L58.9340665,61.8367 Z" id="Fill-9" fill="#F9EFE8"></path>
            <path d="M31.1293665,93.5384 C32.7503665,88.4204 36.1213665,84.2584 38.4213665,79.5064 C38.8083665,80.9624 38.0423665,81.9784 37.4963665,83.0134 C35.8413665,86.1494 34.0503665,89.2134 32.3213665,92.3104 C32.0143665,92.8614 31.6323665,93.3094 31.0183665,93.5194 L31.1293665,93.5384 Z" id="Fill-11" fill="#F9EFE8"></path>
            <path d="M25.5395665,121.2698 C24.6535665,118.8848 25.3725665,116.4808 25.4615665,114.0848 C25.5485665,111.7488 26.0075665,109.4748 26.5905665,106.8958 C27.3445665,107.6978 27.0185665,108.4088 26.9515665,109.0068 C26.5315665,112.7438 25.8815665,116.4588 25.9875665,120.2428 C25.9985665,120.6608 25.8515665,121.0358 25.4565665,121.2618 L25.5395665,121.2698 Z" id="Fill-13" fill="#F9EFE8"></path>
            <path d="M31.0185665,93.5193 C30.4185665,97.5133 29.2695665,101.3393 27.4555665,104.9603 C28.5115665,101.1013 28.6945665,96.9633 31.1315665,93.5393 C31.1295665,93.5383 31.0185665,93.5193 31.0185665,93.5193" id="Fill-15" fill="#F9EFE8"></path>
        </g>
    </g>
</svg>