<?xml version="1.0" encoding="UTF-8"?>
<svg width="600px" height="400px" viewBox="0 0 600 400" version="1.1" xmlns="http://www.w3.org/2000/svg" xmlns:xlink="http://www.w3.org/1999/xlink">
    <title>shapes-02</title>
    <defs>
        <polygon id="path-1" points="0 0 9 0 9 5 0 5"></polygon>
        <polygon id="path-3" points="-1.07014944e-15 1.66658636e-14 35 1.66658636e-14 35 17 -1.07014944e-15 17"></polygon>
    </defs>
    <g id="shapes-02" stroke="none" stroke-width="1" fill="none" fill-rule="evenodd">
        <polygon id="Fill-1" fill="#FFF4F6" transform="translate(300.465500, 199.661340) rotate(-270.000000) translate(-300.465500, -199.661340) " points="100.33866 499.66134 500.59234 499.66134 500.59234 -100.33866 100.33866 -100.33866"></polygon>
        <g id="Group-71" transform="translate(-18.000000, -29.000000)">
            <path d="M467,427.999779 C459.950606,428.021296 458.639255,426.507944 449,407.482265 C452.049655,406.176909 454.599635,407.706997 455.861723,409.8539 C457.567184,412.753894 460.628568,414.609125 461.036752,418.721234 C461.38629,422.233263 465.683957,424.286927 467,427.999779" id="Fill-1" fill="#403A8B"></path>
            <path d="M58,125 C56.9972335,132.014456 55.3196194,133.103394 35.2048834,140 C34.3637001,136.782684 36.2385408,134.463388 38.5339732,133.511157 C41.6325692,132.22423 43.9042394,129.44296 48.0056019,129.617379 C51.5152848,129.765871 54.1576458,125.784884 58,125" id="Fill-3" fill="#E65353"></path>
            <path d="M542.715709,342 C539.820814,339.796117 537.434303,337.667476 538.969994,333.902913 C539.596914,332.356796 538.709216,331.019417 537.826786,329.747573 C536.725725,328.160194 536.717823,326.57767 537.842591,325 C544.915198,327.313107 546.150599,328.978155 544.11706,335.084951 C543.379507,337.305825 546.050503,339.728155 542.715709,342" id="Fill-5" fill="#E75253"></path>
            <g id="Group-9" transform="translate(121.000000, 40.000000)">
                <mask id="mask-2" fill="white">
                    <use xlink:href="#path-1"></use>
                </mask>
                <g id="Clip-8"></g>
                <path d="M7.88035452,5 C5.40185592,3.61601142 3.2334874,2.40423387 0,0.59811828 C3.50548674,0.541414651 6.04245248,1.03914651 8.37097014,-0.000420026882 C8.84379141,1.97790659 9.72334065,3.51520497 7.88035452,5" id="Fill-7" fill="#403A8B" mask="url(#mask-2)"></path>
            </g>
            <path d="M198.801808,400 C196.431515,398.545926 197.296287,396.881819 197,395.112695 C199.594314,394.739079 201.465978,395.250024 201.940518,397.316021 C202.330749,399.020519 200.745737,399.719283 198.801808,400" id="Fill-10" fill="#E65353"></path>
            <path d="M519.619681,336 C521.661386,337.170602 521.416942,338.966329 522,340.284161 C521.392898,340.658271 521.036251,341.073412 520.799822,340.988936 C518.028794,340.021078 519.164856,338.16501 519.619681,336" id="Fill-12" fill="#403A8B"></path>
            <path d="M518.656588,350 C518.035174,348.566658 516.250063,347.907719 517.35092,346.366877 C517.558058,346.076227 518.696153,345.883124 518.961476,346.080209 C520.471955,347.201002 520.304382,348.405407 518.656588,350" id="Fill-16" fill="#403A8B"></path>
            <path d="M607.49767,312.869767 C610.680069,312.582353 613.862468,312.256616 617.049696,312.019499 C619.493238,311.835075 621.340381,312.960782 621.765345,315.315186 C623.738046,326.227357 624.281324,337.304792 616.1056,345.97513 C611.254736,351.122245 604.448072,354.463439 597.564142,356.693297 C592.744667,358.254916 588.202867,361.488329 582.419979,359.215359 C575.775092,356.599887 571.395068,342.442327 575.738873,336.720383 C576.554997,335.644973 576.311125,333.831867 576.772308,332.430721 C581.026774,319.532994 590.252834,313.597884 607.49767,312.869767" id="Fill-18" fill="#FFFFFF"></path>
            <path d="M542.9909,88.1113276 C545.233019,89.5252268 547.195775,93.2238533 550.666121,89.6089603 C547.886954,89.065889 545.440132,88.5898045 542.9909,88.1113276 M550.073682,78.0633125 C558.285952,77.6350757 567.112336,79.8647781 574.857397,83.472494 C581.513911,86.5730243 586.344942,93.3554345 592.428283,97.9224966 C596.763205,101.17614 597.543491,105.20013 596.698182,109.795901 C595.710783,115.15245 591.332511,116.611805 586.833825,115.78404 C575.690666,113.728981 564.72572,110.68826 553.565703,108.767176 C546.323974,107.520743 539.166535,106.752788 532.94833,102.307737 C530.576164,100.613929 529.420185,99.1282584 530.287169,96.0923224 C533.307165,85.5060208 538.198403,77.1876998 550.073682,78.0633125" id="Fill-20" fill="#FFFFFF"></path>
            <path d="M18.0309438,85.8893788 C12.1046648,86.6291742 9.54348783,83.5478907 8.75616305,79.9446804 C7.13408428,72.4940555 3.7025814,65.874204 0.664740906,59.0604255 C-0.525732105,56.3909375 -0.110726573,54.2122522 1.85758538,52.4309974 C7.20759955,47.5852182 13.0413916,43.3116432 19.5866217,40.3644327 C22.2758575,39.1529879 25.1714104,41.1976002 27.3887257,43.0434973 C34.8445965,49.2563417 42.3123246,55.4643977 49.5405353,61.9429938 C55.3600985,67.1598677 53.4913879,73.5139675 46.5216664,76.6838349 C37.403402,80.8305194 28.0977923,83.9740511 18.3084047,85.8151599 C17.7700832,85.9157146 17.2507334,86.1216123 18.0309438,85.8893788" id="Fill-22" fill="#FFFFFF"></path>
            <path d="M125.786535,292.956814 C130.301318,292.683454 129.984703,289.5518 131.572611,286.489685 C129.310386,289.019467 127.782901,290.726769 125.786535,292.956814 M121.979906,285.341092 C124.244548,280.981715 128.256614,277.571905 131.582279,273.653741 C133.027589,271.951234 135.432412,273.953478 136.713373,275.349055 C140.280728,279.236046 143.81183,283.190179 146.951392,287.412875 C149.348964,290.635649 147.038401,293.728937 145.916956,296.913344 C144.077689,302.131169 139.959279,305.267618 136.080143,308.665438 C135.149634,309.480724 134.086195,308.634266 133.44088,307.950865 C129.552077,303.831278 125.112218,300.220045 122.018577,295.361905 C119.925535,292.069592 118.80409,288.928347 121.979906,285.341092" id="Fill-24" fill="#FFFFFF"></path>
            <path d="M403.495532,74 C397.132915,72.2176112 394.621543,66.5923243 390.703898,62.6405965 C387.229715,59.1362798 383.945248,55.4336512 380.627581,51.7697176 C376.928109,47.6777204 380.478179,43.9484889 382.02674,40.9351151 C388.664446,27.9988901 396.042045,15.4786364 404.702603,3.78307 C408.888223,-1.87123814 413.922825,-0.0646649214 418.694194,2.02486554 C423.368334,4.07086412 419.512347,8.07337908 419.377174,10.7626822 C418.385905,30.2020871 417.019946,49.6414921 414.994723,68.9986701 C414.226371,76.3289558 407.49855,73.0955042 403.495532,74" id="Fill-26" fill="#FFFFFF"></path>
            <path d="M428.996931,382.542083 C429.173235,391.679438 421.713689,392.120731 416.743835,395.290015 C407.185323,401.392597 395.47305,402.32474 385.840682,408.646788 C380.687377,412.028459 373.66859,412.594824 367.524173,414.536984 C362.237449,416.207761 357.012669,418.081485 351.725945,419.761701 C348.180815,420.889711 346.763239,417.753465 345.46717,415.790067 C343.830405,413.31458 346.920483,413.47033 348.197492,412.925204 C360.436294,407.695767 372.224807,401.555427 384.177711,395.747826 C392.371061,391.766753 401.214828,389.126076 409.636896,385.581575 C414.430446,383.56626 419.035781,381.173368 423.996105,379.457754 C428.456108,377.91677 428.694356,380.602283 428.996931,382.542083" id="Fill-28" fill="#FFFFFF"></path>
            <path d="M85.1828044,48.9867793 C86.8794045,51.8404167 94.1125287,53.192267 96.6550527,51.6614598 C93.119281,50.8368069 89.3530189,49.9589507 85.1828044,48.9867793 M72.1042512,33.0499399 C86.2188235,34.1696298 97.6245384,37.552883 108.91382,41.4464052 C109.004115,41.4778436 109.144311,41.4536602 109.187082,41.5117003 C110.508244,43.3423812 113.946592,39.6326526 113.998868,42.8079288 C114.058273,46.6022992 111.772377,49.7703204 108.868672,52.4788576 C100.832396,59.985375 92.0595,56.2877381 83.445809,54.4788221 C76.6047563,53.0399118 69.7874654,51.4268811 63.0675983,49.4970484 C60.3064648,48.7062522 56.9275218,47.3398919 57.0011837,43.7462435 C57.0605884,40.827311 58.277198,37.7366766 61.6442601,36.7548318 C65.8144747,35.5408268 69.5403416,32.5807825 72.1042512,33.0499399" id="Fill-30" fill="#FFFFFF"></path>
            <path d="M240.001388,87.4151713 C240.44218,78.0500865 249.740782,64.0146028 255.942182,64 C262.3185,63.9854584 266.591146,69.1804574 269.986873,74.0888694 C273.585504,79.2935833 271.98093,84.8796038 268.156072,89.5208582 C264.657727,93.7638051 260.867853,97.7444519 257.180597,101.814961 C256.313007,102.77187 255.242513,103.439764 253.969115,102.652864 C248.48371,99.2648209 243.518392,95.2647445 240.337229,89.3387054 C239.91976,88.5663773 240.013049,87.4953186 240.001388,87.4151713" id="Fill-32" fill="#FFFFFF"></path>
            <path d="M542.344858,393.139535 C548.252187,394.479584 551.666732,401.165152 555.403538,407.471693 C555.780299,408.107482 555.856125,408.924227 556.145212,409.623595 C558.597714,415.541326 555.574147,424.894764 549.614688,426.582051 C544.387424,428.061483 539.063009,425.396059 534.939963,421.997032 C532.018288,419.585923 529.359634,416.575706 530.136852,411.455157 C531.087048,405.185297 531.816875,399.145299 536.518094,394.49181 C537.591508,393.432977 538.712313,392.67492 542.344858,393.139535" id="Fill-34" fill="#FFFFFF"></path>
            <path d="M457.298036,77.2821707 C454.684023,71.6329688 455.94841,66.6057866 461.725756,62.1957644 C463.80939,60.6042688 466.158213,62.8979663 467.630962,60.3126971 C471.102106,54.2261376 475.607963,58.1380581 479.652106,59.447701 C482.957506,60.5167973 483.935393,63.3499024 482.045916,66.1732885 C476.834465,73.9533937 472.477777,82.2097327 467.907991,90.3688811 C466.295543,93.2481517 461.78495,92.0332696 460.387969,88.9231713 C458.891542,85.596824 456.706094,82.2121624 457.298036,77.2821707" id="Fill-36" fill="#FFFFFF"></path>
            <path d="M636,92 C630.523773,106.791387 622.242591,117.31302 611.769964,126.114042 C610.039247,127.568252 606.919182,128.272138 604.663283,127.903087 C598.327665,126.876586 597.052903,122.296437 602.13763,117.613638 C611.123034,109.340531 619.719326,100.490628 630.404413,94.3633958 C631.574139,93.6937263 632.894258,93.2977903 636,92" id="Fill-38" fill="#E65353"></path>
            <path d="M133.88441,397.530511 C134.598336,402.495804 131.826483,404.241735 130.465711,406.667711 C128.168211,410.760039 125.964144,414.941592 123.280932,418.771066 C121.48893,421.327263 118.954253,419.20996 116.963406,418.532327 C114.668302,417.755821 117.202978,416.612767 117.138294,415.604757 C116.618422,407.613022 119.567559,399.975779 119.385484,391.952695 C119.299238,388.21727 119.500479,383.372552 125.360421,383.008415 C126.759525,382.9216 127.691462,383.51242 128.551527,384.508372 C132.188237,388.716452 132.46135,394.2171 133.88441,397.530511" id="Fill-40" fill="#E75253"></path>
            <path d="M170.660574,78.1132721 C178.526397,80.7347107 186.471527,76.950913 194.35898,78.478655 C195.303455,78.6625726 197.290939,78.6086235 196.964098,80.4845828 C196.661289,82.2354781 196.183043,84.138412 194.058574,84.7294005 C189.980266,85.8672373 185.962039,87.5519223 181.809231,88.0252035 C177.007546,88.5695996 172.900399,91.3504334 168.161199,91.6839372 C166.702429,91.7869311 164.827897,94.0626046 164.150182,92.3852763 C163.054302,89.6804617 160.235295,87.4881642 161.196593,84.0133481 C162.568846,79.0426689 165.928584,77.546806 170.660574,78.1132721" id="Fill-42" fill="#E65353"></path>
            <path d="M158,33.4719237 C150.939445,38.1061637 147.355188,45.695465 141.971605,51.6642489 C140.527346,53.2676568 139.678065,53.4020889 138.396945,52.2044214 C136.403292,50.3394819 132.682286,47.8243801 134.474414,45.5414792 C138.771204,40.0664277 141.172705,32.8437593 147.976555,29.4609596 C150.531598,28.1899655 154.912357,29.5538399 158,33.4719237" id="Fill-44" fill="#403A8B"></path>
            <path d="M514.565326,41.0160078 C517.441798,41.4673366 520.455244,42.1958402 518.226957,46.5104453 C515.939966,50.9354297 513.692111,55.4094716 511.001534,59.5891687 C508.841734,62.9447001 504.886585,64.0141531 501.300779,64.9045463 C499.378239,65.3828567 497.125492,64.0509462 498.346036,61.1933482 C499.01868,59.6161503 499.816069,57.4944144 501.134452,56.8910074 C507.484215,53.9892577 507.939167,46.9887557 511.66684,42.3086723 C512.469121,41.3029941 513.107522,40.9129871 514.565326,41.0160078" id="Fill-46" fill="#E75253"></path>
            <path d="M601.760456,41.5118235 C601.869577,41.6043331 606.073204,40.0462764 602.678062,45.0637057 C601.021411,47.512776 602.082858,51.8996792 602.34822,55.3760931 C602.556541,58.0807821 603.501427,61.4549485 599.972365,61.8785452 C596.854985,62.2534525 592.373596,62.0733022 593.07296,56.651752 C593.665684,52.0749606 593.320962,47.3301912 595.783618,43.0844869 C596.763224,41.3974037 597.832111,40.3043296 601.760456,41.5118235" id="Fill-48" fill="#403A8B"></path>
            <path d="M317.977523,59.9658945 C318.235279,62.9788146 316.231046,65.1508042 314.282218,67.3078659 C312.885036,68.8528894 311.24937,67.4447037 310.897665,66.6236768 C308.455006,60.9013676 305.323392,55.2437454 308.067168,48.5710354 C308.838027,46.6951131 309.770284,46.6951131 311.13615,47.5509716 C315.527637,50.3076318 317.888392,54.2908566 317.977523,59.9658945" id="Fill-50" fill="#403A8B"></path>
            <g id="Group-54" transform="translate(228.000000, 412.000000)">
                <mask id="mask-4" fill="white">
                    <use xlink:href="#path-3"></use>
                </mask>
                <g id="Clip-53"></g>
                <path d="M23.2172251,0.275562783 C28.1765159,0.580479315 31.1911286,4.37786289 34.198512,8.08611702 C36.3504297,10.7388908 33.6442666,13.0726751 32.2152776,13.447957 C22.2966959,16.0538205 12.3010018,19.8019484 2.1655415,13.7106543 C-0.685207316,11.9984307 -0.446640846,10.4761935 1.29561731,8.44967135 C6.89590493,1.94322166 13.9757866,-0.951139879 23.2172251,0.275562783" id="Fill-52" fill="#FFFFFF" mask="url(#mask-4)"></path>
            </g>
            <path d="M544.352078,328 C546.422699,331.088743 551.061366,332.500602 551.865814,336.683175 C552.663123,340.827199 549.761873,343.662963 547.010565,346 C543.247746,344.166511 540.851062,341.390978 539.451607,337.321644 C537.73323,332.319904 541.255666,330.418953 544.352078,328" id="Fill-55" fill="#E65353"></path>
            <path d="M159,328 C156.392157,332.781596 153.080342,334.04709 149.429845,334.491655 C144.564936,335.087776 139.504076,333.486332 134.752867,335.981957 C134.380318,336.176454 132.965115,334.754352 132.386939,333.842489 C131.542655,332.508795 132.169215,331.038701 133.4054,330.594136 C135.522156,329.833829 137.784061,329.227605 140.007259,329.134145 C145.997073,328.884077 152.013497,329.561028 159,328" id="Fill-59" fill="#403A8B"></path>
            <path d="M611,388.798248 C608.347165,391.719875 605.650998,391.401701 602.598553,389.766705 C599.189828,387.941268 597.827301,384.782752 597.042524,381.589399 C596.700689,380.207548 598.460419,378.426238 600.858081,379.178708 C605.898949,380.755644 608.857511,384.339166 611,388.798248" id="Fill-61" fill="#403A8B"></path>
            <path d="M336.888616,385 C339.192676,390.937149 341.499135,396.871962 344,403.31127 C341.703141,403.549503 339.691888,403.778394 337.680636,403.965244 C335.762987,404.145087 334.898964,403.675627 335.009367,401.405403 C335.263774,396.178283 335.088569,390.932478 335.088569,385.691344 C335.688585,385.462453 336.2886,385.231226 336.888616,385" id="Fill-63" fill="#E65353"></path>
            <path d="M487.232419,364 C489.926414,365.196732 494.414725,364.085123 494.966629,368.814466 C495.165717,370.531951 494.51301,373.508758 491.95006,372.925414 C488.341267,372.106729 483.95628,371.410722 483.074242,366.741467 C482.522339,363.812228 485.160891,364.315456 487.232419,364" id="Fill-67" fill="#403A8B"></path>
            <path d="M53.6033334,309.837967 C54.461985,308.515738 55.7355715,306.440709 57.0907059,307.140428 C58.7360549,307.98733 59.4867754,310.337422 58.6641009,312.407626 C56.0857478,318.898126 53.4546284,325.366911 50.6460224,331.758485 C50.2382828,332.689836 48.7608265,333.14586 47.5184201,334 C45.6931859,324.65754 48.9167269,317.047489 53.6033334,309.837967 Z" id="Fill-57" fill="#E65353"></path>
            <path d="M604,276.765496 C602.57958,277.986212 601.43393,278.58877 600.311566,277.206202 C599.878454,276.671894 599.841197,275.821683 600.558393,275.382927 C602.300153,274.314312 602.882293,275.712481 604,276.765496" id="Fill-14" fill="#E75253"></path>
            <path d="M26.0693969,214.101142 C26.1737551,211.164984 36.2060546,204.853341 38.2468367,206.181081 C39.0214063,206.681423 39.3646288,207.44048 38.4601912,208.277639 C35.7167307,210.815964 32.9941418,213.381137 30.2622766,215.931665 C29.619894,216.529636 29.1421655,217.598661 28.0150972,216.573569 C27.1500838,215.787664 25.6612405,215.541154 26.0693969,214.101142" id="Fill-69" fill="#403A8B"></path>
            <path d="M620,194.048773 C619.148291,200.982284 612.634516,201.149356 608.776633,204.404814 C607.730591,205.289316 606.569387,206.942843 604.880364,205.304058 C603.376078,203.842173 604.129421,202.183732 604.724418,200.692364 C605.535341,198.660467 617.742371,193.441906 620,194.048773" id="Fill-65" fill="#403A8B"></path>
        </g>
    </g>
</svg>