<?xml version="1.0" encoding="UTF-8"?>
<svg width="600px" height="400px" viewBox="0 0 600 400" version="1.1" xmlns="http://www.w3.org/2000/svg" xmlns:xlink="http://www.w3.org/1999/xlink">
    <title>shapes-01</title>
    <defs>
        <polygon id="path-1" points="0 0 183 0 183 167 0 167"></polygon>
    </defs>
    <g id="shapes-01" stroke="none" stroke-width="1" fill="none" fill-rule="evenodd">
        <g id="Group-90" transform="translate(309.500000, 175.500000) rotate(-270.000000) translate(-309.500000, -175.500000) translate(61.000000, -182.000000)">
            <path d="M16.4492881,189.470531 C11.1386888,189.400624 5.35667285,184.540788 3.01521685,178.192191 C2.30158064,176.265863 1.66347528,174.308465 1.1113188,172.330354 C0.249225431,169.241497 3.78875682,164.076142 6.97667913,163.830173 C9.80778333,163.612684 11.8887882,161.849472 14.6599886,160.689533 C7.40121453,159.886896 1.11392331,151.839816 0.15546301,145.88218 C-0.0919656004,144.349403 0.0174238905,142.746719 0.0695141243,141.180283 C0.121604358,139.518048 1.79890989,139.549118 2.68444386,139.409304 C6.79436331,138.762016 9.62807203,135.481562 13.5192125,134.466615 C14.2146171,134.285375 14.8813721,134.005747 15.7903467,133.695048 C11.1985926,130.626905 6.46619483,127.789196 5.08319913,121.935126 C5.08580364,121.935126 5.34625481,121.813436 5.48168942,121.751297 C2.30158064,118.118718 6.4141046,115.407878 7.73198752,113.996791 C10.4276571,111.10212 13.7796637,108.373155 18.087526,107.257231 C26.2474611,105.149663 34.6470113,104.108824 42.7288111,101.817426 C48.0446194,100.307951 53.4385632,98.568042 57.8401879,94.8474326 C60.085277,92.946996 65.2786733,94.4202227 68.1436362,97.5039011 C71.9540368,101.610294 73.4646535,106.630657 74.4752041,111.977253 C75.0325696,114.910761 72.4514985,115.195567 71.2872818,116.673972 C70.8002381,117.29019 70.2480816,117.857214 69.0760513,119.18027 C73.4776761,117.546516 77.1656647,116.513445 80.5228802,114.830497 C83.367007,113.406464 86.5419067,112.891223 89.3026891,111.047748 C90.5528547,110.211452 93.7876583,110.071638 94.9023893,113.010324 C95.0326148,113.35727 95.842618,113.499674 96.3661248,113.636899 C102.135118,115.159319 103.351425,120.070938 104.882878,124.801316 C106.917002,131.092952 101.869458,133.500862 98.3142996,136.644091 C95.7722962,138.886295 92.9724461,140.835926 90.2819855,142.922781 C92.0817031,144.137093 93.8788162,143.59855 95.6733247,143.264549 C101.64547,142.146036 106.84668,144.911249 109.651739,150.286326 C112.102584,154.972688 113.305869,159.832524 112.933424,165.098856 C112.811012,166.812874 112.073935,168.027186 110.547691,168.881605 C105.802271,171.535485 101.11415,174.295519 96.3426842,176.905383 C94.9831291,177.648469 94.4492042,178.588331 94.9727111,179.945046 C96.8870272,184.890324 94.7122599,187.173955 90.1986411,189.369554 C83.5623454,192.600814 77.4547655,196.901393 71.0893389,200.697088 C65.4714072,204.050038 59.3638273,206.085111 52.9228698,207.190678 C52.5582382,207.252818 52.0138953,207.255407 51.8758561,207.480663 C49.8156874,210.799954 47.0991817,209.637425 44.9009738,208.089113 C41.6427297,205.800304 39.3611775,207.985547 36.8009425,209.192091 C34.344888,210.349442 31.9357146,211.610358 29.4770556,212.767708 C27.3726102,213.756764 21.6478935,211.45242 19.5460525,208.412757 C15.5897993,202.680378 13.07905,196.588106 16.4492881,189.470531" id="Fill-1" fill="#FF6F54"></path>
            <path d="M491.796952,482.763573 C480.049058,489.064663 471.969613,485.126157 462.926157,479.775294 C458.36144,477.075197 456.086898,472.095597 454.398578,467.479471 C446.947042,447.127496 440.743507,426.404257 435.751499,405.268215 C433.440481,395.475174 429.553176,385.936565 428.479738,375.894284 C427.210893,364.013861 424.055714,352.260653 425.275056,340.162145 C426.517848,327.804013 430.131582,316.364951 436.535734,305.494468 C443.65117,293.427114 451.884336,281.94132 457.108227,268.791333 C459.333266,263.188633 464.609267,259.909574 468.39496,255.519321 C470.679924,252.865957 471.815892,249.781617 473.603219,247.021807 C479.520155,237.888212 489.73866,233.677101 497,226" id="Fill-3" fill="#FCE6D6"></path>
            <path d="M445.8955,378.567404 C448.6345,376.309859 446.1145,374.162823 445.1125,372 C445.4095,374.202291 445.7065,376.40195 446.0005,378.60161 C445.0375,382.216839 445.6405,385.692617 447.8875,389 C447.2215,385.524222 446.5585,382.045813 445.8955,378.567404" id="Fill-5" fill="#FCE6D6"></path>
            <path d="M447.259511,344.080722 C447.838315,343.270947 448.419158,342.461172 449,341.651396 C448.478261,341.434264 447.952446,341.217132 447.42663,341 C447.316576,342.006471 447.206522,343.015497 447.096467,344.021969 C446.72962,348.014646 446.366848,352.007323 446,356 C448.610734,352.188692 447.290082,348.088726 447.259511,344.080722" id="Fill-7" fill="#FCE6D6"></path>
            <path d="M480.636364,86.5083845 C476.237982,88.8258069 475.509271,94.2244071 473.059341,98.2053517 C465.563287,110.375743 455.076647,119.240014 442.414322,125.669161 C438.271903,127.769489 434.121649,129.88551 430.143778,132.276169 C421.908565,137.217039 412.782707,134.76099 404.072135,135.80723 C391.903453,137.26412 382.874234,130.144454 373.092797,125.174813 C369.007839,123.100641 364.617293,124.871403 360.717778,123.066638 C348.543872,117.427403 340.125829,107.736601 332.836112,96.8844733 C322.657672,81.727066 314.388505,65.8242125 317.768259,46.735557 C320.777129,29.7236887 327.701184,14.5845907 337.563589,1.42108547e-14 L497,37.4263566" id="Fill-9" fill="#FFD44C"></path>
            <path d="M437.930887,653.57669 C438.682535,648.14713 441.035294,643.592549 444.453745,639.504103 C449.77963,633.144877 456.38486,632.353229 463.775201,634.735986 C467.324933,635.881792 470.802589,637.189053 474.553104,637.715083 C479.1016,638.355693 482.496884,640.80876 484.749252,645.079493 C485.807221,647.087259 486.749354,648.865863 486.440458,651.206954 C486.193341,653.084514 485.14052,653.831893 483.451888,653.831893 C478.584199,653.834497 473.986794,652.399634 469.52067,650.701758 C463.345321,648.35025 462.122607,650.079376 458.953847,655.420397 C456.662867,659.282286 455.694992,663.313441 456.855927,667.953958 C457.641038,671.117946 454.335849,673.422579 450.698596,672.990298 C445.321228,672.349688 440.885994,669.599752 436.533132,666.711799 C433.027161,664.386333 429.498022,663.412397 425.765526,665.881089 C423.32782,667.495635 422.596766,670.248175 421.883731,672.925195 C420.686758,677.404257 421.757598,681.904152 421.891453,686.383213 C422.043327,691.567988 418.295387,697.53139 414.441907,698.380328 C407.486595,699.908938 401.421933,697.859507 395.619833,694.28407 C393.771604,693.143472 391.892486,692.047143 390.098314,690.823213 C387.995246,689.390955 386.721049,689.685219 385.94366,692.177348 C384.800744,695.817888 383.003998,699.153747 381.511,702.630229 C381.289625,703.145841 381.266457,703.846346 381.400312,704.398416 C382.15196,707.559801 380.718167,709.645689 377.536536,709.492047 C370.653299,709.161326 366.035301,704.887988 363.64393,698.526158 C363.09564,697.067859 364.259148,695.638205 364.704474,694.231988 C366.354494,689.002944 368.295392,683.885876 371.613452,679.456292 C375.21724,674.643905 382.190572,673.271541 388.775209,675.41472 C393.148664,676.836562 395.91071,680.214087 399.233918,682.917149 C401.522324,684.781688 402.286842,684.711377 403.298477,681.964046 C405.651237,675.570967 407.836677,669.099764 410.493184,662.834286 C412.238448,658.711987 414.846046,654.837077 418.910605,652.77723 C424.998434,649.68876 431.232989,650.558532 437.292502,653.303259 C437.464969,653.378778 437.64001,653.451693 437.930887,653.57669" id="Fill-11" fill="#EF652D"></path>
            <path d="M61.0227906,252.998622 C72.1913677,251.815783 82.5869967,246.910629 93.9514221,246.547477 C109.183199,246.062409 123.096264,249.2374 135.460821,258.697523 C142.059604,263.750531 144.250494,270.336562 145.023442,277.975735 C146.93231,299.995749 142.78816,321.582574 138.249701,342.80884 C128.762809,387.180892 117.427108,431.158665 107.548518,475.452899 C103.534933,493.460077 98.704008,511.249364 94.6878117,529.225414 C92.4943105,539.035721 87.141123,536.506623 80.6859623,535.253747 C64.8770856,532.177326 62.0594811,518.761433 56.5,507.101643" id="Fill-13" fill="#F2D5CA"></path>
            <path d="M132.350326,281.5 C132.188326,283.752427 132.056326,285.627292 131.921326,287.5 C132.893326,285.627292 135.995326,283.735167 132.350326,281.5" id="Fill-15" fill="#F2D5CA"></path>
            <g id="Group-19" transform="translate(101.000000, 548.000000)">
                <mask id="mask-2" fill="white">
                    <use xlink:href="#path-1"></use>
                </mask>
                <g id="Clip-18"></g>
                <path d="M15.8188955,167.000521 C1.01308893,157.489907 -1.44760906,145.035717 0.648926441,129.554594 C3.14083836,111.14813 13.9616668,97.5738181 22.4414505,82.717879 C26.4654461,75.6689274 33.1270186,69.6932087 38.1940796,62.8630715 C47.105656,50.8413008 56.8313958,39.4733685 66.5441297,28.0793868 C78.2727632,14.3253349 92.2357936,4.61674564 109.824842,0.295160008 C116.939017,-1.45275076 125.46302,4.75220221 131.76043,13.887706 C147.98647,37.4232854 158.776085,63.7096751 171.313679,89.1416465 C175.779872,98.1990022 182.550693,105.907002 182.982486,116.910244 C183.367458,126.741265 177.371782,138.098777 168.371766,141.831648" id="Fill-17" fill="#FFE4AC" mask="url(#mask-2)"></path>
            </g>
            <path d="M157.297354,57.6296334 C156.56914,59.6053484 155.793606,61.5595297 155.677933,63.7102058 C155.641128,64.3831333 155.38875,64.9914597 154.747291,65.3979079 C149.636651,68.6118093 144.178992,70.8970709 138.187661,71.564615 C135.763787,71.8337859 133.797348,70.006115 130.952845,70.461014 C109.527065,73.8956356 88.2301026,78.390791 66.5203981,79.7312624 C56.4673694,80.3530474 46.3933094,80.6222184 36.3271361,80.9855992 C34.5315769,81.0502002 32.3863699,80.9829075 31.7291374,78.9129827 C30.803754,76.0005527 30.317402,72.9212367 33.0567471,70.4933145 C39.9156257,64.4154338 48.4149566,62.2028483 56.822275,59.6161152 C61.8777075,58.060307 66.6991653,55.7104444 71.6573274,53.8020221 C77.2884956,51.6351957 83.2561669,50.8761336 89.1081653,49.6352554 C100.210137,47.2773176 111.301593,44.844012 122.445628,42.7094861 C127.953236,41.6543359 133.313624,39.9908592 138.773912,38.9276339 C143.124792,38.082437 147.872639,36.9922945 152.131506,39.853582 C153.456487,40.744538 154.663166,41.8266053 156.014436,42.6691105 C158.138611,43.9988151 157.45246,46.6851415 157.4288,48.05253 C157.373593,51.2179807 158.827391,54.5045584 157.297354,57.6296334" id="Fill-20" fill="#FFD44C"></path>
            <path d="M425.067198,531.520364 C425.690268,532.08101 425.485275,532.773422 425.390871,533.460666 C424.241833,541.782523 422.43466,549.939028 419.044189,557.726075 C418.337504,559.343424 417.234319,560.637821 416.025942,561.857292 C414.944335,562.955333 413.922069,562.614294 413.668526,561.079621 C413.374523,559.299503 413.46623,557.454794 413.935556,555.741851 C415.381293,550.458337 416.357706,545.012055 418.928206,540.077331 C420.349669,537.346439 422.456238,534.974671 423.783296,532.16627 C423.980197,531.75289 424.449523,531.411851 425.067198,531.520364" id="Fill-22" fill="#735645"></path>
            <path d="M359.5,580.5 C360.425472,578.514175 361.188536,576.432588 362.320241,574.565207 C364.333595,571.233659 366.073689,567.758466 368.486619,564.631044 C371.531139,560.679556 374.387471,556.591983 377.710407,552.849661 C378.808599,551.612301 378.713216,549.691999 380.437843,548.5 C380.716258,550.725232 380.007331,552.600173 379.344806,554.437313 C376.305442,562.851866 371.523405,570.170184 364.743483,576.18814 C363.085883,577.659868 361.758255,579.491967 359.5,580.5" id="Fill-24" fill="#735645"></path>
            <path d="M381.440908,573.5 C381.707488,574.945342 381.012913,575.699654 380.538449,576.504591 C376.583773,583.235178 371.704627,589.153235 365.903457,594.261292 C365.617312,594.514417 365.316492,594.749823 365.02301,594.997885 C364.372457,595.547166 363.746361,595.739541 363.007763,595.091541 C362.210469,594.390386 362.477049,593.714543 362.956404,593.046293 C363.69011,592.028732 364.487404,591.059264 365.22111,590.041702 C368.31735,585.748707 371.389133,581.43293 375.265548,577.833496 C377.080248,576.150216 378.941416,574.509968 381.440908,573.5" id="Fill-26" fill="#735645"></path>
            <path d="M365.667608,609.5 C365.087533,607.647876 366.131126,606.612252 366.998528,605.506195 C369.83385,601.903685 373.268221,598.796813 375.9653,595.061262 C379.700551,589.883142 384.492949,585.440654 387.463802,579.704288 C387.88124,578.895614 388.512817,577.977378 389.464249,577.5 C390.480736,577.653909 390.659638,578.225198 390.383153,579.03648 C389.930478,580.38253 389.20945,581.605975 388.545345,582.863333 C385.655811,588.375357 382.35155,593.579563 377.46699,597.714233 C374.151887,600.521114 371.706897,604.081886 368.746886,607.196584 C367.930986,608.052213 367.30483,609.181748 365.667608,609.5" id="Fill-28" fill="#735645"></path>
            <path d="M398.003382,599 C399.54032,601.183511 398.974641,602.665001 398.446319,604.114013 C397.20823,607.49171 394.737389,610.134908 392.253206,612.708154 C389.157984,615.915966 385.996054,619.103793 381.572021,621 C380.550064,619.808313 381.086391,618.851465 381.718777,617.80218 C383.447832,614.926641 385.61182,612.370883 388.093334,610.057461 C391.626157,606.764706 395.962136,604.161481 398.003382,599" id="Fill-30" fill="#735645"></path>
            <path d="M390.747008,557.5 C389.416301,556.975923 389.384991,555.80286 389.598947,554.665098 C389.891181,553.128168 390.287783,551.604815 390.744398,550.108617 C392.213394,545.310463 393.397983,540.436278 394.577354,535.556662 C395.258363,532.72719 396.442952,530.112238 398.034581,527.5 C400.106308,531.50525 394.82784,552.614953 390.747008,557.5" id="Fill-32" fill="#735645"></path>
            <path d="M399.5,556.5 C399.3637,564.055658 398.084958,570.731939 392.085281,575.5 C389.899525,572.149403 394.159519,560.707552 399.5,556.5" id="Fill-34" fill="#735645"></path>
            <path d="M415.5,569.5 C411.752635,579.025478 408.163142,588.090131 401.017392,595.5 C400.070164,594.688318 400.646256,593.837362 400.998004,593.078046 C403.30237,588.082276 405.99726,583.256697 409.052206,578.656294 C410.661385,576.23434 411.46459,573.511279 413.029454,571.115509 C413.444904,570.481873 413.641551,569.617825 415.5,569.5" id="Fill-36" fill="#735645"></path>
            <path d="M376,625.02409 C371.705204,631.452948 364.919794,634.851791 359.404676,640 C358.397385,638.235266 359.507246,637.354179 360.172637,636.572983 C362.644841,633.676155 365.611485,631.255728 368.72278,629.058134 C370.027261,628.138628 371.342263,627.219122 372.662525,626.309861 C373.543576,625.705395 374.335208,624.844799 376,625.02409" id="Fill-38" fill="#735645"></path>
            <path d="M350.798061,597 C348.571773,594.959393 348.584947,594.671246 349.899642,592.761616 C351.327627,590.692194 352.586994,588.507514 353.957017,586.40142 C354.43916,585.662715 354.923937,584.633243 356.059476,585.130952 C357.239803,585.649617 357.076454,586.773392 356.805084,587.771429 C355.801279,591.496387 353.461701,594.341187 350.798061,597" id="Fill-40" fill="#735645"></path>
            <path d="M352,627 C354.98652,620.737889 359.945696,616.323529 365,612 C361.853264,618.08564 357.502407,623.076125 352,627" id="Fill-42" fill="#735645"></path>
            <path d="M406.841962,545 C406.634962,546.963223 406.481962,548.404543 406.313962,550 C403.310962,548.442401 403.406962,547.217415 406.841962,545" id="Fill-44" fill="#735645"></path>
            <path d="M401.208871,252.428997 C398.977739,251.957497 396.087864,251.69719 396.548984,248.634901 C397.150444,244.651715 401.042754,243.897807 404.657245,243.522081 C407.080272,243.271597 409.013538,245.196886 408.377708,247.028857 C407.441148,249.742433 406.266868,253.025738 401.208871,252.428997" id="Fill-48" fill="#000000"></path>
            <path d="M375.058367,259.5 C372.947295,258.872338 371.23029,257.811807 371.535222,255.488738 C371.804971,253.401342 372.773718,251.083083 375.370336,251.56405 C377.577579,251.972871 380.734804,252.554841 380.486167,255.59455 C380.260986,258.360109 376.960677,258.312012 375.058367,259.5" id="Fill-50" fill="#000000"></path>
            <path d="M392.313134,207.137425 C391.553392,208.955756 389.31665,210.585076 386.230196,210.496552 C383.943472,210.431953 383.283695,208.520314 383.558602,206.556038 C384.015947,203.316538 386.382645,202.261428 389.411618,202.543747 C391.398445,202.730366 393.072877,203.613213 392.313134,207.137425" id="Fill-52" fill="#000000"></path>
            <path d="M413,229.656775 C415.048476,224.849913 418.775379,224.290976 423.208016,225.627863 C425.095257,226.198207 425.53667,227.984525 424.318158,229.079586 C421.061743,232.013438 417.2529,231.066666 413,229.656775" id="Fill-54" fill="#000000"></path>
            <path d="M390.5,249.107744 C386.856902,251.117065 383.769531,251.338065 381.852891,247.156848 C380.835294,244.934148 382.159159,243.084862 384.02887,242.683506 C388.566071,241.710598 390.099877,244.715689 390.5,249.107744" id="Fill-56" fill="#000000"></path>
            <path d="M428.29173,209.626271 C429.508088,210.713762 433.124724,209.224565 432.406494,212.440432 C431.611807,216.011397 427.791286,214.753015 425.302966,215.427703 C423.725176,215.856041 423.243267,214.295825 423.623234,212.993055 C424.248789,210.86246 425.228826,208.989312 428.29173,209.626271" id="Fill-58" fill="#000000"></path>
            <path d="M378,210.150195 C374.229361,213.070715 370.601979,214.127026 366.820528,211.495201 C365.193342,210.360562 366.236687,208.908135 367.777378,208.059953 C371.904809,205.783962 374.894291,207.495991 378,210.150195" id="Fill-60" fill="#000000"></path>
            <path d="M403.5,214.704462 C405.338453,211.068667 406.899752,207.501973 410.960054,208.756428 C412.863176,209.34379 412.78234,211.796889 411.900067,213.309146 C409.883774,216.774846 407.186144,217.683794 403.5,214.704462" id="Fill-62" fill="#000000"></path>
            <path d="M372.349465,228.5 C370.051937,228.363104 368.170821,228.134944 368.548497,225.958295 C369.049644,223.049253 371.734531,222.709294 374.206371,222.513077 C376.126223,222.360209 377.658715,223.564895 377.486824,225.221338 C377.159989,228.333443 374.041743,227.906784 372.349465,228.5" id="Fill-64" fill="#000000"></path>
            <path d="M401.5,228.177104 C399.235934,231.903052 397.385538,235.011732 393.771484,232.71304 C391.987809,231.576263 392.312518,229.752392 393.331125,227.959245 C395.913228,223.409343 398.368561,226.196821 401.5,228.177104" id="Fill-66" fill="#000000"></path>
            <path d="M438.371431,224 C439.447574,227.497723 441.659513,229.830371 437.882275,231.379648 C435.589208,232.322686 432.580303,232.467385 432.093533,229.810412 C431.246458,225.170066 436.379016,227.190862 438.371431,224" id="Fill-68" fill="#000000"></path>
            <path d="M361.598838,246 C359.931699,245.539581 357.73211,245.512093 358.026767,243.335982 C358.272314,241.540118 359.792125,239.705312 361.720319,240.039746 C363.384873,240.328367 366.23064,241.107186 365.985093,243.40012 C365.7809,245.333423 363.514109,245.704507 361.598838,246" id="Fill-70" fill="#000000"></path>
            <path d="M353.997137,227.615275 C353.516755,229.641106 352.282708,231.015537 350.085762,230.999867 C348.817554,230.990913 347.636882,230.265644 348.104454,228.721087 C348.687317,226.802704 349.690781,224.95819 351.998749,225.000722 C353.356628,225.025345 354.050513,225.992371 353.997137,227.615275" id="Fill-72" fill="#000000"></path>
            <path d="M347.941902,247.538843 C349.652595,248.389921 348.978994,250.104236 348.084248,251.395443 C345.786379,254.712217 343.811331,251.966882 341,251.290882 C343.046222,248.185663 344.69845,245.916931 347.941902,247.538843 Z" id="Fill-74" fill="#000000"></path>
            <path d="M421,247.495224 C422.254469,245.438397 422.603996,242.358432 425.589345,243.117876 C427.344164,243.566158 427.284314,245.425213 426.374585,247.036393 C424.897472,249.660165 423.19532,249.4914 421,247.495224" id="Fill-76" fill="#000000"></path>
            <path d="M267,26.1463195 C263.76129,30.6958699 262.876369,36.029199 260.800405,40.8823988 C257.764918,47.9649562 256.01051,55.4601652 254.135197,62.890492 C251.176884,74.6264114 247.112419,85.8718203 240.946265,96.2244481 C237.01814,102.821685 230.211447,106.024278 223.461349,108.809029 C219.903656,110.277965 211.394004,102.922902 210.473068,98.7237162 C208.577175,90.0372672 212.703379,83.2972887 217.102262,76.7960772 C223.25298,67.6995717 230.478982,59.3738686 238.314653,51.7437042 C245.916231,44.344521 252.810387,36.1719402 261.397212,29.787517 C263.061585,28.552157 263.138758,25.2717054 267,26.1463195" id="Fill-46" fill="#006B80"></path>
        </g>
    </g>
</svg>